# Exported from Blender
v -0.052363 0.047763 1.161499
v -0.054419 0.033617 1.161497
v -0.048311 0.052126 1.161497
v -0.047763 -0.052361 1.161499
v -0.033617 -0.054418 1.161497
v -0.052126 -0.048309 1.161497
v 0.052125 -0.048309 1.161497
v 0.054418 -0.033616 1.161497
v 0.047762 -0.052361 1.161502
v 0.048310 0.052126 1.161497
v 0.033616 0.054419 1.161497
v 0.052362 0.047763 1.161502
v 0.000306 0.048816 -1.406479
v -0.015745 0.027274 -1.466823
v 0.008373 0.029452 -1.471137
v -0.028255 0.010009 -1.472983
v -0.048816 0.000307 -1.406480
v -0.016603 0.001037 -1.495820
v 0.000003 -0.000003 -1.504241
v 0.001037 0.016602 -1.495820
v -0.038513 0.022586 1.323773
v -0.044646 0.000301 1.323773
v -0.022059 0.038818 1.323773
v 0.000300 0.044646 1.323773
v -0.063526 0.000002 1.349238
v -0.054957 0.031786 1.349169
v -0.031786 0.054957 1.349180
v 0.000002 0.063525 1.349236
v 0.000004 -0.000001 1.072233
v -0.024557 0.042906 -1.401975
v -0.000101 0.063061 -1.263612
v -0.042720 0.024877 -1.401975
v -0.031305 0.054188 -1.270352
v -0.054210 0.031258 -1.270031
v -0.063062 -0.000102 -1.263595
v -0.027274 -0.015744 -1.466823
v -0.010010 -0.028255 -1.472983
v -0.000308 -0.048816 -1.406480
v -0.001038 -0.016602 -1.495821
v -0.022585 -0.038512 1.323772
v -0.000301 -0.044645 1.323772
v -0.038817 -0.022058 1.323773
v -0.000004 -0.063526 1.349240
v -0.031787 -0.054958 1.349172
v -0.054957 -0.031786 1.349183
v -0.042907 -0.024556 -1.401976
v -0.024878 -0.042720 -1.401975
v -0.054190 -0.031305 -1.270328
v -0.031260 -0.054209 -1.270014
v 0.000101 -0.063062 -1.263588
v 0.015743 -0.027274 -1.466823
v 0.028254 -0.010009 -1.472983
v 0.048815 -0.000307 -1.406479
v 0.016601 -0.001038 -1.495821
v 0.038512 -0.022584 1.323772
v 0.044645 -0.000300 1.323772
v 0.022059 -0.038816 1.323772
v 0.063525 -0.000001 1.349238
v 0.054956 -0.031785 1.349169
v 0.031784 -0.054958 1.349182
v 0.024555 -0.042906 -1.401975
v 0.042719 -0.024877 -1.401975
v 0.031304 -0.054190 -1.270325
v 0.054208 -0.031260 -1.270021
v 0.063061 0.000101 -1.263596
v 0.027273 0.015744 -1.466823
v 0.024675 0.042120 -1.406479
v 0.022585 0.038513 1.323772
v 0.038817 0.022060 1.323772
v 0.031786 0.054957 1.349169
v 0.054956 0.031786 1.349181
v 0.042905 0.024556 -1.401975
v 0.054188 0.031303 -1.270348
v 0.031258 0.054208 -1.270040
v -0.049537 0.045530 -0.915881
v -0.095943 0.094720 -0.932138
v -0.047526 0.047551 -0.852419
v -0.095983 0.095985 -0.974265
v -0.054673 0.032434 -0.934190
v -0.092563 0.081552 -0.963672
v -0.054778 0.032543 -0.963460
v -0.049319 0.045758 -0.987645
v -0.048217 0.046849 -1.102444
v 0.045529 -0.049536 -0.915881
v 0.047550 -0.047526 -0.852419
v 0.094719 -0.095942 -0.932138
v 0.095984 -0.095982 -0.974265
v 0.032433 -0.054672 -0.934190
v 0.081551 -0.092563 -0.963672
v 0.032542 -0.054777 -0.963460
v 0.045757 -0.049318 -0.987645
v 0.046848 -0.048217 -1.102412
v -0.045530 -0.049536 -0.915881
v -0.094720 -0.095942 -0.932138
v -0.047551 -0.047525 -0.852419
v -0.095985 -0.095982 -0.974265
v -0.032434 -0.054672 -0.934190
v -0.081552 -0.092563 -0.963672
v -0.032543 -0.054777 -0.963460
v -0.045759 -0.049318 -0.987645
v -0.046850 -0.048216 -1.102462
v 0.049534 0.045531 -0.915880
v 0.047525 0.047551 -0.852419
v 0.095941 0.094714 -0.932142
v 0.095984 0.095982 -0.974265
v 0.054671 0.032434 -0.934190
v 0.092562 0.081552 -0.963672
v 0.054776 0.032542 -0.963460
v 0.049482 0.045576 -0.987560
v 0.046838 0.048228 -1.103096
v 0.049531 -0.045534 -0.915880
v 0.095284 -0.092096 -0.934632
v 0.054672 -0.032433 -0.934190
v 0.092562 -0.081552 -0.963672
v 0.054776 -0.032542 -0.963460
v 0.049480 -0.045579 -0.987561
v -0.045535 0.049532 -0.915880
v -0.092097 0.095285 -0.934632
v -0.032434 0.054672 -0.934190
v -0.081552 0.092563 -0.963672
v -0.032543 0.054777 -0.963460
v -0.045580 0.049481 -0.987561
v 0.045532 0.049534 -0.915880
v 0.092093 0.095283 -0.934634
v 0.032433 0.054672 -0.934190
v 0.081551 0.092563 -0.963672
v 0.032542 0.054777 -0.963460
v 0.045758 0.049318 -0.987645
v -0.049533 -0.045534 -0.915880
v -0.095285 -0.092096 -0.934632
v -0.054673 -0.032433 -0.934190
v -0.092563 -0.081551 -0.963672
v -0.054778 -0.032542 -0.963460
v -0.049481 -0.045579 -0.987561
v -0.123706 0.124720 1.161358
v -0.045341 0.045341 0.870793
v -0.052511 0.035525 0.896420
v -0.111019 0.107243 1.162743
v -0.056498 0.056498 1.305523
v -0.081938 0.084297 1.162835
v -0.165767 0.165768 1.162644
v -0.035525 0.052511 0.896420
v -0.033617 0.054419 1.161497
v -0.124720 -0.123705 1.161358
v -0.045341 -0.045340 0.870793
v -0.035525 -0.052510 0.896420
v -0.107243 -0.111018 1.162743
v -0.056498 -0.056497 1.305523
v -0.084297 -0.081936 1.162835
v -0.165767 -0.165766 1.162644
v -0.052511 -0.035524 0.896420
v -0.054419 -0.033616 1.161497
v 0.124719 -0.123705 1.161358
v 0.045340 -0.045340 0.870793
v 0.052510 -0.035524 0.896420
v 0.084295 -0.081935 1.162835
v 0.056497 -0.056497 1.305523
v 0.165766 -0.165766 1.162644
v 0.035524 -0.052510 0.896420
v 0.033616 -0.054418 1.161497
v 0.107242 -0.111018 1.162743
v 0.123705 0.124720 1.161358
v 0.045340 0.045341 0.870793
v 0.035524 0.052511 0.896420
v 0.107242 0.111019 1.162743
v 0.056497 0.056498 1.305523
v 0.084296 0.081938 1.162835
v 0.165766 0.165767 1.162644
v 0.052510 0.035525 0.896420
v 0.054418 0.033617 1.161497
vn -0.552728 -0.170553 0.815722
vn -0.917515 0.133364 0.374673
vn 0.171479 0.546564 0.819672
vn 0.170568 -0.552706 0.815734
vn -0.133355 -0.917515 0.374676
vn -0.546554 0.171477 0.819679
vn 0.547179 0.171320 0.819295
vn 0.918174 -0.143176 0.369402
vn -0.170325 -0.552833 0.815699
vn -0.171304 0.547184 0.819295
vn 0.143179 0.918173 0.369402
vn 0.552848 -0.170328 0.815688
vn -0.001344 0.982364 -0.186976
vn -0.462024 0.803763 -0.374832
vn 0.258475 0.873254 -0.413059
vn -0.853111 0.304940 -0.423335
vn -0.981450 0.002394 -0.191704
vn -0.689367 0.040305 -0.723290
vn 0.000122 -0.000087 -1.000000
vn 0.042714 0.690262 -0.722298
vn 0.786331 -0.461291 0.410968
vn 0.911691 -0.006423 0.410826
vn 0.450173 -0.792785 0.410896
vn -0.006420 -0.911694 0.410819
vn -0.440767 0.000254 0.897621
vn -0.381100 0.221391 0.897635
vn -0.220849 0.381209 0.897722
vn 0.000226 0.440771 0.897620
vn -0.000029 0.000009 1.000000
vn -0.493346 0.850663 -0.181608
vn -0.000820 0.999078 -0.042929
vn -0.845859 0.502150 -0.179913
vn -0.501462 0.863580 -0.052594
vn -0.864406 0.500090 -0.052088
vn -0.999078 -0.000826 -0.042924
vn -0.808976 -0.452408 -0.375346
vn -0.304935 -0.853114 -0.423334
vn -0.002394 -0.981450 -0.191702
vn -0.040307 -0.689393 -0.723265
vn 0.461292 0.786336 0.410956
vn 0.006421 0.911698 0.410811
vn 0.792787 0.450172 0.410894
vn -0.000208 -0.440766 0.897622
vn -0.221397 -0.381092 0.897637
vn -0.381219 -0.220822 0.897725
vn -0.850665 -0.493345 -0.181606
vn -0.502150 -0.845859 -0.179909
vn -0.863578 -0.501466 -0.052584
vn -0.500092 -0.864404 -0.052085
vn 0.000826 -0.999078 -0.042927
vn 0.452409 -0.808976 -0.375345
vn 0.853114 -0.304934 -0.423334
vn 0.981450 -0.002394 -0.191703
vn 0.689402 -0.040296 -0.723258
vn -0.786341 0.461295 0.410943
vn -0.911701 0.006420 0.410804
vn -0.450177 0.792791 0.410880
vn 0.440768 -0.000228 0.897621
vn 0.381112 -0.221366 0.897636
vn 0.220899 -0.381185 0.897720
vn 0.493344 -0.850666 -0.181604
vn 0.845857 -0.502153 -0.179911
vn 0.501460 -0.863582 -0.052581
vn 0.864399 -0.500101 -0.052091
vn 0.999078 0.000822 -0.042922
vn 0.803333 0.452571 -0.387087
vn 0.502012 0.844496 -0.186578
vn -0.461291 -0.786339 0.410952
vn -0.792791 -0.450176 0.410882
vn 0.221362 0.381119 0.897634
vn 0.381196 0.220862 0.897725
vn 0.855525 0.488232 -0.172354
vn 0.863497 0.501581 -0.052816
vn 0.500218 0.864313 -0.052384
vn -0.742168 -0.604515 0.289393
vn -0.671923 0.437061 0.597910
vn -0.537805 0.540904 0.646674
vn -0.570730 0.570589 -0.590505
vn -0.783266 -0.563431 0.262754
vn -0.862346 -0.478996 -0.164081
vn -0.773397 -0.597205 -0.212609
vn -0.740140 -0.630498 -0.233806
vn -0.625060 0.622148 -0.471415
vn -0.604514 -0.742168 0.289395
vn 0.540870 -0.537837 0.646676
vn 0.437056 -0.671927 0.597909
vn 0.570588 -0.570727 -0.590509
vn -0.563429 -0.783266 0.262757
vn -0.478994 -0.862346 -0.164083
vn -0.597208 -0.773395 -0.212609
vn -0.630501 -0.740138 -0.233806
vn 0.622061 -0.625075 -0.471510
vn 0.604514 -0.742169 0.289393
vn -0.437062 -0.671919 0.597914
vn -0.540901 -0.537804 0.646679
vn -0.570594 -0.570726 -0.590504
vn 0.563429 -0.783267 0.262754
vn 0.478993 -0.862347 -0.164084
vn 0.597206 -0.773396 -0.212611
vn 0.630498 -0.740139 -0.233808
vn -0.622170 -0.625075 -0.471366
vn 0.742131 -0.604559 0.289395
vn 0.537849 0.540914 0.646631
vn 0.672200 0.436673 0.597883
vn 0.570596 0.570857 -0.590375
vn 0.783255 -0.563431 0.262787
vn 0.862766 -0.478660 -0.162848
vn 0.773900 -0.597581 -0.209705
vn 0.741468 -0.626233 -0.240951
vn 0.622861 0.625748 -0.469557
vn 0.753213 0.589294 0.292236
vn 0.914760 0.252914 0.315036
vn 0.784030 0.561563 0.264471
vn 0.862505 0.477468 -0.167656
vn 0.773894 0.597574 -0.209745
vn 0.741443 0.626243 -0.241002
vn 0.589293 0.753214 0.292236
vn 0.252941 0.914751 0.315040
vn 0.561565 0.784029 0.264468
vn 0.477472 0.862503 -0.167657
vn 0.597578 0.773891 -0.209747
vn 0.626247 0.741442 -0.240996
vn -0.589240 0.753256 0.292236
vn -0.252393 0.914773 0.315417
vn -0.561564 0.784039 0.264440
vn -0.477787 0.862087 -0.168894
vn -0.597206 0.773396 -0.212610
vn -0.630529 0.740146 -0.233700
vn -0.753214 0.589293 0.292236
vn -0.914744 0.252960 0.315048
vn -0.784030 0.561562 0.264470
vn -0.862503 0.477473 -0.167655
vn -0.773893 0.597575 -0.209747
vn -0.741442 0.626248 -0.240993
vn -0.640140 0.651686 0.406848
vn -0.706730 0.706691 -0.033462
vn -0.841518 0.539676 -0.024443
vn -0.693590 -0.720316 0.008844
vn 0.358339 -0.345829 0.867177
vn 0.739508 -0.623655 -0.253345
vn -0.482179 0.477897 0.734246
vn -0.538938 0.841981 -0.024772
vn -0.143269 0.918138 0.369456
vn -0.651675 -0.640152 0.406848
vn -0.706691 -0.706731 -0.033462
vn -0.539676 -0.841518 -0.024443
vn 0.720314 -0.693591 0.008844
vn 0.345791 0.358281 0.867216
vn 0.623652 0.739507 -0.253352
vn -0.477902 -0.482185 0.734239
vn -0.841981 -0.538939 -0.024771
vn -0.918136 -0.143275 0.369457
vn 0.651690 -0.640146 0.406834
vn 0.706691 -0.706731 -0.033462
vn 0.841981 -0.538938 -0.024772
vn -0.623657 0.739506 -0.253342
vn -0.345803 0.358282 0.867211
vn 0.477903 -0.482182 0.734241
vn 0.539675 -0.841518 -0.024443
vn 0.133239 -0.917519 0.374709
vn -0.720314 -0.693592 0.008845
vn 0.640176 0.651674 0.406812
vn 0.706731 0.706691 -0.033462
vn 0.538939 0.841981 -0.024772
vn -0.720314 0.693592 0.008844
vn -0.345809 -0.358343 0.867183
vn -0.623657 -0.739505 -0.253346
vn 0.477896 0.482170 0.734253
vn 0.841518 0.539675 -0.024443
vn 0.917521 0.133232 0.374707
f 1//1 2//2 3//3
f 4//4 5//5 6//6
f 7//7 8//8 9//9
f 13//13 15//15 14//14
f 14//14 18//18 16//16
f 14//14 20//20 18//18
f 20//20 19//19 18//18
f 15//15 20//20 14//14
f 22//22 26//26 25//25
f 22//22 21//21 26//26
f 21//21 27//27 26//26
f 21//21 23//23 27//27
f 23//23 28//28 27//27
f 23//23 24//24 28//28
f 29//29 21//21 22//22
f 29//29 23//23 21//21
f 29//29 24//24 23//23
f 13//13 14//14 30//30
f 30//30 14//14 16//16
f 31//31 13//13 30//30
f 30//30 16//16 32//32
f 32//32 16//16 17//17
f 31//31 30//30 33//33
f 33//33 30//30 32//32
f 34//34 32//32 17//17
f 33//33 32//32 34//34
f 34//34 17//17 35//35
f 17//17 16//16 36//36
f 36//36 39//39 37//37
f 36//36 18//18 39//39
f 18//18 19//19 39//39
f 16//16 18//18 36//36
f 41//41 44//44 43//43
f 41//41 40//40 44//44
f 40//40 45//45 44//44
f 40//40 42//42 45//45
f 42//42 25//25 45//45
f 42//42 22//22 25//25
f 29//29 40//40 41//41
f 29//29 42//42 40//40
f 29//29 22//22 42//42
f 17//17 36//36 46//46
f 46//46 36//36 37//37
f 35//35 17//17 46//46
f 46//46 37//37 47//47
f 47//47 37//37 38//38
f 35//35 46//46 48//48
f 48//48 46//46 47//47
f 49//49 47//47 38//38
f 48//48 47//47 49//49
f 49//49 38//38 50//50
f 38//38 37//37 51//51
f 51//51 54//54 52//52
f 51//51 39//39 54//54
f 39//39 19//19 54//54
f 37//37 39//39 51//51
f 56//56 59//59 58//58
f 56//56 55//55 59//59
f 55//55 60//60 59//59
f 55//55 57//57 60//60
f 57//57 43//43 60//60
f 57//57 41//41 43//43
f 29//29 55//55 56//56
f 29//29 57//57 55//55
f 29//29 41//41 57//57
f 38//38 51//51 61//61
f 61//61 51//51 52//52
f 50//50 38//38 61//61
f 61//61 52//52 62//62
f 62//62 52//52 53//53
f 50//50 61//61 63//63
f 63//63 61//61 62//62
f 64//64 62//62 53//53
f 63//63 62//62 64//64
f 64//64 53//53 65//65
f 53//53 52//52 66//66
f 66//66 15//15 67//67
f 67//67 15//15 13//13
f 66//66 20//20 15//15
f 66//66 54//54 20//20
f 54//54 19//19 20//20
f 52//52 54//54 66//66
f 24//24 70//70 28//28
f 24//24 68//68 70//70
f 68//68 71//71 70//70
f 68//68 69//69 71//71
f 69//69 58//58 71//71
f 69//69 56//56 58//58
f 29//29 68//68 24//24
f 29//29 69//69 68//68
f 29//29 56//56 69//69
f 53//53 66//66 72//72
f 72//72 66//66 67//67
f 65//65 53//53 72//72
f 65//65 72//72 73//73
f 73//73 72//72 67//67
f 74//74 67//67 13//13
f 73//73 67//67 74//74
f 74//74 13//13 31//31
f 75//75 77//77 76//76
f 75//75 76//76 79//79
f 79//79 76//76 80//80
f 79//79 80//80 81//81
f 82//82 81//81 80//80
f 76//76 78//78 80//80
f 82//82 80//80 78//78
f 83//83 82//82 78//78
f 84//84 86//86 85//85
f 84//84 88//88 86//86
f 88//88 89//89 86//86
f 88//88 90//90 89//89
f 91//91 89//89 90//90
f 86//86 89//89 87//87
f 91//91 87//87 89//89
f 92//92 87//87 91//91
f 93//93 95//95 94//94
f 93//93 94//94 97//97
f 97//97 94//94 98//98
f 97//97 98//98 99//99
f 100//100 99//99 98//98
f 94//94 96//96 98//98
f 100//100 98//98 96//96
f 101//101 100//100 96//96
f 102//102 104//104 103//103
f 102//102 106//106 104//104
f 106//106 107//107 104//104
f 106//106 108//108 107//107
f 109//109 107//107 108//108
f 104//104 107//107 105//105
f 109//109 105//105 107//107
f 109//109 110//110 105//105
f 111//111 85//85 86//86
f 112//112 111//111 86//86
f 112//112 86//86 87//87
f 111//111 112//112 113//113
f 113//113 112//112 114//114
f 113//113 114//114 115//115
f 116//116 115//115 114//114
f 112//112 87//87 114//114
f 116//116 114//114 87//87
f 116//116 87//87 92//92
f 117//117 76//76 77//77
f 118//118 76//76 117//117
f 118//118 78//78 76//76
f 117//117 119//119 118//118
f 119//119 120//120 118//118
f 119//119 121//121 120//120
f 122//122 120//120 121//121
f 118//118 120//120 78//78
f 122//122 78//78 120//120
f 122//122 83//83 78//78
f 123//123 103//103 104//104
f 124//124 123//123 104//104
f 124//124 104//104 105//105
f 123//123 124//124 125//125
f 125//125 124//124 126//126
f 125//125 126//126 127//127
f 128//128 127//127 126//126
f 124//124 105//105 126//126
f 128//128 126//126 105//105
f 110//110 128//128 105//105
f 129//129 94//94 95//95
f 130//130 94//94 129//129
f 130//130 96//96 94//94
f 129//129 131//131 130//130
f 131//131 132//132 130//130
f 131//131 133//133 132//132
f 134//134 132//132 133//133
f 130//130 132//132 96//96
f 134//134 96//96 132//132
f 134//134 101//101 96//96
f 136//136 1//1 135//135
f 1//1 136//136 137//137
f 1//1 137//137 2//2
f 138//138 140//140 139//139
f 138//138 139//139 141//141
f 136//136 135//135 3//3
f 3//3 142//142 136//136
f 3//3 143//143 142//142
f 3//3 2//2 143//143
f 135//135 1//1 3//3
f 140//140 141//141 139//139
f 145//145 4//4 144//144
f 4//4 145//145 146//146
f 4//4 146//146 5//5
f 147//147 149//149 148//148
f 147//147 148//148 150//150
f 145//145 144//144 6//6
f 6//6 151//151 145//145
f 6//6 152//152 151//151
f 6//6 5//5 152//152
f 144//144 4//4 6//6
f 149//149 150//150 148//148
f 154//154 7//7 153//153
f 7//7 154//154 155//155
f 7//7 155//155 8//8
f 156//156 157//157 158//158
f 154//154 153//153 9//9
f 9//9 159//159 154//154
f 9//9 160//160 159//159
f 9//9 8//8 160//160
f 9//9 153//153 7//7
f 161//161 157//157 156//156
f 161//161 158//158 157//157
f 163//163 10//10 162//162
f 10//10 163//163 164//164
f 10//10 164//164 11//11
f 165//165 167//167 166//166
f 165//165 166//166 168//168
f 163//163 162//162 12//12
f 12//12 169//169 163//163
f 12//12 170//170 169//169
f 12//12 11//11 170//170
f 12//12 10//10 11//11
f 12//12 162//162 10//10
f 167//167 168//168 166//166
f 50//50 43//43 44//44
f 50//50 44//44 49//49
f 49//49 44//44 45//45
f 49//49 45//45 48//48
f 48//48 45//45 25//25
f 48//48 25//25 35//35
f 35//35 25//25 26//26
f 35//35 26//26 34//34
f 34//34 26//26 27//27
f 34//34 27//27 33//33
f 33//33 27//27 28//28
f 33//33 28//28 31//31
f 31//31 28//28 70//70
f 31//31 70//70 74//74
f 74//74 70//70 71//71
f 74//74 71//71 73//73
f 73//73 71//71 58//58
f 73//73 58//58 65//65
f 65//65 58//58 59//59
f 65//65 59//59 64//64
f 64//64 59//59 60//60
f 64//64 60//60 63//63
f 63//63 60//60 43//43
f 63//63 43//43 50//50
