# Exported from Blender
v 0.023159 0.087152 -0.295860
v 0.062902 0.063046 -1.419512
v 0.063640 0.063640 -0.302211
v 0.022952 0.086050 -1.419512
v -0.023048 0.087167 -0.296436
v -0.023148 0.085997 -1.419512
v -0.063639 0.063640 -0.302211
v -0.063045 0.062902 -1.419512
v -0.086933 0.023294 -0.302211
v -0.086049 0.022952 -1.419512
v -0.086933 -0.023294 -0.302211
v -0.085997 -0.023148 -1.419512
v -0.063639 -0.063640 -0.302211
v -0.062901 -0.063046 -1.419512
v 0.052728 0.052736 -1.548376
v 0.019297 0.072034 -1.548377
v -0.019306 0.072031 -1.548377
v 0.033467 0.033330 -1.675274
v -0.052735 0.052728 -1.548377
v 0.012319 0.045598 -1.675274
v -0.072034 0.019296 -1.548377
v -0.072031 -0.019306 -1.548377
v -0.044609 -0.044816 -1.618189
v -0.012131 0.045648 -1.675274
v -0.033330 0.033467 -1.675274
v -0.003496 0.010641 -1.787190
v -0.003179 -0.000381 -1.798714
v -0.045647 -0.012131 -1.675274
v -0.045598 0.012318 -1.675274
v -0.002292 -0.010963 -1.787190
v -0.063640 -0.063640 1.785320
v -0.072523 -0.062187 1.036093
v -0.086934 -0.023294 1.055550
v -0.101124 -0.011292 1.773326
v -0.063640 0.063640 1.785320
v -0.023294 0.086933 1.055550
v -0.011292 0.101124 1.773326
v -0.068631 0.063957 1.039780
v -0.096524 0.014390 1.776417
v -0.086934 0.023294 1.055550
v 0.014389 0.096524 1.776417
v 0.022177 0.093876 1.029967
v 0.072498 0.062161 1.036073
v 0.063639 0.063640 1.785320
v -0.057835 -0.029609 1.831088
v -0.054560 0.035281 1.831088
v 0.003274 0.064891 1.831088
v 0.044695 0.036901 1.831967
v -0.046313 -0.029948 1.830954
v -0.049093 0.025134 1.830954
v -0.002780 0.055082 1.830954
v -0.036311 -0.018590 1.464995
v -0.034255 0.022151 1.464995
v 0.028086 0.028087 1.465003
v 0.002056 0.040741 1.464990
v -0.070920 -0.070920 -0.265072
v -0.096592 -0.025882 -0.265072
v -0.096592 0.025882 -0.265072
v -0.070711 0.070711 -0.265072
v -0.037882 0.114476 -0.210561
v 0.038621 0.115030 -0.208010
v 0.070872 0.070872 -0.265072
v -0.098597 -0.019242 1.031096
v -0.021261 0.097954 1.022166
v 0.010381 0.104284 1.068463
v -0.100763 0.015572 1.041917
v -0.038407 0.115127 0.961861
v 0.038238 0.114308 0.963499
v -0.023154 -0.087152 -0.295857
v -0.022951 -0.086049 -1.419512
v 0.023048 -0.087166 -0.296436
v 0.023148 -0.085997 -1.419512
v 0.063640 -0.063640 -0.302211
v 0.063046 -0.062901 -1.419512
v 0.086933 -0.023294 -0.302211
v 0.086050 -0.022951 -1.419512
v 0.086933 0.023294 -0.302211
v 0.085997 0.023149 -1.419512
v -0.019296 -0.072034 -1.548376
v 0.019306 -0.072031 -1.548377
v 0.052736 -0.052727 -1.548377
v -0.012318 -0.045598 -1.675274
v 0.072034 -0.019296 -1.548377
v 0.072032 0.019307 -1.548377
v 0.012132 -0.045648 -1.675274
v 0.033330 -0.033466 -1.675274
v 0.045648 0.012132 -1.675274
v 0.045598 -0.012318 -1.675274
v 0.010513 0.000695 -1.789471
v 0.086933 0.023293 1.055550
v 0.101123 0.011291 1.773326
v 0.063639 -0.063640 1.785320
v 0.023293 -0.086934 1.055550
v 0.011291 -0.101125 1.773326
v 0.068631 -0.063958 1.039780
v 0.096523 -0.014391 1.776417
v 0.086933 -0.023294 1.055550
v -0.014391 -0.096524 1.776417
v -0.022178 -0.093876 1.029982
v 0.064890 -0.003276 1.831088
v 0.029609 -0.057835 1.831088
v -0.020257 -0.054306 1.831967
v 0.055082 0.002779 1.830954
v 0.029948 -0.046313 1.830954
v 0.040740 -0.002057 1.464990
v 0.018589 -0.036311 1.464995
v -0.010281 -0.038368 1.465003
v 0.096593 0.025882 -0.265072
v 0.096593 -0.025882 -0.265072
v 0.070711 -0.070711 -0.265072
v 0.037882 -0.114476 -0.210561
v -0.038600 -0.115038 -0.207995
v 0.098601 0.019233 1.031149
v 0.021260 -0.097955 1.022166
v -0.010382 -0.104284 1.068463
v 0.100763 -0.015573 1.041917
v 0.038406 -0.115127 0.961861
v -0.038216 -0.114319 0.963479
v 0.069153 0.070142 -0.622288
v 0.070992 0.069942 -0.490795
v 0.171205 0.171205 -0.483506
v 0.068013 0.068884 1.744491
v 0.078133 0.076836 1.472836
v 0.175284 0.175284 1.761252
v 0.070991 -0.069942 -0.490795
v 0.171205 -0.171205 -0.483505
v 0.069153 -0.070143 -0.622287
v 0.068884 -0.068013 1.744491
v 0.076837 -0.078133 1.472834
v 0.175285 -0.175284 1.761252
v -0.069154 -0.070142 -0.622287
v -0.070992 -0.069941 -0.490795
v -0.171205 -0.171205 -0.483505
v -0.076836 -0.078134 1.472835
v -0.175284 -0.175285 1.761252
v -0.068883 -0.068014 1.744492
v -0.070991 0.069942 -0.490795
v -0.171205 0.171206 -0.483506
v -0.069153 0.070143 -0.622288
v -0.068818 0.068077 1.465111
v -0.175284 0.175283 1.761252
v -0.078123 0.079820 1.745932
v 0.073263 0.072589 1.021849
v 0.072447 0.074758 -0.235167
v 0.077386 0.061597 0.914640
v 0.073210 0.072624 -0.268022
v 0.077386 0.061597 -0.161301
v 0.073263 -0.072589 1.021849
v 0.072447 -0.074758 -0.235167
v 0.077387 -0.061597 0.914640
v 0.073210 -0.072624 -0.268022
v 0.077386 -0.061597 -0.161301
v -0.073263 -0.072589 1.021849
v -0.072447 -0.074758 -0.235167
v -0.077386 -0.061597 0.914640
v -0.073210 -0.072624 -0.268022
v -0.077386 -0.061597 -0.161301
v -0.073263 0.072589 1.021849
v -0.072447 0.074758 -0.235167
v -0.077387 0.061597 0.914640
v -0.073210 0.072624 -0.268022
v -0.077386 0.061597 -0.161301
v 0.069796 0.076126 0.914620
v 0.064487 0.081514 0.914640
v 0.064487 0.081514 -0.161301
v 0.069796 -0.076125 0.914620
v 0.064487 -0.081514 0.914640
v 0.064487 -0.081514 -0.161301
v -0.069796 -0.076125 0.914620
v -0.064487 -0.081514 0.914640
v -0.064487 -0.081514 -0.161301
v -0.069796 0.076125 0.914620
v -0.064487 0.081514 0.914640
v -0.064487 0.081514 -0.161301
vn 0.250457 0.952921 -0.170918
vn 0.705199 0.706799 -0.055951
vn 0.695795 0.706087 -0.131566
vn 0.257318 0.964703 -0.056005
vn -0.249743 0.953541 -0.168490
vn -0.259555 0.964105 -0.055978
vn -0.696314 0.706000 -0.129273
vn -0.706812 0.705187 -0.055926
vn -0.957158 0.256467 -0.134437
vn -0.964711 0.257303 -0.055926
vn -0.957278 -0.255601 -0.135226
vn -0.964116 -0.259523 -0.055926
vn -0.695653 -0.706070 -0.132406
vn -0.703252 -0.708325 -0.060933
vn 0.697939 0.698039 -0.160071
vn 0.255413 0.953489 -0.160072
vn -0.255551 0.953452 -0.160072
vn 0.680215 0.683026 -0.266051
vn -0.698039 0.697939 -0.160072
vn 0.255786 0.929672 -0.265109
vn -0.953489 0.255413 -0.160072
vn -0.950907 -0.270271 -0.150760
vn -0.689180 -0.691257 -0.217245
vn -0.247855 0.934147 -0.256784
vn -0.683250 0.681848 -0.261251
vn -0.251641 0.807702 -0.533193
vn -0.240910 -0.029624 -0.970095
vn -0.912955 -0.284200 -0.292821
vn -0.930290 0.249895 -0.268539
vn -0.186598 -0.829938 -0.525722
vn -0.658421 -0.697191 0.283560
vn -0.764116 -0.639809 0.082283
vn -0.713793 -0.694589 0.089698
vn -0.947595 -0.190865 0.256191
vn -0.668733 0.688202 0.281379
vn -0.775727 0.627067 0.070954
vn -0.213632 0.945396 0.246147
vn -0.731816 0.675181 0.092602
vn -0.909696 0.299471 0.287700
vn -0.744813 0.649603 0.152545
vn 0.329957 0.906317 0.264041
vn 0.328043 0.937262 0.118017
vn 0.764052 0.639887 0.082269
vn 0.668806 0.677268 0.306604
vn -0.494927 -0.258507 0.829591
vn -0.467439 0.315454 0.825827
vn 0.027052 0.555544 0.831047
vn 0.016294 -0.038384 0.999130
vn 0.531326 0.275761 0.801029
vn 0.486008 -0.243084 0.839468
vn 0.056886 -0.561163 0.825749
vn 0.702216 0.326519 0.632676
vn 0.653925 -0.422898 0.627327
vn -0.550576 -0.521022 0.652228
vn 0.008007 -0.771410 0.636288
vn -0.732904 -0.654326 -0.186302
vn -0.958480 -0.254689 -0.128258
vn -0.957801 0.257104 -0.128509
vn -0.733527 0.654508 -0.183188
vn -0.413306 0.901966 -0.125040
vn 0.418619 0.900330 -0.119009
vn 0.733014 0.654337 -0.185830
vn -0.939910 -0.336352 0.058623
vn -0.259896 0.943335 0.206333
vn 0.263609 0.964038 -0.033786
vn -0.945478 0.318468 0.068189
vn -0.455492 0.882636 0.116107
vn 0.443630 0.887929 0.121548
vn -0.250202 -0.952958 -0.171087
vn -0.259685 -0.963844 -0.059743
vn 0.249737 -0.953543 -0.168486
vn 0.259553 -0.964105 -0.055979
vn 0.696313 -0.706000 -0.129273
vn 0.706811 -0.705188 -0.055926
vn 0.957158 -0.256468 -0.134437
vn 0.964711 -0.257305 -0.055925
vn 0.957251 0.255798 -0.135046
vn 0.964117 0.259522 -0.055925
vn -0.290800 -0.946060 -0.142847
vn 0.255550 -0.953452 -0.160072
vn 0.698039 -0.697939 -0.160072
vn -0.268500 -0.923470 -0.274063
vn 0.953489 -0.255414 -0.160072
vn 0.953453 0.255549 -0.160072
vn 0.250786 -0.932123 -0.261252
vn 0.679655 -0.684243 -0.264350
vn 0.933638 0.249341 -0.257196
vn 0.932041 -0.253844 -0.258577
vn 0.779854 0.052382 -0.623766
vn 0.713682 0.694696 0.089752
vn 0.946279 0.212371 0.243832
vn 0.696327 -0.658870 0.284640
vn 0.775726 -0.627068 0.070954
vn 0.191597 -0.947156 0.257266
vn 0.731816 -0.675182 0.092602
vn 0.906760 -0.329327 0.263305
vn 0.744813 -0.649602 0.152544
vn -0.308144 -0.902988 0.299434
vn -0.327826 -0.937351 0.117910
vn 0.551356 -0.036258 0.833482
vn 0.267093 -0.493956 0.827447
vn -0.041911 0.034246 0.998534
vn -0.598028 0.026850 0.801025
vn -0.329844 0.457545 0.825746
vn -0.771263 0.068313 0.632841
vn -0.392703 0.664169 0.636132
vn 0.216280 0.726497 0.652246
vn 0.958323 0.255277 -0.128256
vn 0.957801 -0.257105 -0.128510
vn 0.733527 -0.654508 -0.183188
vn 0.413332 -0.901952 -0.125057
vn -0.417944 -0.900649 -0.118967
vn 0.939773 0.336724 0.058690
vn 0.259921 -0.943322 0.206360
vn -0.263600 -0.964040 -0.033799
vn 0.945458 -0.318527 0.068189
vn 0.455533 -0.882613 0.116118
vn -0.443242 -0.888133 0.121477
vn 0.000000 0.000000 0.000000
vn 0.000000 0.000000 0.000000
vn 0.000000 0.000000 0.000000
vn 0.000000 0.000000 0.000000
vn 0.000000 0.000000 0.000000
vn 0.000000 0.000000 0.000000
vn 0.000000 -1.000000 0.000000
vn 0.000000 -1.000000 0.000000
vn 0.000000 -1.000000 0.000000
vn -0.999969 0.000000 0.007812
vn -0.999969 0.000000 0.007812
vn -0.999969 0.000000 0.007812
vn 0.000000 -1.000000 0.000000
vn 0.000000 -1.000000 0.000000
vn 0.000000 -1.000000 0.000000
vn -0.999969 0.000000 -0.007812
vn -0.999969 0.000000 -0.007812
vn -0.999969 0.000000 -0.007812
vn 0.000000 0.000000 0.000000
vn 0.000000 0.000000 0.000000
vn 0.000000 0.000000 0.000000
vn 0.000000 -1.000000 0.000000
vn 0.000000 -1.000000 0.000000
vn 0.000000 -1.000000 0.000000
vn 0.839382 0.543543 0.000176
vn 0.692756 0.720553 -0.029862
vn 0.936184 0.351509 -0.000029
vn 0.839764 0.542740 -0.015127
vn 0.935177 0.354182 -0.000000
vn 0.839383 -0.543541 0.000177
vn 0.692758 -0.720552 -0.029862
vn 0.936184 -0.351509 -0.000029
vn 0.839765 -0.542739 -0.015127
vn 0.935176 -0.354183 -0.000000
vn -0.839383 -0.543541 0.000177
vn -0.692755 -0.720554 -0.029862
vn -0.936185 -0.351506 -0.000029
vn -0.839765 -0.542740 -0.015127
vn -0.935176 -0.354183 -0.000000
vn -0.839383 0.543541 0.000176
vn -0.692756 0.720553 -0.029862
vn -0.936185 0.351508 -0.000029
vn -0.839763 0.542743 -0.015128
vn -0.935177 0.354182 -0.000000
vn 0.707408 0.706805 0.000612
vn 0.712191 0.701986 0.000470
vn 0.644415 0.764675 -0.000488
vn 0.707410 -0.706803 0.000612
vn 0.712192 -0.701985 0.000470
vn 0.644414 -0.764676 -0.000488
vn -0.707408 -0.706806 0.000612
vn -0.712193 -0.701984 0.000470
vn -0.644415 -0.764676 -0.000488
vn -0.707408 0.706805 0.000612
vn -0.712192 0.701985 0.000470
vn -0.644415 0.764676 -0.000488
f 1//1 3//3 2//2
f 1//1 2//2 4//4
f 5//5 1//1 4//4
f 5//5 4//4 6//6
f 7//7 5//5 6//6
f 7//7 6//6 8//8
f 9//9 7//7 8//8
f 9//9 8//8 10//10
f 11//11 9//9 10//10
f 11//11 10//10 12//12
f 13//13 11//11 12//12
f 13//13 12//12 14//14
f 4//4 2//2 15//15
f 4//4 15//15 16//16
f 6//6 4//4 16//16
f 6//6 16//16 17//17
f 8//8 6//6 17//17
f 16//16 15//15 18//18
f 8//8 17//17 19//19
f 10//10 8//8 19//19
f 16//16 18//18 20//20
f 17//17 16//16 20//20
f 10//10 19//19 21//21
f 12//12 10//10 21//21
f 14//14 12//12 22//22
f 12//12 21//21 22//22
f 14//14 22//22 23//23
f 17//17 20//20 24//24
f 19//19 17//17 24//24
f 20//20 18//18 89//89
f 19//19 24//24 25//25
f 21//21 19//19 25//25
f 20//20 89//89 26//26
f 24//24 20//20 26//26
f 26//26 89//89 27//27
f 23//23 22//22 28//28
f 22//22 21//21 29//29
f 21//21 25//25 29//29
f 22//22 29//29 28//28
f 25//25 24//24 26//26
f 29//29 25//25 26//26
f 29//29 26//26 27//27
f 28//28 29//29 27//27
f 23//23 28//28 27//27
f 23//23 27//27 30//30
f 31//31 33//33 32//32
f 31//31 34//34 33//33
f 35//35 37//37 36//36
f 35//35 36//36 38//38
f 39//39 35//35 38//38
f 39//39 38//38 40//40
f 41//41 43//43 42//42
f 41//41 44//44 43//43
f 45//45 34//34 31//31
f 45//45 39//39 34//34
f 45//45 46//46 39//39
f 46//46 35//35 39//39
f 46//46 37//37 35//35
f 46//46 47//47 37//37
f 47//47 41//41 37//37
f 47//47 44//44 41//41
f 47//47 48//48 44//44
f 49//49 46//46 45//45
f 49//49 50//50 46//46
f 50//50 47//47 46//46
f 50//50 51//51 47//47
f 51//51 48//48 47//47
f 52//52 50//50 49//49
f 53//53 52//52 54//54
f 52//52 53//53 50//50
f 53//53 51//51 50//50
f 53//53 55//55 51//51
f 53//53 54//54 55//55
f 55//55 54//54 48//48
f 55//55 48//48 51//51
f 11//11 13//13 56//56
f 11//11 56//56 57//57
f 9//9 11//11 57//57
f 9//9 57//57 58//58
f 7//7 9//9 58//58
f 7//7 58//58 59//59
f 5//5 7//7 59//59
f 5//5 59//59 60//60
f 1//1 5//5 60//60
f 1//1 60//60 61//61
f 3//3 1//1 62//62
f 62//62 1//1 61//61
f 32//32 33//33 63//63
f 65//65 42//42 64//64
f 38//38 36//36 64//64
f 40//40 38//38 66//66
f 57//57 56//56 32//32
f 57//57 32//32 63//63
f 58//58 57//57 63//63
f 58//58 63//63 66//66
f 59//59 58//58 66//66
f 59//59 66//66 38//38
f 59//59 38//38 67//67
f 59//59 67//67 60//60
f 61//61 60//60 67//67
f 61//61 67//67 68//68
f 43//43 61//61 68//68
f 43//43 62//62 61//61
f 37//37 64//64 36//36
f 37//37 65//65 64//64
f 37//37 41//41 65//65
f 65//65 41//41 42//42
f 34//34 63//63 33//33
f 34//34 66//66 63//63
f 34//34 39//39 66//66
f 66//66 39//39 40//40
f 42//42 43//43 68//68
f 42//42 68//68 67//67
f 42//42 67//67 64//64
f 64//64 67//67 38//38
f 69//69 13//13 14//14
f 69//69 14//14 70//70
f 71//71 69//69 70//70
f 71//71 70//70 72//72
f 73//73 71//71 72//72
f 73//73 72//72 74//74
f 75//75 73//73 74//74
f 75//75 74//74 76//76
f 77//77 75//75 76//76
f 77//77 76//76 78//78
f 3//3 77//77 78//78
f 3//3 78//78 2//2
f 70//70 14//14 23//23
f 70//70 23//23 79//79
f 72//72 70//70 79//79
f 72//72 79//79 80//80
f 74//74 72//72 80//80
f 74//74 80//80 81//81
f 76//76 74//74 81//81
f 79//79 23//23 82//82
f 80//80 79//79 82//82
f 76//76 81//81 83//83
f 78//78 76//76 83//83
f 2//2 78//78 84//84
f 78//78 83//83 84//84
f 2//2 84//84 15//15
f 80//80 82//82 85//85
f 81//81 80//80 85//85
f 82//82 23//23 30//30
f 81//81 85//85 86//86
f 83//83 81//81 86//86
f 85//85 82//82 30//30
f 15//15 84//84 87//87
f 15//15 87//87 18//18
f 84//84 83//83 88//88
f 83//83 86//86 88//88
f 84//84 88//88 87//87
f 86//86 85//85 30//30
f 86//86 30//30 89//89
f 88//88 86//86 89//89
f 89//89 30//30 27//27
f 87//87 88//88 89//89
f 18//18 87//87 89//89
f 44//44 90//90 43//43
f 44//44 91//91 90//90
f 92//92 94//94 93//93
f 92//92 93//93 95//95
f 96//96 92//92 95//95
f 96//96 95//95 97//97
f 98//98 32//32 99//99
f 98//98 31//31 32//32
f 48//48 91//91 44//44
f 48//48 100//100 91//91
f 100//100 96//96 91//91
f 100//100 92//92 96//96
f 100//100 101//101 92//92
f 101//101 94//94 92//92
f 101//101 98//98 94//94
f 101//101 102//102 98//98
f 102//102 31//31 98//98
f 102//102 45//45 31//31
f 48//48 103//103 100//100
f 103//103 101//101 100//100
f 103//103 104//104 101//101
f 104//104 102//102 101//101
f 102//102 49//49 45//45
f 54//54 103//103 48//48
f 54//54 105//105 103//103
f 105//105 104//104 103//103
f 105//105 106//106 104//104
f 54//54 106//106 105//105
f 106//106 102//102 104//104
f 54//54 107//107 106//106
f 106//106 107//107 102//102
f 107//107 54//54 52//52
f 107//107 49//49 102//102
f 107//107 52//52 49//49
f 77//77 3//3 62//62
f 77//77 62//62 108//108
f 75//75 77//77 108//108
f 75//75 108//108 109//109
f 73//73 75//75 109//109
f 73//73 109//109 110//110
f 71//71 73//73 110//110
f 71//71 110//110 111//111
f 69//69 71//71 111//111
f 69//69 111//111 112//112
f 13//13 69//69 56//56
f 56//56 69//69 112//112
f 43//43 90//90 113//113
f 115//115 99//99 114//114
f 95//95 93//93 114//114
f 97//97 95//95 116//116
f 108//108 62//62 43//43
f 108//108 43//43 113//113
f 109//109 108//108 113//113
f 109//109 113//113 116//116
f 110//110 109//109 116//116
f 110//110 116//116 95//95
f 110//110 95//95 117//117
f 110//110 117//117 111//111
f 112//112 111//111 117//117
f 112//112 117//117 118//118
f 32//32 112//112 118//118
f 32//32 56//56 112//112
f 94//94 114//114 93//93
f 94//94 115//115 114//114
f 94//94 98//98 115//115
f 115//115 98//98 99//99
f 91//91 113//113 90//90
f 91//91 116//116 113//113
f 91//91 96//96 116//116
f 116//116 96//96 97//97
f 99//99 32//32 118//118
f 99//99 118//118 117//117
f 99//99 117//117 114//114
f 114//114 117//117 95//95
f 119//119 120//120 121//121
f 122//122 124//124 123//123
f 120//120 119//119 121//121
f 123//123 124//124 122//122
f 125//125 126//126 127//127
f 128//128 130//130 129//129
f 127//127 126//126 125//125
f 129//129 130//130 128//128
f 131//131 132//132 133//133
f 134//134 136//136 135//135
f 132//132 131//131 133//133
f 136//136 134//134 135//135
f 137//137 138//138 139//139
f 140//140 142//142 141//141
f 139//139 138//138 137//137
f 142//142 140//140 141//141
f 143//143 146//146 144//144
f 146//146 143//143 145//145
f 146//146 145//145 147//147
f 148//148 149//149 151//151
f 151//151 150//150 148//148
f 151//151 152//152 150//150
f 153//153 156//156 154//154
f 156//156 153//153 155//155
f 156//156 155//155 157//157
f 158//158 159//159 161//161
f 161//161 160//160 158//158
f 161//161 162//162 160//160
f 163//163 143//143 144//144
f 143//143 163//163 164//164
f 144//144 164//164 163//163
f 144//144 146//146 165//165
f 144//144 165//165 164//164
f 166//166 149//149 148//148
f 148//148 167//167 166//166
f 149//149 166//166 167//167
f 149//149 168//168 151//151
f 149//149 167//167 168//168
f 169//169 153//153 154//154
f 153//153 169//169 170//170
f 154//154 170//170 169//169
f 154//154 156//156 171//171
f 154//154 171//171 170//170
f 172//172 159//159 158//158
f 158//158 173//173 172//172
f 159//159 172//172 173//173
f 159//159 174//174 161//161
f 159//159 173//173 174//174
