# Exported from Blender
v -0.037050 -0.064225 1.159097
v 0.000031 -0.074161 1.159097
v -0.064195 -0.037080 1.159097
v -0.074131 0.000000 1.159097
v -0.064195 0.037081 1.159097
v -0.037050 0.064226 1.159097
v 0.000031 0.074161 1.159097
v -0.020501 -0.038672 -1.318127
v 0.000031 -0.037360 -1.335873
v -0.025617 -0.021246 -1.341990
v 0.000031 -0.074161 -1.058153
v -0.045191 -0.012547 -1.311004
v -0.033198 -0.001206 -1.341296
v -0.037050 -0.064226 -1.058153
v -0.038641 0.020532 -1.318127
v -0.064194 -0.037081 -1.058154
v -0.023037 0.030246 -1.336311
v -0.074130 -0.000000 -1.058156
v 0.000031 0.033520 -1.341483
v 0.012491 0.046503 -1.305764
v -0.064194 0.037081 -1.058154
v -0.037050 0.064225 -1.058153
v 0.000031 0.074161 -1.058154
v -0.010395 0.038907 1.119283
v -0.038347 0.009599 1.117809
v -0.027471 -0.028436 1.117809
v 0.010089 -0.037537 1.116696
v -0.012756 0.047718 1.190682
v -0.048016 0.014656 1.192217
v -0.036685 -0.034281 1.192217
v 0.000031 -0.049586 1.195094
v 0.000031 0.000000 1.091634
v 0.037112 -0.064225 1.159097
v 0.064256 -0.037080 1.159097
v 0.074192 0.000000 1.159097
v 0.064256 0.037081 1.159097
v 0.037112 0.064226 1.159097
v 0.020562 -0.038672 -1.318127
v 0.025679 -0.021246 -1.341990
v 0.045252 -0.012547 -1.311004
v 0.033260 -0.001206 -1.341296
v 0.037111 -0.064226 -1.058153
v 0.038702 0.020531 -1.318127
v 0.064256 -0.037081 -1.058153
v 0.021276 0.025648 -1.341990
v 0.074192 -0.000000 -1.058154
v 0.064256 0.037080 -1.058153
v 0.037111 0.064225 -1.058153
v 0.019406 0.033559 1.118612
v 0.038409 0.009599 1.117809
v 0.033590 -0.019375 1.118612
v 0.024824 0.042943 1.195094
v 0.048077 0.014656 1.192217
v 0.036747 -0.034281 1.192217
v 0.121362 0.121331 -0.836124
v 0.052471 0.052440 -1.027767
v 0.060228 0.044700 -0.928216
v 0.052471 0.052440 -0.795893
v 0.044731 0.060196 -0.928210
v 0.121362 -0.121331 -0.836124
v 0.052471 -0.052440 -1.027767
v 0.044731 -0.060197 -0.928210
v 0.052471 -0.052440 -0.795893
v 0.060228 -0.044700 -0.928216
v -0.121300 -0.121331 -0.836124
v -0.052409 -0.052440 -1.027767
v -0.060166 -0.044700 -0.928215
v -0.052409 -0.052440 -0.795893
v -0.044669 -0.060197 -0.928214
v -0.121300 0.121331 -0.836124
v -0.052409 0.052440 -1.027767
v -0.044669 0.060197 -0.928214
v -0.052409 0.052440 -0.795893
v -0.060166 0.044700 -0.928215
v 0.054007 0.051648 1.130074
v 0.069654 0.034335 1.002799
v 0.063101 0.040887 1.130074
v 0.069654 0.034335 0.714536
v 0.113967 0.113937 1.111054
v 0.058874 0.046114 0.714754
v 0.063102 0.040887 0.575131
v 0.053227 0.053196 0.575127
v 0.040918 0.063071 1.130074
v 0.034365 0.069624 1.002799
v 0.048254 0.057614 1.015528
v 0.034365 0.069624 0.714536
v 0.046144 0.058844 0.714754
v 0.040918 0.063071 0.575131
v 0.054007 -0.051647 1.130074
v 0.034365 -0.069624 1.002799
v 0.040918 -0.063071 1.130074
v 0.048254 -0.057614 1.015528
v 0.034365 -0.069624 0.714536
v 0.113967 -0.113937 1.111054
v 0.046144 -0.058843 0.714754
v 0.040918 -0.063071 0.575131
v 0.053227 -0.053196 0.575127
v 0.063101 -0.040887 1.130074
v 0.069654 -0.034335 1.002799
v 0.069654 -0.034335 0.714536
v 0.058874 -0.046114 0.714754
v 0.063102 -0.040887 0.575131
v -0.053946 -0.051647 1.130074
v -0.069593 -0.034335 1.002799
v -0.063041 -0.040887 1.130074
v -0.069593 -0.034335 0.714536
v -0.113907 -0.113937 1.111054
v -0.058813 -0.046114 0.714754
v -0.063040 -0.040887 0.575131
v -0.053166 -0.053196 0.575127
v -0.040857 -0.063071 1.130074
v -0.034304 -0.069624 1.002799
v -0.048193 -0.057614 1.015530
v -0.034304 -0.069624 0.714536
v -0.046083 -0.058843 0.714754
v -0.040857 -0.063071 0.575131
v -0.053946 0.051648 1.130074
v -0.034304 0.069624 1.002799
v -0.040857 0.063071 1.130074
v -0.048193 0.057614 1.015530
v -0.034304 0.069624 0.714536
v -0.113907 0.113937 1.111054
v -0.046083 0.058844 0.714754
v -0.040857 0.063071 0.575131
v -0.052497 0.052527 0.575130
v -0.113907 0.113937 0.642998
v -0.063041 0.040887 1.130074
v -0.069593 0.034335 1.002799
v -0.069593 0.034335 0.714536
v -0.058813 0.046114 0.714754
v -0.063040 0.040887 0.575131
v 0.000031 -0.000000 -1.359794
vn -0.257467 -0.396477 0.881202
vn 0.025646 -0.471665 0.881405
vn -0.396963 -0.261263 0.879865
vn -0.473749 0.027799 0.880221
vn -0.424744 0.213150 0.879864
vn -0.215814 0.424717 0.879227
vn -0.012629 0.468510 0.883368
vn -0.439644 -0.864773 -0.242655
vn -0.000000 -0.834101 -0.551611
vn -0.547915 -0.504051 -0.667624
vn -0.000000 -0.998357 -0.057293
vn -0.935706 -0.270412 -0.226567
vn -0.749153 0.029521 -0.661739
vn -0.500466 -0.863724 -0.059287
vn -0.849543 0.466791 -0.245728
vn -0.862830 -0.502363 -0.056175
vn -0.508131 0.679635 -0.529055
vn -0.998556 0.002085 -0.053687
vn -0.019958 0.766880 -0.641480
vn 0.211170 0.955777 -0.204691
vn -0.863694 0.500499 -0.059440
vn -0.499172 0.864275 -0.062097
vn -0.003952 0.998463 -0.055283
vn -0.052846 0.136547 0.989223
vn -0.131913 0.022469 0.991007
vn -0.097679 -0.094931 0.990680
vn 0.003232 -0.192344 0.981322
vn -0.196901 0.482342 0.853567
vn -0.499717 0.164841 0.850359
vn -0.422208 -0.314562 0.850171
vn -0.024728 -0.458638 0.888279
vn 0.001631 0.000946 0.999998
vn 0.213627 -0.421292 0.881406
vn 0.417900 -0.230476 0.878772
vn 0.466779 0.015056 0.884246
vn 0.424742 0.213150 0.879864
vn 0.228594 0.420584 0.877983
vn 0.439642 -0.864774 -0.242655
vn 0.547914 -0.504052 -0.667624
vn 0.935705 -0.270413 -0.226567
vn 0.757869 0.013548 -0.652266
vn 0.500466 -0.863724 -0.059288
vn 0.846136 0.459868 -0.269398
vn 0.862830 -0.502364 -0.056175
vn 0.502172 0.566975 -0.652964
vn 0.998556 0.002085 -0.053686
vn 0.863797 0.500363 -0.059089
vn 0.502655 0.862718 -0.055283
vn 0.096755 0.192953 0.976426
vn 0.179376 -0.002761 0.983777
vn 0.206601 -0.048726 0.977211
vn 0.212521 0.392846 0.894711
vn 0.512363 0.095700 0.853420
vn 0.431285 -0.298288 0.851480
vn 0.631259 0.631262 0.450578
vn 0.630331 0.630329 -0.453175
vn 0.813268 -0.578981 -0.058101
vn 0.269887 0.269883 0.924296
vn -0.578992 0.813261 -0.058094
vn 0.631260 -0.631261 0.450578
vn 0.630331 -0.630330 -0.453175
vn -0.578992 -0.813261 -0.058094
vn 0.269886 -0.269881 0.924298
vn 0.813268 0.578981 -0.058101
vn -0.631260 -0.631260 0.450578
vn -0.630328 -0.630331 -0.453177
vn -0.813267 0.578983 -0.058101
vn -0.269887 -0.269888 0.924295
vn 0.578985 -0.813266 -0.058098
vn -0.631261 0.631260 0.450577
vn -0.630329 0.630331 -0.453176
vn 0.578984 0.813266 -0.058099
vn -0.269885 0.269887 0.924296
vn -0.813267 -0.578983 -0.058101
vn 0.712790 0.699946 0.044782
vn 0.742685 0.669641 0.000216
vn 0.763736 0.645500 0.006088
vn 0.737759 0.675062 -0.001621
vn 0.527913 0.523038 0.669133
vn 0.986439 0.160989 -0.031943
vn 0.777162 0.629300 -0.000024
vn 0.707091 0.707094 -0.006369
vn 0.657533 0.753410 0.004937
vn 0.653323 0.757077 0.001920
vn -0.002691 0.999830 0.018257
vn 0.674748 0.738045 -0.002288
vn 0.161187 0.986380 -0.032772
vn 0.629299 0.777164 -0.000024
vn 0.712791 -0.699946 0.044782
vn 0.653324 -0.757076 0.001920
vn 0.657533 -0.753409 0.004937
vn -0.002691 -0.999830 0.018257
vn 0.674748 -0.738045 -0.002287
vn 0.527922 -0.523029 0.669133
vn 0.161187 -0.986380 -0.032771
vn 0.629299 -0.777164 -0.000024
vn 0.707091 -0.707094 -0.006369
vn 0.763736 -0.645500 0.006088
vn 0.742685 -0.669641 0.000216
vn 0.737759 -0.675062 -0.001621
vn 0.986439 -0.160988 -0.031943
vn 0.777162 -0.629301 -0.000024
vn -0.712786 -0.699951 0.044780
vn -0.742682 -0.669645 0.000216
vn -0.763723 -0.645515 0.006085
vn -0.737752 -0.675070 -0.001622
vn -0.527920 -0.523037 0.669128
vn -0.986438 -0.160994 -0.031945
vn -0.777162 -0.629301 -0.000025
vn -0.707092 -0.707093 -0.006370
vn -0.657536 -0.753407 0.004935
vn -0.653316 -0.757083 0.001920
vn 0.002697 -0.999830 0.018259
vn -0.674748 -0.738045 -0.002288
vn -0.161187 -0.986380 -0.032772
vn -0.629299 -0.777163 -0.000025
vn -0.712786 0.699951 0.044779
vn -0.653317 0.757082 0.001920
vn -0.657536 0.753407 0.004935
vn 0.002696 0.999830 0.018258
vn -0.674748 0.738045 -0.002288
vn -0.513581 0.508867 0.690861
vn -0.032296 0.999393 -0.013044
vn -0.671611 0.740899 -0.002707
vn -0.706532 0.706534 -0.040266
vn -0.620322 0.620320 -0.480004
vn -0.763724 0.645514 0.006085
vn -0.742682 0.669644 0.000216
vn -0.737752 0.675070 -0.001622
vn -0.999411 0.032101 -0.012134
vn -0.740897 0.671613 -0.002707
vn -0.011483 -0.009658 -0.999887
f 8//8 9//9 11//11
f 10//10 8//8 12//12
f 13//13 10//10 12//12
f 8//8 11//11 14//14
f 12//12 8//8 14//14
f 15//15 13//13 12//12
f 12//12 14//14 16//16
f 12//12 16//16 18//18
f 15//15 12//12 18//18
f 19//19 17//17 20//20
f 15//15 18//18 21//21
f 17//17 15//15 21//21
f 20//20 17//17 22//22
f 17//17 21//21 22//22
f 20//20 22//22 23//23
f 14//14 11//11 2//2
f 14//14 2//2 1//1
f 16//16 14//14 1//1
f 16//16 1//1 3//3
f 18//18 16//16 3//3
f 18//18 3//3 4//4
f 21//21 18//18 4//4
f 21//21 4//4 5//5
f 22//22 21//21 5//5
f 22//22 5//5 6//6
f 23//23 22//22 6//6
f 23//23 6//6 7//7
f 24//24 7//7 6//6
f 25//25 24//24 6//6
f 25//25 6//6 5//5
f 25//25 5//5 4//4
f 26//26 25//25 4//4
f 26//26 4//4 3//3
f 26//26 3//3 1//1
f 27//27 26//26 1//1
f 27//27 1//1 2//2
f 24//24 29//29 28//28
f 24//24 25//25 29//29
f 25//25 30//30 29//29
f 25//25 26//26 30//30
f 26//26 31//31 30//30
f 26//26 27//27 31//31
f 32//32 28//28 29//29
f 32//32 29//29 30//30
f 32//32 30//30 31//31
f 38//38 11//11 9//9
f 39//39 40//40 38//38
f 41//41 40//40 39//39
f 38//38 42//42 11//11
f 40//40 42//42 38//38
f 43//43 40//40 41//41
f 40//40 44//44 42//42
f 40//40 46//46 44//44
f 43//43 46//46 40//40
f 45//45 20//20 43//43
f 19//19 20//20 45//45
f 43//43 47//47 46//46
f 20//20 47//47 43//43
f 20//20 48//48 47//47
f 20//20 23//23 48//48
f 42//42 2//2 11//11
f 42//42 33//33 2//2
f 44//44 33//33 42//42
f 44//44 34//34 33//33
f 46//46 34//34 44//44
f 46//46 35//35 34//34
f 47//47 35//35 46//46
f 47//47 36//36 35//35
f 48//48 36//36 47//47
f 48//48 37//37 36//36
f 23//23 37//37 48//48
f 23//23 7//7 37//37
f 49//49 7//7 24//24
f 49//49 37//37 7//7
f 50//50 37//37 49//49
f 50//50 36//36 37//37
f 50//50 35//35 36//36
f 51//51 35//35 50//50
f 51//51 34//34 35//35
f 27//27 34//34 51//51
f 27//27 33//33 34//34
f 27//27 2//2 33//33
f 24//24 28//28 52//52
f 24//24 52//52 49//49
f 49//49 52//52 53//53
f 49//49 53//53 50//50
f 50//50 53//53 54//54
f 50//50 54//54 51//51
f 51//51 54//54 27//27
f 27//27 54//54 31//31
f 32//32 52//52 28//28
f 32//32 53//53 52//52
f 32//32 54//54 53//53
f 32//32 31//31 54//54
f 55//55 57//57 56//56
f 58//58 57//57 55//55
f 55//55 56//56 59//59
f 58//58 55//55 59//59
f 60//60 62//62 61//61
f 63//63 62//62 60//60
f 60//60 61//61 64//64
f 63//63 60//60 64//64
f 65//65 67//67 66//66
f 68//68 67//67 65//65
f 65//65 66//66 69//69
f 68//68 65//65 69//69
f 70//70 72//72 71//71
f 73//73 72//72 70//70
f 70//70 71//71 74//74
f 73//73 70//70 74//74
f 75//75 77//77 76//76
f 75//75 76//76 78//78
f 75//75 78//78 80//80
f 80//80 78//78 81//81
f 80//80 81//81 82//82
f 79//79 75//75 80//80
f 79//79 80//80 82//82
f 75//75 84//84 83//83
f 75//75 85//85 84//84
f 85//85 86//86 84//84
f 75//75 79//79 85//85
f 85//85 87//87 86//86
f 87//87 88//88 86//86
f 87//87 82//82 88//88
f 79//79 87//87 85//85
f 79//79 82//82 87//87
f 89//89 91//91 90//90
f 89//89 90//90 92//92
f 92//92 90//90 93//93
f 89//89 92//92 94//94
f 92//92 93//93 95//95
f 95//95 93//93 96//96
f 95//95 96//96 97//97
f 94//94 92//92 95//95
f 94//94 95//95 97//97
f 89//89 99//99 98//98
f 89//89 100//100 99//99
f 89//89 101//101 100//100
f 101//101 102//102 100//100
f 101//101 97//97 102//102
f 94//94 101//101 89//89
f 94//94 97//97 101//101
f 103//103 105//105 104//104
f 103//103 104//104 106//106
f 103//103 106//106 108//108
f 108//108 106//106 109//109
f 108//108 109//109 110//110
f 107//107 103//103 108//108
f 107//107 108//108 110//110
f 103//103 112//112 111//111
f 103//103 113//113 112//112
f 113//113 114//114 112//112
f 103//103 107//107 113//113
f 113//113 115//115 114//114
f 115//115 116//116 114//114
f 115//115 110//110 116//116
f 107//107 115//115 113//113
f 107//107 110//110 115//115
f 117//117 119//119 118//118
f 117//117 118//118 120//120
f 120//120 118//118 121//121
f 117//117 120//120 122//122
f 120//120 121//121 123//123
f 123//123 121//121 124//124
f 123//123 124//124 125//125
f 122//122 120//120 123//123
f 122//122 123//123 126//126
f 126//126 123//123 125//125
f 117//117 128//128 127//127
f 117//117 129//129 128//128
f 117//117 130//130 129//129
f 130//130 131//131 129//129
f 130//130 125//125 131//131
f 122//122 130//130 117//117
f 122//122 126//126 130//130
f 126//126 125//125 130//130
f 41//41 45//45 43//43
f 132//132 19//19 45//45
f 132//132 45//45 41//41
f 132//132 17//17 19//19
f 13//13 15//15 17//17
f 132//132 41//41 39//39
f 39//39 38//38 9//9
f 132//132 13//13 17//17
f 132//132 10//10 13//13
f 10//10 9//9 8//8
f 132//132 39//39 9//9
f 132//132 9//9 10//10
