# Exported from Blender
v -0.235563 0.235564 0.995405
v -0.109563 0.095606 0.994830
v -0.095606 0.109564 0.994830
v -0.235563 -0.235563 0.995405
v -0.095606 -0.109563 0.994830
v -0.109563 -0.095606 0.994830
v 0.235564 -0.235563 0.995405
v 0.109564 -0.095606 0.994830
v 0.095606 -0.109563 0.994830
v 0.235564 0.235564 0.995404
v 0.095606 0.109564 0.994830
v 0.109563 0.095606 0.994830
v -0.028917 0.141838 -1.085222
v -0.035581 0.095625 -1.240036
v -0.080902 0.119981 -1.085204
v -0.092732 0.042646 -1.239874
v -0.122001 0.080650 -1.078475
v -0.143601 0.027798 -1.078478
v -0.095625 -0.035581 -1.240035
v -0.141838 -0.028917 -1.085222
v -0.013177 0.148958 -0.657228
v -0.082176 0.122994 -0.657228
v -0.139932 -0.056410 -0.657228
v -0.145110 -0.028943 1.163121
v -0.145110 0.028806 1.163121
v -0.142813 -0.042793 0.499656
v -0.123011 0.082160 1.163121
v -0.082176 0.122995 1.163121
v -0.028943 0.145111 1.163120
v -0.058916 0.138891 0.499656
v -0.124322 -0.004121 1.092004
v -0.090755 0.085000 1.092006
v -0.004122 0.124323 1.092003
v -0.031023 0.082533 1.083188
v -0.080328 0.036310 1.083189
v -0.082532 -0.031023 1.083188
v -0.077976 0.030258 1.166228
v -0.076595 -0.033625 1.166240
v -0.033625 0.076596 1.166242
v 0.000052 -0.000068 0.795054
v -0.017975 0.011977 -1.201065
v -0.021202 0.004159 -1.201099
v -0.021202 -0.004296 -1.201099
v -0.004296 0.021201 -1.201100
v -0.011987 0.017949 -1.201099
v -0.119981 -0.080902 -1.085205
v -0.042646 -0.092733 -1.239874
v -0.080347 -0.121572 -1.080779
v -0.027582 -0.142078 -1.085212
v 0.035580 -0.095626 -1.240036
v 0.029209 -0.142810 -1.080791
v -0.044891 -0.142612 -0.657228
v 0.062475 -0.136762 -0.657228
v 0.028943 -0.145110 1.163121
v -0.028806 -0.145110 1.163121
v -0.082159 -0.123010 1.163120
v -0.005347 -0.150279 0.499656
v -0.122994 -0.082175 1.163121
v -0.082159 -0.123010 0.499656
v 0.004122 -0.124322 1.092004
v -0.085000 -0.090754 1.092006
v -0.036310 -0.080328 1.083189
v 0.031024 -0.082532 1.083188
v -0.030257 -0.077976 1.166226
v 0.033625 -0.076595 1.166239
v 0.004296 -0.021202 -1.201099
v -0.017949 -0.011987 -1.201099
v -0.011977 -0.017975 -1.201065
v -0.004159 -0.021202 -1.201099
v 0.081543 -0.120766 -1.080775
v 0.092732 -0.042646 -1.239874
v 0.120677 -0.079868 -1.085209
v 0.142077 -0.027582 -1.085212
v 0.095625 0.035580 -1.240036
v 0.142810 0.029209 -1.080792
v 0.123011 -0.082160 -0.657228
v 0.150279 -0.005347 -0.657228
v 0.145110 0.028944 1.163120
v 0.145110 -0.028806 1.163120
v 0.139806 0.055939 0.499656
v 0.123011 -0.082159 1.163120
v 0.136733 -0.062513 0.499656
v 0.082176 -0.122994 1.163120
v 0.082176 -0.122994 0.499656
v 0.124323 0.004122 1.092003
v 0.090755 -0.085000 1.092006
v 0.080329 -0.036310 1.083189
v 0.082533 0.031024 1.083188
v 0.077976 -0.030257 1.166226
v 0.076595 0.033625 1.166241
v 0.021201 0.004296 -1.201099
v 0.011987 -0.017950 -1.201099
v 0.017975 -0.011977 -1.201066
v 0.021201 -0.004159 -1.201099
v 0.120766 0.081543 -1.080775
v 0.042646 0.092732 -1.239874
v 0.080347 0.121571 -1.080779
v 0.027683 0.143087 -1.080782
v 0.102309 0.110145 -0.657229
v 0.028806 0.145111 1.163120
v 0.082159 0.123011 1.163120
v 0.059184 0.138449 0.499656
v 0.122994 0.082176 1.163120
v 0.085000 0.090755 1.092005
v 0.036310 0.080329 1.083189
v 0.030258 0.077977 1.166228
v 0.004159 0.021201 -1.201100
v 0.011977 0.017975 -1.201066
v 0.017949 0.011987 -1.201100
v -0.119865 0.101089 0.990911
v -0.121507 0.083662 0.991253
v -0.121507 0.083662 0.789647
v -0.235289 0.235289 0.991253
v -0.104265 0.104266 0.580945
v -0.114436 0.090733 0.598684
v -0.083806 0.121315 0.991253
v -0.121406 0.083764 -0.537340
v -0.104832 0.104832 -0.566671
v -0.122346 0.102912 -0.075922
v -0.128477 0.076692 -0.256265
v -0.196634 0.196634 0.407504
v -0.128477 0.076693 0.172636
v -0.105401 0.105401 0.493127
v -0.121406 0.083764 0.471780
v -0.102585 0.102585 1.163120
v -0.083662 0.121508 0.789647
v -0.090590 0.112675 0.598359
v -0.083764 0.121406 -0.537340
v -0.102912 0.122346 -0.075923
v -0.076692 0.128477 -0.256265
v -0.076692 0.128477 0.172636
v -0.083763 0.121406 0.471780
v -0.101089 -0.119865 0.990911
v -0.083662 -0.121507 0.991253
v -0.083662 -0.121507 0.789646
v -0.235289 -0.235289 0.991253
v -0.104265 -0.104265 0.580945
v -0.090733 -0.114436 0.598684
v -0.121315 -0.083806 0.991253
v -0.083763 -0.121406 -0.537340
v -0.104832 -0.104832 -0.566671
v -0.102912 -0.122346 -0.075923
v -0.076692 -0.128477 -0.256265
v -0.196634 -0.196634 0.407504
v -0.076692 -0.128477 0.172636
v -0.105400 -0.105400 0.493127
v -0.083763 -0.121406 0.471779
v -0.102584 -0.102584 1.163120
v -0.121507 -0.083662 0.789646
v -0.112675 -0.090590 0.598359
v -0.121406 -0.083763 -0.537340
v -0.122346 -0.102912 -0.075924
v -0.128477 -0.076692 -0.256265
v -0.128477 -0.076692 0.172636
v -0.121406 -0.083763 0.471779
v 0.121315 -0.083806 0.991253
v 0.121507 -0.083662 0.789646
v 0.112675 -0.090590 0.598359
v 0.235289 -0.235289 0.991253
v 0.104266 -0.104265 0.580945
v 0.121406 -0.083764 -0.537340
v 0.104832 -0.104832 -0.566671
v 0.122346 -0.102912 -0.075924
v 0.128477 -0.076692 -0.256266
v 0.196634 -0.196634 0.407503
v 0.128477 -0.076692 0.172636
v 0.105401 -0.105400 0.493127
v 0.121406 -0.083763 0.471779
v 0.102585 -0.102584 1.163120
v 0.101089 -0.119865 0.990911
v 0.083662 -0.121507 0.789646
v 0.083662 -0.121507 0.991252
v 0.090733 -0.114436 0.598684
v 0.083764 -0.121406 -0.537340
v 0.102912 -0.122346 -0.075923
v 0.076692 -0.128477 -0.256265
v 0.076692 -0.128477 0.172636
v 0.083764 -0.121406 0.471779
v 0.083807 0.121315 0.991252
v 0.083662 0.121508 0.789646
v 0.090590 0.112675 0.598359
v 0.235289 0.235289 0.991252
v 0.104266 0.104266 0.580944
v 0.083764 0.121406 -0.537340
v 0.104833 0.104832 -0.566671
v 0.102912 0.122346 -0.075923
v 0.076693 0.128477 -0.256266
v 0.196634 0.196634 0.407503
v 0.076693 0.128477 0.172636
v 0.105401 0.105401 0.493126
v 0.083764 0.121406 0.471779
v 0.102585 0.102585 1.163120
v 0.119866 0.101090 0.990911
v 0.121507 0.083663 0.789646
v 0.121507 0.083663 0.991252
v 0.114436 0.090734 0.598683
v 0.121406 0.083763 -0.537340
v 0.122346 0.102912 -0.075923
v 0.128477 0.076692 -0.256266
v 0.128477 0.076693 0.172636
v 0.121406 0.083764 0.471779
v -0.005421 -0.150391 -0.657228
v -0.110111 -0.102493 -0.657228
v -0.102372 -0.110232 0.499656
v 0.005525 -0.150391 0.499656
v 0.102476 -0.110233 -0.657228
v 0.082280 -0.123131 0.499656
v 0.141026 -0.052538 0.499656
v 0.145215 -0.028943 -0.657228
v 0.141026 0.052401 -0.657228
v 0.136838 0.062514 0.499656
v 0.082280 0.122994 -0.657228
v 0.082280 0.122994 0.499656
v 0.005525 0.150254 -0.657228
v -0.005420 0.150254 0.499656
v 0.000052 -0.000069 -1.225156
v 0.000052 -0.000068 -1.303841
v -0.047070 0.022587 -1.293362
v -0.028698 -0.059487 -1.287141
v 0.047178 -0.022713 -1.293362
v 0.022695 0.047074 -1.293357
v 0.089967 0.055879 -1.246399
v 0.057302 0.086238 -1.244882
v 0.098675 0.019548 -1.242879
v 0.101701 -0.019886 -1.244881
v 0.086397 -0.061642 -1.246217
v 0.055917 -0.083677 -1.242879
v 0.020598 -0.101579 -1.244882
v -0.019565 -0.098691 -1.242879
v -0.055813 -0.083677 -1.242879
v -0.089862 -0.056017 -1.246400
v -0.098570 -0.019686 -1.242879
v -0.101596 0.019748 -1.244881
v -0.086288 0.061514 -1.246218
v -0.055813 0.083539 -1.242879
v -0.017464 0.104526 -1.246217
v 0.019669 0.098554 -1.242879
vn -0.686099 0.686096 -0.241950
vn -0.550124 -0.492492 -0.674400
vn 0.492492 0.550123 -0.674401
vn -0.686102 -0.686091 -0.241957
vn 0.492488 -0.550126 -0.674401
vn -0.550126 0.492490 -0.674399
vn 0.686093 -0.686096 -0.241968
vn 0.550122 0.492491 -0.674402
vn -0.492494 -0.550124 -0.674399
vn 0.686095 0.686097 -0.241959
vn -0.492493 0.550122 -0.674400
vn 0.550122 -0.492493 -0.674400
vn -0.197243 0.969742 -0.143861
vn -0.181795 0.491752 -0.851546
vn -0.553858 0.820028 -0.144204
vn -0.478819 0.218986 -0.850164
vn -0.821600 0.554770 -0.131162
vn -0.975403 0.177350 -0.130907
vn -0.491996 -0.181545 -0.851458
vn -0.970318 -0.192607 -0.146234
vn -0.025823 0.999657 0.004389
vn -0.560929 0.827864 0.000250
vn -0.931641 -0.363345 0.005034
vn -0.297828 0.030651 0.954127
vn -0.301287 -0.023643 0.953240
vn -0.955480 -0.295034 -0.003565
vn -0.190401 0.233305 0.953581
vn -0.238662 0.188345 0.952663
vn 0.039704 0.299964 0.953124
vn -0.405629 0.914022 -0.005348
vn 0.706179 0.023033 0.707658
vn 0.515559 -0.483039 0.707723
vn 0.023038 -0.706175 0.707662
vn -0.148037 0.411834 0.899154
vn -0.396024 0.186514 0.899098
vn -0.411826 -0.148050 0.899155
vn -0.289088 0.105271 0.951497
vn -0.278774 -0.130188 0.951491
vn -0.130020 0.278919 0.951472
vn -0.000130 0.000178 1.000000
vn -0.065490 0.037112 -0.997163
vn -0.066251 0.020911 -0.997584
vn -0.087937 -0.024392 -0.995827
vn -0.024867 0.087504 -0.995854
vn -0.036054 0.059684 -0.997566
vn -0.816375 -0.559338 -0.143780
vn -0.219581 -0.477794 -0.850586
vn -0.554344 -0.822084 -0.129923
vn -0.180615 -0.972388 -0.147783
vn 0.183001 -0.491609 -0.851370
vn 0.187334 -0.972858 -0.135840
vn -0.331655 -0.943299 0.013849
vn 0.386344 -0.922340 0.005316
vn -0.015737 -0.294033 0.955666
vn 0.013759 -0.296929 0.954800
vn -0.226157 -0.193186 0.954742
vn -0.020559 -0.999770 -0.006125
vn -0.194153 -0.229638 0.953714
vn -0.589025 -0.808074 -0.008107
vn -0.023032 0.706180 0.707658
vn 0.483042 0.515552 0.707727
vn -0.186515 -0.396025 0.899098
vn 0.148052 -0.411827 0.899155
vn -0.105171 -0.288997 0.951536
vn 0.130029 -0.278729 0.951527
vn 0.024698 -0.088877 -0.995736
vn -0.063741 -0.038100 -0.997239
vn -0.038177 -0.067923 -0.996960
vn -0.021086 -0.067010 -0.997529
vn 0.563131 -0.814558 -0.139207
vn 0.477671 -0.220123 -0.850515
vn 0.823778 -0.548506 -0.143289
vn 0.971194 -0.187912 -0.146528
vn 0.491610 0.183000 -0.851370
vn 0.971704 0.195703 -0.132256
vn 0.831983 -0.554801 0.000039
vn 0.999750 0.021486 0.006125
vn 0.299418 -0.037952 0.953367
vn 0.302607 0.034912 0.952476
vn 0.930633 0.365801 -0.010616
vn 0.188239 -0.230354 0.954727
vn 0.927848 -0.372874 -0.007917
vn 0.226787 -0.196866 0.953840
vn 0.540147 -0.841549 -0.006078
vn -0.706179 -0.023032 0.707658
vn -0.515551 0.483041 0.707728
vn 0.396024 -0.186516 0.899098
vn 0.411826 0.148050 0.899155
vn 0.288883 -0.105385 0.951546
vn 0.278873 0.129862 0.951507
vn 0.088457 0.024856 -0.995770
vn 0.038507 -0.064189 -0.997195
vn 0.068247 -0.038286 -0.996934
vn 0.067092 -0.020977 -0.997526
vn 0.820697 0.554808 -0.136548
vn 0.219805 0.478425 -0.850174
vn 0.547586 0.825292 -0.137996
vn 0.183510 0.973661 -0.135305
vn 0.682792 0.730452 0.015341
vn -0.036587 0.302965 0.952299
vn 0.238411 0.184581 0.953462
vn 0.389833 0.920832 -0.009900
vn 0.188625 0.238720 0.952593
vn -0.483043 -0.515551 0.707727
vn 0.186515 0.396028 0.899096
vn 0.105487 0.288974 0.951508
vn 0.021161 0.070322 -0.997300
vn 0.038721 0.067131 -0.996993
vn 0.060091 0.036317 -0.997532
vn -0.583426 -0.166783 0.794857
vn -0.910017 0.093641 0.403857
vn -0.941422 0.336546 -0.021462
vn -0.660385 0.616855 0.428231
vn -0.692357 0.682884 -0.233049
vn -0.819719 0.572154 -0.026453
vn 0.435207 0.608242 0.663805
vn -0.808311 0.588179 -0.026056
vn -0.706775 0.706775 -0.030648
vn -0.988075 -0.153216 -0.015278
vn -0.946289 0.322983 -0.014786
vn -0.568930 0.568932 0.593831
vn -0.897276 0.440849 0.023393
vn -0.706699 0.706699 0.033944
vn -0.806332 0.591441 0.005080
vn -0.470639 0.470638 0.746324
vn -0.787097 0.616829 0.000025
vn -0.021385 0.953803 -0.299669
vn -0.588179 0.808311 -0.026056
vn 0.153216 0.988075 -0.015278
vn -0.322982 0.946289 -0.014787
vn -0.440849 0.897276 0.023393
vn -0.591441 0.806332 0.005079
vn 0.166780 -0.583422 0.794860
vn -0.093644 -0.910017 0.403857
vn -0.336546 -0.941422 -0.021461
vn -0.616859 -0.660383 0.428228
vn -0.682885 -0.692356 -0.233049
vn -0.572155 -0.819719 -0.026453
vn -0.608243 0.435208 0.663803
vn -0.588179 -0.808311 -0.026055
vn -0.706775 -0.706774 -0.030648
vn 0.153216 -0.988075 -0.015278
vn -0.322983 -0.946289 -0.014786
vn -0.568930 -0.568930 0.593833
vn -0.440850 -0.897276 0.023393
vn -0.706699 -0.706699 0.033944
vn -0.591441 -0.806332 0.005080
vn -0.470637 -0.470636 0.746326
vn -0.616831 -0.787096 0.000025
vn -0.953803 -0.021383 -0.299669
vn -0.808311 -0.588179 -0.026055
vn -0.988075 0.153215 -0.015278
vn -0.946289 -0.322983 -0.014786
vn -0.897276 -0.440850 0.023393
vn -0.806332 -0.591441 0.005080
vn 0.608240 0.435209 0.663805
vn 0.616831 -0.787096 0.000025
vn 0.953804 -0.021385 -0.299669
vn 0.616854 -0.660385 0.428232
vn 0.682884 -0.692357 -0.233048
vn 0.808311 -0.588179 -0.026055
vn 0.706774 -0.706775 -0.030648
vn 0.988075 0.153216 -0.015278
vn 0.946290 -0.322982 -0.014786
vn 0.568928 -0.568932 0.593833
vn 0.897276 -0.440849 0.023393
vn 0.706699 -0.706699 0.033944
vn 0.806333 -0.591440 0.005080
vn 0.470640 -0.470640 0.746322
vn -0.166788 -0.583422 0.794859
vn 0.336546 -0.941423 -0.021461
vn 0.093636 -0.910017 0.403857
vn 0.572154 -0.819719 -0.026453
vn 0.588178 -0.808311 -0.026055
vn -0.153216 -0.988075 -0.015278
vn 0.322981 -0.946290 -0.014786
vn 0.440848 -0.897277 0.023393
vn 0.591440 -0.806333 0.005080
vn -0.435210 0.608241 0.663803
vn 0.787097 0.616830 0.000025
vn 0.021385 0.953803 -0.299670
vn 0.660385 0.616855 0.428230
vn 0.692357 0.682884 -0.233049
vn 0.588179 0.808311 -0.026056
vn 0.706775 0.706774 -0.030649
vn -0.153215 0.988075 -0.015278
vn 0.322983 0.946289 -0.014787
vn 0.568932 0.568928 0.593834
vn 0.440850 0.897276 0.023392
vn 0.706700 0.706699 0.033944
vn 0.591441 0.806332 0.005079
vn 0.470639 0.470637 0.746324
vn 0.583417 -0.166786 0.794863
vn 0.941422 0.336546 -0.021462
vn 0.910016 0.093640 0.403859
vn 0.819719 0.572155 -0.026454
vn 0.808311 0.588179 -0.026056
vn 0.988074 -0.153217 -0.015278
vn 0.946290 0.322982 -0.014786
vn 0.897276 0.440849 0.023392
vn 0.806333 0.591440 0.005079
vn -0.036391 -0.999332 -0.003343
vn -0.655760 -0.754969 0.000501
vn -0.639442 -0.768834 0.002746
vn -0.004995 -0.999987 -0.000704
vn 0.659816 -0.751412 -0.004838
vn 0.569186 -0.822209 0.000769
vn 0.946715 -0.322037 0.004838
vn 0.977440 -0.211213 -0.000769
vn 0.932191 0.361965 0.000955
vn 0.926336 0.376695 0.001670
vn 0.571314 0.820731 -0.001391
vn 0.539624 0.841905 0.001390
vn 0.020845 0.999782 -0.001396
vn 0.042184 0.999105 -0.003207
vn 0.001209 -0.001599 -0.999998
vn -0.010388 -0.022003 -0.999704
vn -0.409695 0.190359 -0.892140
vn -0.219985 -0.478470 -0.850102
vn 0.406588 -0.200227 -0.891401
vn 0.195788 0.412191 -0.889812
vn 0.557905 0.285407 -0.779285
vn 0.327350 0.604673 -0.726094
vn 0.668775 0.088787 -0.738144
vn 0.665471 -0.047471 -0.744913
vn 0.494348 -0.422333 -0.759773
vn 0.333669 -0.574745 -0.747217
vn 0.161370 -0.638491 -0.752521
vn -0.176766 -0.754610 -0.631916
vn -0.389559 -0.686580 -0.613882
vn -0.575992 -0.309120 -0.756755
vn -0.668792 -0.088781 -0.738129
vn -0.665454 0.047465 -0.744928
vn -0.505874 0.418879 -0.754077
vn -0.422538 0.676110 -0.603603
vn -0.110239 0.626357 -0.771703
vn 0.170468 0.642391 -0.747178
f 1//1 3//3 2//2
f 4//4 6//6 5//5
f 7//7 9//9 8//8
f 10//10 12//12 11//11
f 13//13 14//14 15//15
f 15//15 14//14 16//16
f 15//15 16//16 17//17
f 17//17 16//16 18//18
f 18//18 16//16 19//19
f 18//18 19//19 20//20
f 15//15 21//21 13//13
f 15//15 22//22 21//21
f 17//17 22//22 15//15
f 20//20 23//23 18//18
f 26//26 24//24 25//25
f 27//27 28//28 30//30
f 30//30 28//28 29//29
f 24//24 31//31 25//25
f 25//25 31//31 32//32
f 25//25 32//32 27//27
f 27//27 32//32 28//28
f 28//28 32//32 33//33
f 28//28 33//33 29//29
f 32//32 34//34 33//33
f 32//32 35//35 34//34
f 31//31 35//35 32//32
f 31//31 36//36 35//35
f 36//36 38//38 37//37
f 36//36 37//37 35//35
f 35//35 37//37 39//39
f 35//35 39//39 34//34
f 40//40 39//39 37//37
f 40//40 37//37 38//38
f 41//41 43//43 42//42
f 43//43 41//41 44//44
f 44//44 41//41 45//45
f 20//20 19//19 46//46
f 46//46 19//19 47//47
f 46//46 47//47 48//48
f 48//48 47//47 49//49
f 49//49 47//47 50//50
f 49//49 50//50 51//51
f 46//46 23//23 20//20
f 48//48 23//23 46//46
f 23//23 48//48 52//52
f 51//51 52//52 49//49
f 49//49 52//52 48//48
f 52//52 51//51 53//53
f 55//55 57//57 54//54
f 59//59 57//57 55//55
f 55//55 56//56 59//59
f 59//59 56//56 58//58
f 58//58 26//26 59//59
f 58//58 24//24 26//26
f 54//54 60//60 55//55
f 55//55 60//60 61//61
f 55//55 61//61 56//56
f 56//56 61//61 58//58
f 58//58 61//61 31//31
f 58//58 31//31 24//24
f 61//61 36//36 31//31
f 61//61 62//62 36//36
f 60//60 62//62 61//61
f 60//60 63//63 62//62
f 63//63 65//65 64//64
f 63//63 64//64 62//62
f 62//62 64//64 38//38
f 62//62 38//38 36//36
f 40//40 38//38 64//64
f 40//40 64//64 65//65
f 66//66 67//67 43//43
f 67//67 66//66 68//68
f 68//68 66//66 69//69
f 51//51 50//50 70//70
f 70//70 50//50 71//71
f 70//70 71//71 72//72
f 72//72 71//71 73//73
f 73//73 71//71 74//74
f 73//73 74//74 75//75
f 53//53 51//51 70//70
f 53//53 70//70 76//76
f 72//72 76//76 70//70
f 73//73 76//76 72//72
f 75//75 77//77 73//73
f 73//73 77//77 76//76
f 80//80 78//78 79//79
f 79//79 82//82 80//80
f 81//81 82//82 79//79
f 84//84 82//82 81//81
f 81//81 83//83 84//84
f 84//84 83//83 54//54
f 54//54 57//57 84//84
f 78//78 85//85 79//79
f 79//79 85//85 86//86
f 79//79 86//86 81//81
f 81//81 86//86 83//83
f 83//83 86//86 60//60
f 83//83 60//60 54//54
f 86//86 63//63 60//60
f 86//86 87//87 63//63
f 85//85 87//87 86//86
f 85//85 88//88 87//87
f 88//88 90//90 89//89
f 88//88 89//89 87//87
f 87//87 89//89 65//65
f 87//87 65//65 63//63
f 40//40 65//65 89//89
f 40//40 89//89 90//90
f 91//91 92//92 66//66
f 92//92 91//91 93//93
f 93//93 91//91 94//94
f 75//75 74//74 95//95
f 95//95 74//74 96//96
f 95//95 96//96 97//97
f 97//97 96//96 98//98
f 98//98 96//96 14//14
f 98//98 14//14 13//13
f 77//77 75//75 95//95
f 77//77 95//95 99//99
f 99//99 95//95 97//97
f 99//99 97//97 98//98
f 13//13 21//21 98//98
f 99//99 98//98 21//21
f 30//30 29//29 100//100
f 30//30 100//100 102//102
f 102//102 100//100 101//101
f 102//102 101//101 103//103
f 102//102 103//103 80//80
f 80//80 103//103 78//78
f 29//29 33//33 100//100
f 100//100 33//33 104//104
f 100//100 104//104 101//101
f 101//101 104//104 103//103
f 103//103 104//104 85//85
f 103//103 85//85 78//78
f 104//104 88//88 85//85
f 104//104 105//105 88//88
f 33//33 105//105 104//104
f 33//33 34//34 105//105
f 34//34 39//39 106//106
f 34//34 106//106 105//105
f 105//105 106//106 90//90
f 105//105 90//90 88//88
f 40//40 90//90 106//106
f 40//40 106//106 39//39
f 107//107 91//91 44//44
f 91//91 107//107 108//108
f 91//91 108//108 109//109
f 110//110 112//112 111//111
f 113//113 114//114 110//110
f 110//110 115//115 112//112
f 110//110 114//114 115//115
f 110//110 116//116 113//113
f 110//110 111//111 116//116
f 119//119 118//118 117//117
f 119//119 117//117 120//120
f 119//119 121//121 118//118
f 119//119 120//120 122//122
f 119//119 123//123 121//121
f 123//123 119//119 122//122
f 123//123 122//122 124//124
f 125//125 1//1 2//2
f 116//116 126//126 127//127
f 113//113 116//116 127//127
f 113//113 127//127 114//114
f 129//129 128//128 118//118
f 129//129 130//130 128//128
f 129//129 118//118 121//121
f 129//129 131//131 130//130
f 129//129 121//121 123//123
f 123//123 131//131 129//129
f 123//123 132//132 131//131
f 125//125 3//3 1//1
f 133//133 135//135 134//134
f 136//136 137//137 133//133
f 133//133 138//138 135//135
f 133//133 137//137 138//138
f 133//133 139//139 136//136
f 133//133 134//134 139//139
f 142//142 141//141 140//140
f 142//142 140//140 143//143
f 142//142 144//144 141//141
f 142//142 143//143 145//145
f 142//142 146//146 144//144
f 146//146 142//142 145//145
f 146//146 145//145 147//147
f 148//148 4//4 5//5
f 139//139 149//149 150//150
f 136//136 139//139 150//150
f 136//136 150//150 137//137
f 152//152 151//151 141//141
f 152//152 153//153 151//151
f 152//152 141//141 144//144
f 152//152 154//154 153//153
f 152//152 144//144 146//146
f 146//146 154//154 152//152
f 146//146 155//155 154//154
f 148//148 6//6 4//4
f 156//156 158//158 157//157
f 159//159 158//158 156//156
f 159//159 160//160 158//158
f 163//163 162//162 161//161
f 163//163 161//161 164//164
f 163//163 165//165 162//162
f 163//163 164//164 166//166
f 163//163 167//167 165//165
f 167//167 163//163 166//166
f 167//167 166//166 168//168
f 169//169 7//7 8//8
f 170//170 172//172 171//171
f 159//159 170//170 160//160
f 170//170 171//171 173//173
f 170//170 173//173 160//160
f 170//170 159//159 156//156
f 170//170 156//156 172//172
f 175//175 174//174 162//162
f 175//175 176//176 174//174
f 175//175 162//162 165//165
f 175//175 177//177 176//176
f 175//175 165//165 167//167
f 167//167 177//177 175//175
f 167//167 178//178 177//177
f 169//169 9//9 7//7
f 179//179 181//181 180//180
f 182//182 181//181 179//179
f 182//182 183//183 181//181
f 186//186 185//185 184//184
f 186//186 184//184 187//187
f 186//186 188//188 185//185
f 186//186 187//187 189//189
f 186//186 190//190 188//188
f 190//190 186//186 189//189
f 190//190 189//189 191//191
f 192//192 10//10 11//11
f 193//193 195//195 194//194
f 182//182 193//193 183//183
f 193//193 194//194 196//196
f 193//193 196//196 183//183
f 193//193 182//182 179//179
f 193//193 179//179 195//195
f 198//198 197//197 185//185
f 198//198 199//199 197//197
f 198//198 185//185 188//188
f 198//198 200//200 199//199
f 198//198 188//188 190//190
f 190//190 200//200 198//198
f 190//190 201//201 200//200
f 192//192 12//12 10//10
f 202//202 204//204 203//203
f 202//202 205//205 204//204
f 206//206 205//205 202//202
f 206//206 207//207 205//205
f 206//206 208//208 207//207
f 209//209 208//208 206//206
f 210//210 208//208 209//209
f 210//210 211//211 208//208
f 212//212 211//211 210//210
f 212//212 213//213 211//211
f 214//214 213//213 212//212
f 214//214 215//215 213//213
f 22//22 215//215 214//214
f 22//22 30//30 215//215
f 17//17 30//30 22//22
f 17//17 27//27 30//30
f 18//18 27//27 17//17
f 18//18 25//25 27//27
f 23//23 25//25 18//18
f 23//23 26//26 25//25
f 203//203 26//26 23//23
f 203//203 204//204 26//26
f 216//216 109//109 91//91
f 216//216 91//91 94//94
f 216//216 108//108 109//109
f 216//216 94//94 93//93
f 216//216 107//107 108//108
f 216//216 93//93 92//92
f 216//216 44//44 107//107
f 216//216 92//92 66//66
f 216//216 45//45 44//44
f 216//216 66//66 69//69
f 216//216 41//41 45//45
f 216//216 69//69 68//68
f 216//216 42//42 41//41
f 216//216 68//68 67//67
f 216//216 43//43 42//42
f 216//216 67//67 43//43
f 107//107 14//14 96//96
f 107//107 44//44 14//14
f 108//108 107//107 96//96
f 44//44 45//45 14//14
f 109//109 108//108 96//96
f 45//45 16//16 14//14
f 109//109 96//96 74//74
f 45//45 41//41 16//16
f 91//91 109//109 74//74
f 41//41 42//42 16//16
f 94//94 91//91 74//74
f 42//42 19//19 16//16
f 94//94 74//74 71//71
f 42//42 43//43 19//19
f 93//93 94//94 71//71
f 43//43 67//67 19//19
f 92//92 93//93 71//71
f 67//67 47//47 19//19
f 92//92 71//71 50//50
f 67//67 68//68 47//47
f 66//66 92//92 50//50
f 68//68 69//69 47//47
f 69//69 66//66 50//50
f 69//69 50//50 47//47
f 218//218 217//217 219//219
f 219//219 217//217 220//220
f 220//220 217//217 221//221
f 217//217 218//218 221//221
f 225//225 222//222 224//224
f 228//228 226//226 227//227
f 229//229 219//219 228//228
f 230//230 219//219 229//229
f 231//231 219//219 230//230
f 233//233 231//231 232//232
f 236//236 234//234 235//235
f 223//223 236//236 237//237
f 222//222 221//221 223//223
f 222//222 220//220 221//221
f 225//225 220//220 222//222
f 226//226 220//220 225//225
f 228//228 220//220 226//226
f 228//228 219//219 220//220
f 231//231 218//218 219//219
f 233//233 218//218 231//231
f 234//234 218//218 233//233
f 236//236 218//218 234//234
f 236//236 221//221 218//218
f 223//223 221//221 236//236
