# Exported from Blender
v 0.087129 -0.015322 -0.533966
v 0.087112 0.019337 -0.533967
v 0.051143 -0.007302 -0.789845
v 0.073833 0.051351 -0.533967
v 0.050796 0.012975 -0.789845
v 0.049314 0.075847 -0.533967
v 0.042716 0.031576 -0.789845
v 0.017287 0.089094 -0.533966
v 0.028133 0.045669 -0.789845
v 0.009267 0.053108 -0.789845
v 0.020152 0.104034 -0.325683
v 0.057678 0.088552 -0.325683
v 0.086423 0.059889 -0.325684
v 0.020526 0.103836 0.021617
v 0.102011 0.022407 -0.325683
v 0.102069 -0.018187 -0.325683
v 0.057936 0.088246 0.020991
v 0.086547 0.059539 0.019658
v 0.102014 0.022068 0.017690
v 0.101981 -0.018483 0.015260
v -0.017372 0.089077 -0.533967
v -0.049386 0.075798 -0.533967
v -0.011010 0.052761 -0.789845
v -0.073882 0.051279 -0.533967
v -0.029611 0.044681 -0.789845
v -0.087129 0.019252 -0.533967
v -0.043704 0.030098 -0.789845
v -0.051143 0.011232 -0.789845
v -0.102069 0.022118 -0.325683
v -0.086587 0.059644 -0.325683
v -0.057924 0.088389 -0.325684
v -0.101933 0.022513 0.017063
v -0.020442 0.103976 -0.325683
v -0.086280 0.059949 0.019171
v -0.057510 0.088536 0.020687
v -0.020007 0.103941 0.021514
v -0.087112 -0.015407 -0.533966
v -0.073833 -0.047421 -0.533967
v -0.050796 -0.009045 -0.789845
v -0.049314 -0.071917 -0.533966
v -0.042716 -0.027646 -0.789845
v -0.017287 -0.085164 -0.533967
v -0.028133 -0.041739 -0.789845
v -0.009267 -0.049178 -0.789845
v -0.020153 -0.100104 -0.325684
v -0.057679 -0.084622 -0.325684
v -0.086423 -0.055958 -0.325683
v -0.020251 -0.099529 0.050533
v -0.102011 -0.018476 -0.325683
v -0.057488 -0.084120 0.049271
v -0.086027 -0.055651 0.047421
v -0.101523 -0.018414 0.045632
v 0.017372 -0.085147 -0.533966
v 0.049386 -0.071868 -0.533967
v 0.011010 -0.048831 -0.789845
v 0.073882 -0.047349 -0.533966
v 0.029611 -0.040751 -0.789845
v 0.043703 -0.026168 -0.789845
v 0.086587 -0.055713 -0.325684
v 0.057923 -0.084458 -0.325684
v 0.020441 -0.100046 -0.325683
v 0.085964 -0.055695 0.048242
v 0.057354 -0.084188 0.049814
v 0.020059 -0.099561 0.050723
v 0.011373 -0.024628 -0.815500
v -0.010762 -0.024881 -0.815500
v 0.018557 -0.016248 -0.819886
v 0.028921 0.002295 -0.815500
v 0.020216 0.022649 -0.815500
v -0.000330 0.030886 -0.815500
v -0.020684 0.022181 -0.815500
v -0.028921 0.001635 -0.815500
v -0.019037 -0.016347 -0.819384
v -0.019237 -0.045845 -0.790676
v 0.020204 -0.045445 -0.790676
v 0.047810 -0.017272 -0.790676
v 0.047410 0.022169 -0.790676
v 0.019237 0.049775 -0.790676
v -0.009892 0.051694 -0.790443
v -0.036809 0.038034 -0.790676
v -0.051533 0.001442 -0.790676
v -0.042158 -0.026204 -0.790443
v -0.021439 -0.044894 -0.782641
v -0.042158 -0.026204 -0.782641
v -0.051496 0.003840 -0.782641
v -0.035088 0.039704 -0.782641
v -0.009892 0.051694 -0.782641
v 0.021439 0.048824 -0.782641
v 0.048293 0.019940 -0.782641
v 0.046859 -0.019474 -0.782641
v 0.017975 -0.046328 -0.782641
v -0.000000 0.102152 -0.371877
v -0.000000 0.119673 -0.371877
v -0.009629 0.119673 -0.366317
v -0.011380 0.102152 -0.359242
v -0.009629 0.119673 -0.355199
v -0.000000 0.119673 -0.349639
v -0.000000 0.102152 -0.349639
v 0.009629 0.119740 -0.355199
v 0.011380 0.102152 -0.362274
v 0.009629 0.119740 -0.366317
v -0.007003 0.102152 0.046493
v -0.000000 0.119673 0.044471
v -0.009629 0.119673 0.050031
v -0.009629 0.119673 0.061149
v -0.004377 0.102152 0.066203
v -0.000000 0.119673 0.066709
v 0.009629 0.119740 0.061149
v 0.009629 0.102152 0.061149
v 0.009629 0.119740 0.050031
v 0.009629 0.102152 0.050031
v 0.061104 -0.012138 0.587591
v 0.029469 -0.013130 0.818091
v 0.030122 0.011554 0.818091
v 0.061097 0.012169 0.587591
v 0.051790 0.034624 0.587591
v 0.013130 0.029469 0.818091
v 0.034598 0.051807 0.587591
v 0.012138 0.061104 0.587592
v 0.086137 -0.016627 0.316175
v 0.086903 0.017920 0.304272
v 0.074274 0.050401 0.292205
v 0.049879 0.075616 0.282707
v 0.017442 0.089340 0.277768
v -0.011553 0.030122 0.818091
v -0.012169 0.061098 0.587591
v -0.034624 0.051790 0.587591
v -0.029469 0.013130 0.818091
v -0.051807 0.034598 0.587591
v -0.061103 0.012138 0.587591
v -0.017803 0.089237 0.278257
v -0.050098 0.075363 0.284112
v -0.074283 0.050148 0.294318
v -0.086765 0.017830 0.306740
v -0.030122 -0.011553 0.818091
v -0.071067 -0.014236 0.498239
v -0.051790 -0.034624 0.587591
v -0.013130 -0.029468 0.818091
v -0.034597 -0.051807 0.587591
v -0.012138 -0.061103 0.587591
v -0.069706 -0.046576 0.363186
v -0.046576 -0.069706 0.363186
v -0.016355 -0.082224 0.363186
v 0.011553 -0.030121 0.818091
v 0.012169 -0.061097 0.587591
v 0.034624 -0.051790 0.587591
v 0.051807 -0.034597 0.587591
v 0.016355 -0.082224 0.363186
v 0.046576 -0.069706 0.363186
v 0.069706 -0.046576 0.363186
v 0.022508 0.021787 0.816671
v 0.026349 0.034338 0.728851
v 0.092056 0.091907 0.829737
v 0.042560 0.042650 0.598025
v 0.034254 0.026683 0.728074
v -0.021786 0.022509 0.816671
v -0.034338 0.026349 0.728851
v -0.091906 0.092056 0.829737
v -0.042650 0.042560 0.598025
v -0.026683 0.034254 0.728074
v -0.022508 -0.021786 0.816671
v -0.026349 -0.034338 0.728851
v -0.092056 -0.091906 0.829737
v -0.042560 -0.042649 0.598025
v -0.034253 -0.026682 0.728074
v 0.021787 -0.022508 0.816671
v 0.034338 -0.026349 0.728851
v 0.091907 -0.092055 0.829737
v 0.042650 -0.042560 0.598025
v 0.026683 -0.034253 0.728074
v 0.014826 -0.007306 0.834856
v 0.000000 -0.016016 0.834489
v 0.011325 0.011325 0.834489
v -0.005365 0.015801 0.834712
v -0.015650 -0.005317 0.834856
v -0.017607 0.018930 -0.823184
v -0.024446 0.001511 -0.823184
v -0.011610 0.005912 -0.833325
v -0.000454 0.026411 -0.823184
v 0.004001 0.013743 -0.833194
v -0.004001 -0.009813 -0.833194
v 0.000454 -0.022481 -0.823184
v 0.016965 0.019572 -0.823184
v 0.011610 -0.001982 -0.833325
v 0.024446 0.002419 -0.823184
vn 0.975253 -0.193494 -0.106965
vn 0.975063 0.194449 -0.106966
vn 0.973790 -0.176444 -0.143526
vn 0.826429 0.552787 -0.106966
vn 0.967187 0.209641 -0.143526
vn 0.551979 0.826969 -0.106966
vn 0.813339 0.563808 -0.143526
vn 0.193494 0.975253 -0.106966
vn 0.535668 0.832142 -0.143526
vn 0.176444 0.973790 -0.143526
vn 0.193573 0.980416 -0.036250
vn 0.554024 0.831711 -0.036252
vn 0.830131 0.556388 -0.036267
vn 0.197452 0.979873 0.029368
vn 0.979859 0.196362 -0.036295
vn 0.980416 -0.193558 -0.036335
vn 0.557380 0.829752 0.028982
vn 0.832450 0.553377 0.028296
vn 0.980849 0.192832 0.027402
vn 0.980317 -0.196333 0.020794
vn -0.194449 0.975063 -0.106966
vn -0.552787 0.826429 -0.106966
vn -0.209641 0.967187 -0.143526
vn -0.826969 0.551979 -0.106965
vn -0.563808 0.813339 -0.143526
vn -0.975253 0.193494 -0.106966
vn -0.832142 0.535668 -0.143526
vn -0.973790 0.176444 -0.143526
vn -0.980467 0.193356 -0.036015
vn -0.831700 0.554035 -0.036322
vn -0.556374 0.830139 -0.036286
vn -0.980171 0.196950 0.021812
vn -0.196347 0.979864 -0.036261
vn -0.829886 0.557209 0.028412
vn -0.553351 0.832441 0.029066
vn -0.192582 0.980840 0.029397
vn -0.975063 -0.194448 -0.106965
vn -0.826429 -0.552787 -0.106966
vn -0.967187 -0.209641 -0.143526
vn -0.551979 -0.826969 -0.106965
vn -0.813339 -0.563809 -0.143526
vn -0.193494 -0.975253 -0.106965
vn -0.535668 -0.832142 -0.143526
vn -0.176445 -0.973790 -0.143526
vn -0.193579 -0.980437 -0.035648
vn -0.554038 -0.831728 -0.035646
vn -0.830152 -0.556396 -0.035651
vn -0.195818 -0.980204 0.029237
vn -0.979885 -0.196354 -0.035649
vn -0.555773 -0.830811 0.029486
vn -0.831186 -0.555182 0.030029
vn -0.981525 -0.188293 0.033981
vn 0.194448 -0.975063 -0.106965
vn 0.552787 -0.826429 -0.106966
vn 0.209640 -0.967187 -0.143526
vn 0.826969 -0.551979 -0.106965
vn 0.563808 -0.813339 -0.143526
vn 0.832142 -0.535668 -0.143526
vn 0.831602 -0.554204 -0.035998
vn 0.556390 -0.830155 -0.035681
vn 0.196350 -0.979885 -0.035662
vn 0.834830 -0.549477 0.033677
vn 0.554651 -0.831557 0.029574
vn 0.194084 -0.980548 0.029269
vn 0.286302 -0.732174 -0.618022
vn -0.215218 -0.730249 -0.648396
vn 0.530720 -0.518156 -0.670709
vn 0.783353 0.018431 -0.621303
vn 0.550304 0.561996 -0.617516
vn -0.022740 0.787497 -0.615899
vn -0.569702 0.557696 -0.603667
vn -0.792466 0.010785 -0.609821
vn -0.540520 -0.474253 -0.694926
vn -0.299267 -0.898310 -0.321679
vn 0.394382 -0.857203 -0.331160
vn 0.886463 -0.333175 -0.321214
vn 0.861056 0.395791 -0.319267
vn 0.354359 0.876221 -0.326597
vn -0.190711 0.920752 -0.340360
vn -0.706414 0.624095 -0.333892
vn -0.941988 -0.006070 -0.335593
vn -0.788629 -0.518372 -0.330688
vn -0.422245 -0.906482 0.000474
vn -0.836588 -0.547770 0.008218
vn -0.994399 0.105181 -0.010338
vn -0.675896 0.736997 0.000473
vn -0.185924 0.982530 0.008217
vn 0.477713 0.878455 -0.010339
vn 0.952358 0.304964 -0.003473
vn 0.889059 -0.457779 -0.003472
vn 0.304962 -0.952358 -0.003472
vn -0.010589 -0.083764 -0.996429
vn 0.030237 0.592275 -0.805168
vn -0.681571 0.596480 -0.423878
vn -0.986989 -0.106562 0.120407
vn -0.666437 0.590234 0.455506
vn -0.032615 0.592217 0.805118
vn 0.010763 -0.083599 0.996441
vn 0.679209 0.599105 0.423968
vn 0.987028 -0.106388 -0.120240
vn 0.664187 0.592952 -0.455263
vn -0.648915 -0.218863 -0.728704
vn 0.025264 0.595100 -0.803255
vn -0.727945 0.590217 -0.348912
vn -0.741706 0.568477 0.355958
vn -0.448079 -0.151137 0.881126
vn 0.060518 0.588734 0.806058
vn 0.678546 0.596253 0.429019
vn 0.818360 0.000000 0.574706
vn 0.684819 0.611391 -0.396516
vn 0.809550 -0.078124 -0.581829
vn 0.974919 -0.191942 0.112654
vn 0.834374 -0.369692 0.408837
vn 0.849299 0.322314 0.418096
vn 0.974816 0.192796 0.112087
vn 0.825300 0.553483 0.111970
vn 0.369327 0.832167 0.413638
vn 0.552998 0.825650 0.111780
vn 0.192230 0.974970 0.111716
vn 0.976951 -0.201036 0.071770
vn 0.977652 0.197056 0.073253
vn 0.827711 0.556321 0.073491
vn 0.551928 0.830626 0.073727
vn 0.192396 0.978531 0.073899
vn -0.328669 0.851506 0.408551
vn -0.192776 0.974876 0.111598
vn -0.553466 0.825360 0.111611
vn -0.825473 0.369817 0.426416
vn -0.825634 0.553060 0.111596
vn -0.978138 0.170875 0.118523
vn -0.196135 0.977786 0.073936
vn -0.554610 0.828826 0.073855
vn -0.828826 0.554625 0.073749
vn -0.984076 0.161400 0.074462
vn -0.851478 -0.328599 0.408665
vn -0.976793 -0.190940 0.097048
vn -0.832298 -0.541407 0.118988
vn -0.372635 -0.828456 0.418096
vn -0.552947 -0.825498 0.113148
vn -0.192229 -0.974800 0.113193
vn -0.844676 -0.530216 0.073437
vn -0.553799 -0.829150 0.076264
vn -0.194470 -0.977969 0.075877
vn 0.327336 -0.849556 0.413649
vn 0.192723 -0.974708 0.113148
vn 0.553362 -0.825214 0.113193
vn 0.825498 -0.552947 0.113148
vn 0.194455 -0.977971 0.075895
vn 0.553787 -0.829154 0.076313
vn 0.830663 -0.550751 0.081682
vn -0.088451 -0.096984 0.991348
vn -0.656315 0.754480 -0.003073
vn 0.516753 0.516067 0.683111
vn 0.672512 0.681526 -0.288532
vn 0.753628 -0.657266 -0.006805
vn 0.096996 -0.088462 0.991346
vn -0.754481 -0.656315 -0.003073
vn -0.516067 0.516745 0.683118
vn -0.681526 0.672512 -0.288531
vn 0.657266 0.753628 -0.006805
vn 0.088455 0.096989 0.991347
vn 0.656315 -0.754481 -0.003073
vn -0.516748 -0.516069 0.683113
vn -0.672510 -0.681528 -0.288530
vn -0.753627 0.657267 -0.006805
vn -0.096989 0.088456 0.991347
vn 0.754481 0.656315 -0.003073
vn 0.516069 -0.516747 0.683114
vn 0.681525 -0.672513 -0.288531
vn -0.657266 -0.753628 -0.006805
vn 0.409111 -0.191063 0.892257
vn -0.011730 -0.453705 0.891075
vn 0.329069 0.311575 0.891423
vn -0.169333 0.427815 0.887863
vn -0.433285 -0.133734 0.891280
vn -0.545540 0.540613 -0.640409
vn -0.756093 -0.049053 -0.652623
vn -0.377808 0.107913 -0.919574
vn -0.028940 0.769899 -0.637509
vn 0.125635 0.376221 -0.917973
vn -0.144418 -0.396235 -0.906720
vn 0.030792 -0.769442 -0.637973
vn 0.540735 0.545628 -0.640231
vn 0.379765 -0.157852 -0.911516
vn 0.767608 0.011070 -0.640824
f 3//3 2//2 1//1
f 3//3 5//5 2//2
f 5//5 4//4 2//2
f 5//5 7//7 4//4
f 7//7 6//6 4//4
f 7//7 9//9 6//6
f 9//9 8//8 6//6
f 9//9 10//10 8//8
f 6//6 8//8 11//11
f 6//6 11//11 12//12
f 4//4 6//6 12//12
f 4//4 12//12 13//13
f 2//2 4//4 13//13
f 14//14 12//12 11//11
f 2//2 13//13 15//15
f 1//1 2//2 15//15
f 1//1 15//15 16//16
f 14//14 17//17 12//12
f 17//17 13//13 12//12
f 124//124 17//17 14//14
f 124//124 123//123 17//17
f 17//17 18//18 13//13
f 18//18 15//15 13//13
f 19//19 16//16 15//15
f 18//18 19//19 15//15
f 19//19 20//20 16//16
f 123//123 18//18 17//17
f 123//123 122//122 18//18
f 122//122 19//19 18//18
f 122//122 121//121 19//19
f 121//121 20//20 19//19
f 121//121 120//120 20//20
f 10//10 21//21 8//8
f 10//10 23//23 21//21
f 23//23 22//22 21//21
f 23//23 25//25 22//22
f 25//25 24//24 22//22
f 25//25 27//27 24//24
f 27//27 26//26 24//24
f 27//27 28//28 26//26
f 24//24 26//26 29//29
f 24//24 29//29 30//30
f 22//22 24//24 30//30
f 22//22 30//30 31//31
f 21//21 22//22 31//31
f 32//32 30//30 29//29
f 21//21 31//31 33//33
f 8//8 21//21 33//33
f 8//8 33//33 11//11
f 32//32 34//34 30//30
f 34//34 31//31 30//30
f 134//134 34//34 32//32
f 134//134 133//133 34//34
f 34//34 35//35 31//31
f 35//35 33//33 31//31
f 36//36 11//11 33//33
f 35//35 36//36 33//33
f 36//36 14//14 11//11
f 133//133 35//35 34//34
f 133//133 132//132 35//35
f 132//132 36//36 35//35
f 132//132 131//131 36//36
f 131//131 14//14 36//36
f 131//131 124//124 14//14
f 28//28 37//37 26//26
f 28//28 39//39 37//37
f 39//39 38//38 37//37
f 39//39 41//41 38//38
f 41//41 40//40 38//38
f 41//41 43//43 40//40
f 43//43 42//42 40//40
f 43//43 44//44 42//42
f 40//40 42//42 45//45
f 40//40 45//45 46//46
f 38//38 40//40 46//46
f 38//38 46//46 47//47
f 37//37 38//38 47//47
f 48//48 46//46 45//45
f 37//37 47//47 49//49
f 26//26 37//37 49//49
f 26//26 49//49 29//29
f 48//48 50//50 46//46
f 50//50 47//47 46//46
f 50//50 51//51 47//47
f 51//51 49//49 47//47
f 52//52 29//29 49//49
f 51//51 52//52 49//49
f 52//52 32//32 29//29
f 52//52 134//134 32//32
f 44//44 53//53 42//42
f 44//44 55//55 53//53
f 55//55 54//54 53//53
f 55//55 57//57 54//54
f 57//57 56//56 54//54
f 57//57 58//58 56//56
f 58//58 1//1 56//56
f 58//58 3//3 1//1
f 56//56 1//1 16//16
f 56//56 16//16 59//59
f 54//54 56//56 59//59
f 54//54 59//59 60//60
f 53//53 54//54 60//60
f 20//20 59//59 16//16
f 53//53 60//60 61//61
f 42//42 53//53 61//61
f 42//42 61//61 45//45
f 20//20 62//62 59//59
f 62//62 60//60 59//59
f 120//120 62//62 20//20
f 62//62 63//63 60//60
f 63//63 61//61 60//60
f 64//64 45//45 61//61
f 63//63 64//64 61//61
f 64//64 48//48 45//45
f 66//66 75//75 74//74
f 66//66 65//65 75//75
f 65//65 76//76 75//75
f 65//65 67//67 76//76
f 67//67 68//68 76//76
f 68//68 77//77 76//76
f 68//68 69//69 77//77
f 69//69 78//78 77//77
f 69//69 70//70 78//78
f 70//70 79//79 78//78
f 70//70 80//80 79//79
f 70//70 71//71 80//80
f 71//71 81//81 80//80
f 71//71 72//72 81//81
f 72//72 82//82 81//81
f 72//72 73//73 82//82
f 73//73 74//74 82//82
f 73//73 66//66 74//74
f 82//82 74//74 83//83
f 82//82 83//83 84//84
f 81//81 82//82 84//84
f 81//81 84//84 85//85
f 80//80 81//81 85//85
f 80//80 85//85 86//86
f 79//79 80//80 86//86
f 79//79 86//86 87//87
f 78//78 79//79 87//87
f 78//78 87//87 88//88
f 77//77 78//78 88//88
f 77//77 88//88 89//89
f 76//76 77//77 89//89
f 76//76 89//89 90//90
f 75//75 76//76 90//90
f 75//75 90//90 91//91
f 74//74 75//75 91//91
f 74//74 91//91 83//83
f 92//92 94//94 93//93
f 92//92 95//95 94//94
f 95//95 96//96 94//94
f 95//95 97//97 96//96
f 95//95 98//98 97//97
f 98//98 99//99 97//97
f 98//98 100//100 99//99
f 100//100 101//101 99//99
f 100//100 93//93 101//101
f 100//100 92//92 93//93
f 99//99 96//96 97//97
f 96//96 99//99 101//101
f 96//96 101//101 94//94
f 94//94 101//101 93//93
f 102//102 104//104 103//103
f 102//102 105//105 104//104
f 102//102 106//106 105//105
f 106//106 107//107 105//105
f 106//106 108//108 107//107
f 106//106 109//109 108//108
f 109//109 110//110 108//108
f 109//109 111//111 110//110
f 111//111 103//103 110//110
f 111//111 102//102 103//103
f 108//108 105//105 107//107
f 105//105 108//108 110//110
f 105//105 110//110 104//104
f 104//104 110//110 103//103
f 112//112 114//114 113//113
f 112//112 115//115 114//114
f 115//115 116//116 114//114
f 116//116 117//117 114//114
f 116//116 118//118 117//117
f 118//118 119//119 117//117
f 115//115 112//112 120//120
f 115//115 120//120 121//121
f 116//116 115//115 121//121
f 116//116 121//121 122//122
f 118//118 116//116 122//122
f 118//118 122//122 123//123
f 119//119 118//118 123//123
f 119//119 123//123 124//124
f 119//119 125//125 117//117
f 119//119 126//126 125//125
f 126//126 127//127 125//125
f 127//127 128//128 125//125
f 127//127 129//129 128//128
f 129//129 130//130 128//128
f 126//126 119//119 124//124
f 126//126 124//124 131//131
f 127//127 126//126 131//131
f 127//127 131//131 132//132
f 129//129 127//127 132//132
f 129//129 132//132 133//133
f 130//130 129//129 133//133
f 130//130 133//133 134//134
f 130//130 135//135 128//128
f 130//130 136//136 135//135
f 136//136 137//137 135//135
f 137//137 138//138 135//135
f 137//137 139//139 138//138
f 139//139 140//140 138//138
f 136//136 130//130 134//134
f 136//136 134//134 52//52
f 137//137 136//136 141//141
f 141//141 136//136 52//52
f 139//139 137//137 141//141
f 141//141 52//52 51//51
f 139//139 141//141 142//142
f 142//142 141//141 51//51
f 140//140 139//139 142//142
f 142//142 51//51 50//50
f 140//140 142//142 143//143
f 143//143 142//142 50//50
f 143//143 50//50 48//48
f 140//140 144//144 138//138
f 140//140 145//145 144//144
f 145//145 146//146 144//144
f 146//146 113//113 144//144
f 146//146 147//147 113//113
f 147//147 112//112 113//113
f 145//145 140//140 143//143
f 145//145 143//143 148//148
f 148//148 143//143 48//48
f 146//146 145//145 148//148
f 148//148 48//48 64//64
f 146//146 148//148 149//149
f 149//149 148//148 64//64
f 147//147 146//146 149//149
f 149//149 64//64 63//63
f 147//147 149//149 150//150
f 150//150 149//149 63//63
f 112//112 147//147 150//150
f 150//150 63//63 62//62
f 112//112 150//150 120//120
f 120//120 150//150 62//62
f 151//151 153//153 152//152
f 153//153 154//154 152//152
f 153//153 155//155 154//154
f 155//155 153//153 151//151
f 156//156 158//158 157//157
f 158//158 159//159 157//157
f 158//158 160//160 159//159
f 160//160 158//158 156//156
f 161//161 163//163 162//162
f 163//163 164//164 162//162
f 163//163 165//165 164//164
f 165//165 163//163 161//161
f 166//166 168//168 167//167
f 168//168 169//169 167//167
f 168//168 170//170 169//169
f 170//170 168//168 166//166
f 171//171 144//144 113//113
f 171//171 172//172 144//144
f 172//172 138//138 144//144
f 171//171 113//113 114//114
f 173//173 171//171 114//114
f 173//173 172//172 171//171
f 173//173 114//114 117//117
f 174//174 173//173 117//117
f 174//174 172//172 173//173
f 174//174 117//117 125//125
f 174//174 125//125 128//128
f 172//172 175//175 138//138
f 174//174 175//175 172//172
f 175//175 135//135 138//138
f 175//175 174//174 128//128
f 175//175 128//128 135//135
f 176//176 72//72 71//71
f 176//176 177//177 72//72
f 178//178 177//177 176//176
f 177//177 73//73 72//72
f 179//179 176//176 71//71
f 179//179 71//71 70//70
f 178//178 73//73 177//177
f 180//180 176//176 179//179
f 180//180 178//178 176//176
f 178//178 181//181 73//73
f 181//181 178//178 180//180
f 73//73 182//182 66//66
f 181//181 182//182 73//73
f 182//182 65//65 66//66
f 183//183 179//179 70//70
f 183//183 70//70 69//69
f 180//180 179//179 183//183
f 182//182 67//67 65//65
f 181//181 67//67 182//182
f 181//181 180//180 184//184
f 181//181 184//184 67//67
f 67//67 185//185 68//68
f 184//184 185//185 67//67
f 185//185 69//69 68//68
f 185//185 183//183 69//69
f 184//184 180//180 183//183
f 184//184 183//183 185//185
