# Exported from Blender
v -0.017148 0.089289 1.954942
v 0.000005 0.127202 1.468137
v -0.048673 0.117521 1.468136
v -0.062774 0.064005 1.953882
v -0.082066 0.082066 1.621492
v -0.000271 0.180248 0.334859
v -0.096398 0.096398 1.312656
v -0.069228 0.166423 0.334858
v -0.116252 0.116310 0.742422
v -0.151913 0.062969 0.742420
v -0.117517 0.048683 1.468138
v -0.164446 0.000041 0.742419
v -0.127201 0.000005 1.468141
v -0.089055 0.018327 1.954942
v 0.082744 0.034274 1.954114
v 0.127202 -0.000005 1.468137
v 0.089055 -0.018326 1.954942
v 0.117521 0.048674 1.468138
v 0.064005 0.062774 1.953882
v 0.082066 0.082066 1.621492
v 0.096398 0.096398 1.312656
v 0.166424 0.069228 0.334859
v 0.127263 0.127646 0.334858
v 0.068728 0.166631 0.334858
v 0.048683 0.117517 1.468137
v 0.034274 0.082744 1.954114
v -0.043128 0.103294 -1.311603
v 0.008350 0.051747 -1.504560
v -0.000316 0.111937 -1.311603
v -0.030686 0.042494 -1.504560
v -0.079375 0.078927 -1.311603
v -0.013413 0.020899 -1.560372
v -0.103536 0.042543 -1.311603
v -0.051747 0.008351 -1.504557
v -0.111936 -0.000318 -1.311603
v -0.022834 0.002687 -1.563585
v 0.002153 -0.000646 -1.584725
v -0.165541 -0.000136 -1.013956
v -0.152991 0.063224 -1.013957
v -0.117150 0.116959 -1.013957
v -0.063474 0.152888 -1.013957
v -0.000135 0.165541 -1.013956
v 0.165542 0.000135 -1.013957
v 0.152889 0.063475 -1.013957
v 0.111938 0.000317 -1.311604
v 0.116960 0.117151 -1.013957
v 0.103296 0.043129 -1.311603
v 0.063226 0.152992 -1.013956
v 0.078928 0.079375 -1.311603
v 0.042544 0.103537 -1.311603
v 0.034899 0.004864 -1.543342
v 0.042495 0.030687 -1.504560
v 0.010022 0.019853 -1.565521
v 0.180248 0.000271 0.334857
v 0.183729 0.000114 -0.730937
v 0.169700 0.070415 -0.730936
v 0.129836 0.129996 -0.730936
v 0.070206 0.169786 -0.730936
v -0.000113 0.183728 -0.730936
v -0.129984 0.130248 0.040237
v -0.070414 0.169699 -0.730935
v -0.169934 0.070590 0.040237
v -0.184012 0.000186 0.040238
v -0.129995 0.129835 -0.730936
v -0.169786 0.070205 -0.730935
v -0.183728 -0.000114 -0.730936
v -0.063658 -0.011821 1.998389
v -0.053372 0.036654 1.998389
v -0.040471 0.019417 2.015271
v -0.009246 0.055056 2.008711
v 0.040580 0.003464 2.017276
v 0.012607 0.025770 2.018525
v 0.032393 0.045469 2.008711
v 0.063658 0.011822 1.998389
v 0.121239 0.136388 1.776924
v 0.082613 0.078088 1.784569
v 0.182897 0.182896 1.434728
v 0.130365 0.144463 1.443765
v 0.122076 0.138056 1.799152
v 0.183136 0.182333 1.952350
v 0.110749 0.125858 1.895402
v 0.072698 0.072698 1.787803
v 0.109406 0.109406 1.787802
v 0.146113 0.146114 1.787802
v 0.182821 0.182821 1.787802
v 0.160409 0.150367 1.780646
v 0.144463 0.130365 1.443766
v 0.138056 0.122077 1.799152
v -0.136387 0.121239 1.776924
v -0.078088 0.082613 1.784569
v -0.182896 0.182897 1.434728
v -0.144463 0.130365 1.443765
v -0.138056 0.122077 1.799152
v -0.182333 0.183136 1.952350
v -0.125858 0.110749 1.895402
v -0.072698 0.072698 1.787803
v -0.109406 0.109406 1.787803
v -0.146113 0.146114 1.787802
v -0.182821 0.182821 1.787802
v -0.150367 0.160409 1.780646
v -0.130365 0.144463 1.443766
v -0.122077 0.138056 1.799152
v 0.034274 -0.082744 1.954114
v -0.000005 -0.127201 1.468137
v -0.018327 -0.089054 1.954942
v 0.048673 -0.117520 1.468138
v 0.062774 -0.064005 1.953882
v 0.082066 -0.082066 1.621492
v 0.000271 -0.180247 0.334859
v 0.096398 -0.096398 1.312656
v 0.069228 -0.166423 0.334858
v 0.116252 -0.116310 0.742421
v 0.151913 -0.062969 0.742420
v 0.117517 -0.048682 1.468140
v -0.082744 -0.034273 1.954114
v -0.117521 -0.048673 1.468136
v -0.064005 -0.062774 1.953882
v -0.082066 -0.082066 1.621492
v -0.096398 -0.096398 1.312656
v -0.151945 -0.062893 0.742415
v -0.127263 -0.127646 0.334858
v -0.068728 -0.166631 0.334858
v -0.048682 -0.117517 1.468137
v 0.043129 -0.103295 -1.311603
v 0.002466 -0.047581 -1.520197
v 0.000316 -0.111937 -1.311603
v 0.079375 -0.078927 -1.311603
v 0.004394 -0.024442 -1.560371
v 0.031961 -0.020909 -1.538558
v 0.103537 -0.042543 -1.311602
v 0.152991 -0.063225 -1.013957
v 0.117150 -0.116960 -1.013957
v 0.063474 -0.152889 -1.013957
v 0.000135 -0.165542 -1.013956
v -0.152889 -0.063475 -1.013957
v -0.116960 -0.117152 -1.013957
v -0.103295 -0.043129 -1.311604
v -0.063226 -0.152992 -1.013956
v -0.078928 -0.079376 -1.311603
v -0.042544 -0.103538 -1.311603
v -0.042496 -0.030685 -1.504563
v -0.017667 -0.017296 -1.561641
v -0.170077 -0.070247 0.040235
v -0.169700 -0.070415 -0.730937
v -0.129836 -0.129996 -0.730937
v -0.070205 -0.169787 -0.730936
v 0.000113 -0.183729 -0.730936
v 0.129984 -0.130248 0.040237
v 0.070414 -0.169699 -0.730936
v 0.169934 -0.070590 0.040237
v 0.129995 -0.129835 -0.730936
v 0.169786 -0.070205 -0.730935
v 0.045468 -0.032392 2.008711
v 0.003809 -0.054884 2.010134
v -0.012666 -0.025891 2.018492
v -0.037049 -0.041955 2.009521
v -0.121239 -0.136387 1.776924
v -0.082613 -0.078088 1.784569
v -0.182896 -0.182896 1.434728
v -0.130365 -0.144463 1.443765
v -0.122076 -0.138056 1.799152
v -0.183136 -0.182333 1.952350
v -0.110749 -0.125858 1.895402
v -0.072698 -0.072698 1.787803
v -0.109406 -0.109405 1.787802
v -0.146113 -0.146113 1.787802
v -0.182821 -0.182821 1.787802
v -0.160409 -0.150367 1.780646
v -0.144463 -0.130365 1.443766
v -0.138056 -0.122076 1.799152
v 0.136387 -0.121238 1.776924
v 0.078088 -0.082613 1.784569
v 0.182896 -0.182896 1.434728
v 0.144463 -0.130364 1.443765
v 0.138056 -0.122076 1.799152
v 0.182333 -0.183136 1.952350
v 0.125858 -0.110748 1.895402
v 0.072698 -0.072698 1.787803
v 0.109406 -0.109405 1.787803
v 0.146113 -0.146113 1.787802
v 0.182821 -0.182821 1.787802
v 0.150367 -0.160409 1.780646
v 0.130365 -0.144463 1.443766
v 0.122077 -0.138056 1.799152
vn -0.180831 0.932081 0.313886
vn 0.002165 0.998062 0.062188
vn -0.388428 0.919391 0.062002
vn -0.651607 0.683182 0.329652
vn -0.714510 0.694992 0.080386
vn -0.001504 0.999688 0.024919
vn -0.704763 0.708706 0.032331
vn -0.406232 0.913393 0.026241
vn -0.687910 0.724478 0.043726
vn -0.923064 0.382614 0.039484
vn -0.919006 0.389106 0.063444
vn -0.999220 0.000254 0.039484
vn -0.998035 -0.000959 0.062653
vn -0.937277 0.192992 0.290286
vn 0.889842 0.347384 0.295814
vn 0.998107 0.001662 0.061473
vn 0.933530 -0.198797 0.298330
vn 0.919693 0.387470 0.063494
vn 0.673251 0.654330 0.344362
vn 0.703863 0.706157 0.076936
vn 0.704075 0.709479 0.030303
vn 0.923138 0.383688 0.024465
vn 0.705625 0.708164 0.024435
vn 0.381175 0.924167 0.024919
vn 0.386462 0.920008 0.065059
vn 0.334534 0.892344 0.303001
vn -0.372239 0.897466 -0.236628
vn 0.145754 0.915222 -0.375665
vn -0.005052 0.971631 -0.236447
vn -0.543183 0.748832 -0.379741
vn -0.690620 0.683473 -0.236448
vn -0.435273 0.693494 -0.574112
vn -0.897817 0.371391 -0.236628
vn -0.911658 0.146211 -0.384060
vn -0.971631 -0.005030 -0.236447
vn -0.788131 0.102025 -0.606993
vn 0.085363 -0.028809 -0.995933
vn -0.992775 -0.000799 -0.119989
vn -0.917516 0.379167 -0.119989
vn -0.702573 0.701422 -0.119989
vn -0.380670 0.916893 -0.119989
vn -0.000814 0.992775 -0.119989
vn 0.992775 0.000799 -0.119989
vn 0.916893 0.380670 -0.119989
vn 0.969639 0.001958 -0.244532
vn 0.701423 0.702573 -0.119989
vn 0.897498 0.371203 -0.238128
vn 0.379167 0.917516 -0.119989
vn 0.683474 0.690620 -0.236448
vn 0.371392 0.897817 -0.236628
vn 0.861031 0.125950 -0.492710
vn 0.759791 0.540694 -0.361065
vn 0.356169 0.680565 -0.640293
vn 0.999383 -0.023525 0.026090
vn 0.999541 0.000610 -0.030298
vn 0.923217 0.383082 -0.030297
vn 0.706342 0.707222 -0.030297
vn 0.381933 0.923693 -0.030297
vn -0.000622 0.999541 -0.030297
vn -0.696013 0.717968 0.009409
vn -0.382532 0.923416 -0.031177
vn -0.923405 0.383580 0.013772
vn -0.999905 0.001019 0.013773
vn -0.707181 0.706301 -0.032164
vn -0.923639 0.381911 -0.032164
vn -0.999482 -0.000610 -0.032164
vn -0.733482 -0.132424 0.666685
vn -0.619234 0.457009 0.638508
vn -0.388605 0.167385 0.906073
vn -0.114465 0.634190 0.764657
vn 0.364777 0.021526 0.930846
vn 0.041155 0.141261 0.989117
vn 0.378255 0.536077 0.754682
vn 0.750424 0.151378 0.643389
vn -0.677945 0.655149 0.333422
vn 0.165250 -0.943909 -0.285881
vn 0.664022 0.665463 -0.340930
vn -0.692920 0.719747 -0.042727
vn -0.660596 0.669562 -0.339557
vn 0.507682 0.483299 0.713219
vn -0.725999 0.685113 0.059550
vn -0.610251 -0.597876 -0.519748
vn -0.288266 0.265924 -0.919884
vn -0.333845 0.330863 -0.882654
vn 0.699480 0.714303 0.022353
vn 0.694062 -0.627769 0.352397
vn 0.718836 -0.693777 -0.044134
vn 0.670910 -0.662475 -0.333176
vn -0.655154 -0.677944 0.333414
vn 0.943899 0.165252 -0.285913
vn -0.665465 0.664021 -0.340931
vn -0.719746 -0.692922 -0.042727
vn -0.669556 -0.660598 -0.339566
vn -0.483298 0.507685 0.713217
vn -0.685113 -0.725998 0.059551
vn 0.597873 -0.610247 -0.519757
vn -0.258865 -0.283385 -0.923408
vn -0.331387 -0.331407 -0.883375
vn -0.714301 0.699481 0.022349
vn 0.627775 0.694059 0.352393
vn 0.693775 0.718838 -0.044134
vn 0.662470 0.670911 -0.333184
vn 0.339182 -0.888434 0.309258
vn 0.000962 -0.998173 0.060420
vn -0.192974 -0.932820 0.304315
vn 0.387470 -0.919693 0.063494
vn 0.676456 -0.652755 0.341055
vn 0.714510 -0.694991 0.080386
vn 0.001504 -0.999688 0.024919
vn 0.704763 -0.708706 0.032331
vn 0.406232 -0.913393 0.026241
vn 0.687910 -0.724477 0.043726
vn 0.931062 -0.362314 0.043044
vn 0.919005 -0.389109 0.063444
vn -0.893274 -0.344105 0.289228
vn -0.919350 -0.388061 0.064846
vn -0.651305 -0.681782 0.333129
vn -0.694991 -0.714510 0.080387
vn -0.699367 -0.714038 0.032167
vn -0.916977 -0.396714 0.042090
vn -0.723299 -0.690044 0.026030
vn -0.381174 -0.924167 0.024919
vn -0.388514 -0.919349 0.062081
vn 0.377647 -0.894123 -0.240679
vn 0.043749 -0.916561 -0.397495
vn 0.002173 -0.972032 -0.234836
vn 0.686344 -0.685243 -0.243668
vn 0.167954 -0.776851 -0.606872
vn 0.740532 -0.501150 -0.447729
vn 0.897817 -0.367166 -0.243132
vn 0.917510 -0.379180 -0.119989
vn 0.702573 -0.701422 -0.119989
vn 0.380670 -0.916893 -0.119989
vn 0.000814 -0.992775 -0.119988
vn -0.916899 -0.380657 -0.119989
vn -0.701423 -0.702573 -0.119989
vn -0.897475 -0.372216 -0.236630
vn -0.379167 -0.917516 -0.119989
vn -0.683474 -0.690620 -0.236448
vn -0.370308 -0.897738 -0.238618
vn -0.734798 -0.562231 -0.379432
vn -0.577374 -0.566532 -0.587946
vn -0.915356 -0.402568 0.007846
vn -0.922970 -0.383601 -0.031269
vn -0.706342 -0.707222 -0.030297
vn -0.381933 -0.923693 -0.030297
vn 0.000623 -0.999541 -0.030297
vn 0.696013 -0.717967 0.009409
vn 0.382532 -0.923416 -0.031177
vn 0.931914 -0.362595 0.007846
vn 0.707181 -0.706301 -0.032164
vn 0.923885 -0.381391 -0.031269
vn 0.502645 -0.388629 0.772214
vn 0.074732 -0.613332 0.786282
vn -0.071265 -0.143043 0.987148
vn -0.427328 -0.465533 0.775029
vn 0.677949 -0.655147 0.333419
vn -0.165260 0.943895 -0.285922
vn -0.664021 -0.665464 -0.340930
vn 0.692921 -0.719747 -0.042727
vn 0.660592 -0.669565 -0.339560
vn -0.507681 -0.483298 0.713220
vn 0.725999 -0.685113 0.059550
vn 0.610241 0.597877 -0.519758
vn 0.284413 -0.264949 -0.921364
vn 0.334275 -0.330778 -0.882523
vn -0.699479 -0.714303 0.022353
vn -0.694063 0.627769 0.352397
vn -0.718837 0.693777 -0.044134
vn -0.670906 0.662478 -0.333179
vn 0.655153 0.677945 0.333414
vn -0.943901 -0.165283 -0.285889
vn 0.665465 -0.664021 -0.340930
vn 0.719746 0.692921 -0.042727
vn 0.669557 0.660598 -0.339564
vn 0.483300 -0.507685 0.713216
vn 0.685113 0.725998 0.059550
vn -0.597874 0.610248 -0.519753
vn 0.260164 0.282970 -0.923170
vn 0.332691 0.332742 -0.882383
vn 0.714304 -0.699479 0.022357
vn -0.627767 -0.694063 0.352398
vn -0.693775 -0.718838 -0.044133
vn -0.662474 -0.670908 -0.333181
f 1//1 2//2 3//3
f 4//4 1//1 3//3
f 4//4 3//3 5//5
f 6//6 3//3 2//2
f 3//3 7//7 5//5
f 6//6 8//8 3//3
f 8//8 7//7 3//3
f 8//8 9//9 7//7
f 9//9 11//11 7//7
f 9//9 10//10 11//11
f 10//10 12//12 13//13
f 10//10 13//13 11//11
f 14//14 11//11 13//13
f 7//7 11//11 5//5
f 14//14 5//5 11//11
f 14//14 4//4 5//5
f 15//15 17//17 16//16
f 15//15 16//16 18//18
f 19//19 15//15 18//18
f 19//19 18//18 20//20
f 54//54 18//18 16//16
f 18//18 21//21 20//20
f 54//54 22//22 18//18
f 22//22 21//21 18//18
f 22//22 23//23 21//21
f 23//23 25//25 21//21
f 23//23 24//24 25//25
f 24//24 6//6 2//2
f 24//24 2//2 25//25
f 1//1 25//25 2//2
f 21//21 25//25 20//20
f 1//1 26//26 25//25
f 26//26 20//20 25//25
f 26//26 19//19 20//20
f 27//27 29//29 28//28
f 27//27 28//28 30//30
f 31//31 27//27 30//30
f 32//32 30//30 28//28
f 32//32 28//28 53//53
f 33//33 31//31 30//30
f 33//33 30//30 34//34
f 35//35 33//33 34//34
f 36//36 34//34 30//30
f 36//36 30//30 32//32
f 37//37 32//32 53//53
f 37//37 36//36 32//32
f 38//38 33//33 35//35
f 38//38 39//39 33//33
f 39//39 31//31 33//33
f 39//39 38//38 66//66
f 39//39 66//66 65//65
f 39//39 40//40 31//31
f 40//40 27//27 31//31
f 40//40 39//39 65//65
f 40//40 65//65 64//64
f 41//41 29//29 27//27
f 40//40 41//41 27//27
f 41//41 42//42 29//29
f 41//41 40//40 64//64
f 41//41 64//64 61//61
f 42//42 41//41 61//61
f 42//42 61//61 59//59
f 43//43 56//56 55//55
f 43//43 44//44 56//56
f 44//44 57//57 56//56
f 44//44 43//43 45//45
f 44//44 46//46 57//57
f 46//46 58//58 57//57
f 44//44 45//45 47//47
f 46//46 48//48 58//58
f 48//48 59//59 58//58
f 48//48 42//42 59//59
f 46//46 44//44 47//47
f 46//46 47//47 49//49
f 48//48 46//46 49//49
f 48//48 49//49 50//50
f 42//42 48//48 50//50
f 42//42 50//50 29//29
f 47//47 45//45 51//51
f 47//47 51//51 52//52
f 49//49 47//47 52//52
f 50//50 49//49 52//52
f 53//53 52//52 51//51
f 50//50 52//52 28//28
f 29//29 50//50 28//28
f 53//53 28//28 52//52
f 51//51 37//37 53//53
f 22//22 54//54 55//55
f 22//22 55//55 56//56
f 23//23 22//22 56//56
f 23//23 56//56 57//57
f 24//24 23//23 57//57
f 24//24 57//57 58//58
f 6//6 24//24 58//58
f 6//6 58//58 59//59
f 8//8 6//6 59//59
f 8//8 60//60 9//9
f 60//60 10//10 9//9
f 8//8 59//59 61//61
f 60//60 8//8 61//61
f 60//60 62//62 10//10
f 62//62 12//12 10//10
f 62//62 63//63 12//12
f 60//60 61//61 64//64
f 62//62 60//60 64//64
f 62//62 64//64 65//65
f 63//63 62//62 65//65
f 63//63 65//65 66//66
f 14//14 67//67 68//68
f 4//4 14//14 68//68
f 69//69 68//68 67//67
f 1//1 4//4 68//68
f 1//1 68//68 70//70
f 69//69 70//70 68//68
f 69//69 72//72 70//70
f 69//69 71//71 72//72
f 72//72 73//73 70//70
f 26//26 70//70 73//73
f 26//26 1//1 70//70
f 19//19 26//26 73//73
f 15//15 19//19 73//73
f 15//15 73//73 74//74
f 17//17 15//15 74//74
f 73//73 71//71 74//74
f 72//72 71//71 73//73
f 75//75 20//20 76//76
f 78//78 75//75 77//77
f 78//78 77//77 21//21
f 78//78 20//20 75//75
f 78//78 21//21 20//20
f 79//79 81//81 80//80
f 81//81 19//19 80//80
f 81//81 79//79 19//19
f 82//82 75//75 76//76
f 82//82 83//83 75//75
f 75//75 83//83 84//84
f 85//85 75//75 84//84
f 85//85 77//77 75//75
f 85//85 79//79 80//80
f 85//85 84//84 79//79
f 79//79 84//84 83//83
f 82//82 79//79 83//83
f 82//82 19//19 79//79
f 87//87 77//77 86//86
f 76//76 87//87 86//86
f 87//87 21//21 77//77
f 87//87 20//20 21//21
f 87//87 76//76 20//20
f 88//88 80//80 19//19
f 82//82 76//76 83//83
f 86//86 83//83 76//76
f 86//86 84//84 83//83
f 85//85 84//84 86//86
f 85//85 86//86 77//77
f 85//85 80//80 88//88
f 85//85 88//88 84//84
f 88//88 83//83 84//84
f 82//82 83//83 88//88
f 82//82 88//88 19//19
f 89//89 5//5 90//90
f 92//92 89//89 91//91
f 92//92 91//91 7//7
f 92//92 5//5 89//89
f 92//92 7//7 5//5
f 93//93 95//95 94//94
f 95//95 4//4 94//94
f 95//95 93//93 4//4
f 96//96 89//89 90//90
f 96//96 97//97 89//89
f 89//89 97//97 98//98
f 99//99 89//89 98//98
f 99//99 91//91 89//89
f 99//99 93//93 94//94
f 99//99 98//98 93//93
f 93//93 98//98 97//97
f 96//96 93//93 97//97
f 96//96 4//4 93//93
f 101//101 91//91 100//100
f 90//90 101//101 100//100
f 101//101 7//7 91//91
f 101//101 5//5 7//7
f 101//101 90//90 5//5
f 102//102 94//94 4//4
f 96//96 90//90 97//97
f 100//100 97//97 90//90
f 100//100 98//98 97//97
f 99//99 98//98 100//100
f 99//99 100//100 91//91
f 99//99 94//94 102//102
f 99//99 102//102 98//98
f 102//102 97//97 98//98
f 96//96 97//97 102//102
f 96//96 102//102 4//4
f 103//103 105//105 104//104
f 103//103 104//104 106//106
f 107//107 103//103 106//106
f 107//107 106//106 108//108
f 109//109 106//106 104//104
f 106//106 110//110 108//108
f 109//109 111//111 106//106
f 111//111 110//110 106//106
f 111//111 112//112 110//110
f 112//112 114//114 110//110
f 112//112 113//113 114//114
f 113//113 54//54 16//16
f 113//113 16//16 114//114
f 17//17 114//114 16//16
f 110//110 114//114 108//108
f 17//17 108//108 114//114
f 17//17 107//107 108//108
f 115//115 14//14 13//13
f 115//115 13//13 116//116
f 117//117 115//115 116//116
f 117//117 116//116 118//118
f 12//12 116//116 13//13
f 116//116 119//119 118//118
f 12//12 120//120 116//116
f 120//120 119//119 116//116
f 120//120 121//121 119//119
f 121//121 123//123 119//119
f 121//121 122//122 123//123
f 122//122 109//109 104//104
f 122//122 104//104 123//123
f 105//105 123//123 104//104
f 119//119 123//123 118//118
f 105//105 118//118 123//123
f 105//105 117//117 118//118
f 124//124 126//126 125//125
f 127//127 124//124 125//125
f 127//127 125//125 129//129
f 130//130 127//127 129//129
f 129//129 125//125 128//128
f 45//45 130//130 129//129
f 45//45 129//129 51//51
f 129//129 128//128 37//37
f 51//51 129//129 37//37
f 43//43 130//130 45//45
f 43//43 131//131 130//130
f 131//131 127//127 130//130
f 131//131 43//43 55//55
f 131//131 55//55 152//152
f 131//131 132//132 127//127
f 132//132 124//124 127//127
f 132//132 131//131 152//152
f 132//132 152//152 151//151
f 133//133 126//126 124//124
f 132//132 133//133 124//124
f 133//133 134//134 126//126
f 133//133 132//132 151//151
f 133//133 151//151 149//149
f 134//134 133//133 149//149
f 134//134 149//149 147//147
f 38//38 144//144 66//66
f 38//38 135//135 144//144
f 135//135 145//145 144//144
f 135//135 38//38 35//35
f 135//135 136//136 145//145
f 136//136 146//146 145//145
f 135//135 35//35 137//137
f 136//136 138//138 146//146
f 138//138 147//147 146//146
f 138//138 134//134 147//147
f 136//136 135//135 137//137
f 136//136 137//137 139//139
f 138//138 136//136 139//139
f 138//138 139//139 140//140
f 134//134 138//138 140//140
f 134//134 140//140 126//126
f 137//137 35//35 34//34
f 137//137 34//34 141//141
f 139//139 137//137 141//141
f 142//142 141//141 34//34
f 142//142 34//34 36//36
f 140//140 139//139 141//141
f 140//140 141//141 125//125
f 126//126 140//140 125//125
f 142//142 125//125 141//141
f 128//128 125//125 142//142
f 37//37 142//142 36//36
f 37//37 128//128 142//142
f 63//63 120//120 12//12
f 63//63 143//143 120//120
f 143//143 121//121 120//120
f 143//143 63//63 66//66
f 143//143 66//66 144//144
f 121//121 143//143 144//144
f 121//121 144//144 145//145
f 122//122 121//121 145//145
f 122//122 145//145 146//146
f 109//109 122//122 146//146
f 109//109 146//146 147//147
f 111//111 109//109 147//147
f 111//111 148//148 112//112
f 148//148 113//113 112//112
f 111//111 147//147 149//149
f 148//148 111//111 149//149
f 148//148 150//150 113//113
f 150//150 54//54 113//113
f 148//148 149//149 151//151
f 150//150 148//148 151//151
f 150//150 151//151 152//152
f 54//54 150//150 152//152
f 54//54 152//152 55//55
f 17//17 74//74 153//153
f 107//107 17//17 153//153
f 71//71 153//153 74//74
f 103//103 107//107 153//153
f 103//103 153//153 154//154
f 105//105 103//103 154//154
f 71//71 154//154 153//153
f 71//71 155//155 154//154
f 105//105 154//154 156//156
f 117//117 105//105 156//156
f 115//115 117//117 156//156
f 155//155 156//156 154//154
f 115//115 156//156 67//67
f 14//14 115//115 67//67
f 156//156 69//69 67//67
f 155//155 69//69 156//156
f 155//155 71//71 69//69
f 157//157 118//118 158//158
f 160//160 157//157 159//159
f 160//160 159//159 119//119
f 160//160 118//118 157//157
f 160//160 119//119 118//118
f 161//161 163//163 162//162
f 163//163 117//117 162//162
f 163//163 161//161 117//117
f 164//164 157//157 158//158
f 164//164 165//165 157//157
f 157//157 165//165 166//166
f 167//167 157//157 166//166
f 167//167 159//159 157//157
f 167//167 161//161 162//162
f 167//167 166//166 161//161
f 161//161 166//166 165//165
f 164//164 161//161 165//165
f 164//164 117//117 161//161
f 169//169 159//159 168//168
f 158//158 169//169 168//168
f 169//169 119//119 159//159
f 169//169 118//118 119//119
f 169//169 158//158 118//118
f 170//170 162//162 117//117
f 164//164 158//158 165//165
f 168//168 165//165 158//158
f 168//168 166//166 165//165
f 167//167 166//166 168//168
f 167//167 168//168 159//159
f 167//167 162//162 170//170
f 167//167 170//170 166//166
f 170//170 165//165 166//166
f 164//164 165//165 170//170
f 164//164 170//170 117//117
f 171//171 108//108 172//172
f 174//174 171//171 173//173
f 174//174 173//173 110//110
f 174//174 108//108 171//171
f 174//174 110//110 108//108
f 175//175 177//177 176//176
f 177//177 107//107 176//176
f 177//177 175//175 107//107
f 178//178 171//171 172//172
f 178//178 179//179 171//171
f 171//171 179//179 180//180
f 181//181 171//171 180//180
f 181//181 173//173 171//171
f 181//181 175//175 176//176
f 181//181 180//180 175//175
f 175//175 180//180 179//179
f 178//178 175//175 179//179
f 178//178 107//107 175//175
f 183//183 173//173 182//182
f 172//172 183//183 182//182
f 183//183 110//110 173//173
f 183//183 108//108 110//110
f 183//183 172//172 108//108
f 184//184 176//176 107//107
f 178//178 172//172 179//179
f 182//182 179//179 172//172
f 182//182 180//180 179//179
f 181//181 180//180 182//182
f 181//181 182//182 173//173
f 181//181 176//176 184//184
f 181//181 184//184 180//180
f 184//184 179//179 180//180
f 178//178 179//179 184//184
f 178//178 184//184 107//107
