# Blender 3.4.0
# www.blender.org
mtllib pillbox.mtl
o pillbox
v -8.229347 0.450099 -2.584874
v -6.815134 0.450099 -3.999088
v -6.815134 -1.549901 -1.170660
v -6.815134 0.450099 -1.170660
v -5.400920 -1.549901 -2.584874
v -5.400920 0.450099 -2.584874
v -8.229347 -1.250735 -2.584874
v -6.815134 -1.250735 -3.999088
v -5.400920 -1.250735 -2.584874
v -6.815134 -1.250735 -1.170660
v -6.815134 -1.549901 -4.458902
v -8.689161 -1.549901 -2.584874
v -6.815134 -1.250735 -4.458902
v -4.941106 -1.549901 -2.584874
v -4.941106 -1.250735 -2.584874
v -6.815134 -1.549901 -0.710846
v -6.815134 -1.250735 -0.710846
v -8.689161 -1.250735 -2.584874
v -6.815134 -15.136162 -3.999088
v -8.229347 -15.136162 -2.584874
v -5.400920 -15.136162 -2.584874
v -6.815134 -15.136162 -1.170660
v -8.689161 -15.136162 -2.584874
v -6.815134 -15.136162 -0.710846
v -6.815134 -15.136162 -4.458902
v -4.941106 -15.136162 -2.584874
v -7.661962 -15.104457 -0.354511
v -2.662735 2.760752 -0.389320
v -0.597874 -15.104457 6.627295
v -0.618366 2.760752 1.631237
v 6.402741 -15.104457 -0.406230
v 1.409541 2.760752 -0.406204
v -1.674615 -15.104457 -6.403763
v 0.390220 -15.104457 -6.416707
v -0.552802 2.760752 -2.381772
v -0.707373 2.760752 -2.381251
v 6.402741 2.116347 -0.406230
v -0.597874 2.116157 6.627295
v -7.661962 2.115945 -0.354511
v -1.674615 2.205202 -6.403763
v 0.390220 2.204317 -6.416707
v 4.952704 2.295687 -0.404408
v -0.603817 2.295047 5.178238
v -6.209852 2.295016 -0.362499
v -1.765244 2.439127 -4.890233
v 0.489368 2.439043 -4.897827
v 3.789887 2.499969 -0.404996
v -0.608592 2.499513 4.014161
v -5.045736 2.499491 -0.371301
v -1.418065 2.592498 -4.066820
v 0.147343 2.592448 -4.072093
v 2.097112 2.732812 -0.405855
v -0.615542 2.732754 2.319553
v -3.351073 2.732751 -0.384115
v -0.912659 2.743908 -2.868134
v -0.350562 2.743903 -2.870027
v -7.661962 -0.309410 -0.354511
v -7.661962 0.441042 -0.354511
v 6.402741 0.441077 -0.406230
v 6.402741 -0.309392 -0.406230
v -0.597874 0.441060 6.627295
v -0.597874 -0.309400 6.627295
v 0.390220 0.448744 -6.416707
v 0.390220 -0.305558 -6.416707
v -1.674615 -0.305520 -6.403763
v -1.674615 0.448821 -6.403763
v 0.872415 -15.104457 -5.934676
v 0.872415 2.197262 -5.934676
v 0.847321 2.427546 -4.537462
v 0.439469 2.585031 -3.777997
v -0.154262 2.743013 -2.672405
v -0.395425 2.760752 -2.223334
v 0.872415 -0.305866 -5.934676
v 0.872415 0.448129 -5.934676
v -2.072475 -15.104457 -6.001790
v -2.072475 2.199271 -6.001790
v -2.060588 2.429551 -4.589365
v -1.659124 2.586318 -3.821252
v -1.074692 2.743167 -2.703071
v -0.837307 2.760752 -2.248888
v -2.072475 -0.305778 -6.001790
v -2.072475 0.448304 -6.001791
v 0.390220 0.448744 -4.703379
v 0.390220 -0.305558 -4.703379
v -1.674615 -0.305520 -4.690435
v -1.674615 0.448821 -4.690436
v 0.872415 -0.305866 -4.987088
v 0.872415 0.448129 -4.987088
v -2.072475 -0.305778 -5.054202
v -2.072475 0.448304 -5.054202
v -0.529832 -0.344149 -5.451616
v -0.529832 0.008261 -5.451616
v -0.313262 -0.344149 -5.916052
v -0.313262 0.008261 -5.916052
v 0.028868 -0.344149 -5.191091
v 0.028868 0.008261 -5.191091
v 0.245438 -0.344149 -5.655526
v 0.245438 0.008261 -5.655526
v 0.811324 -0.073614 -7.598404
v -0.033913 -0.073614 -5.785789
v 0.871776 -0.101242 -7.570216
v 0.026539 -0.101243 -5.757599
v 0.896815 -0.167944 -7.558539
v 0.051579 -0.167944 -5.745923
v 0.871776 -0.234645 -7.570216
v 0.026539 -0.234645 -5.757599
v 0.811324 -0.262274 -7.598404
v -0.033913 -0.262274 -5.785789
v 0.750872 -0.234645 -7.626594
v -0.094364 -0.234645 -5.813978
v 0.725832 -0.167944 -7.638269
v -0.119405 -0.167944 -5.825654
v 0.750872 -0.101242 -7.626594
v -0.094364 -0.101243 -5.813978
v -1.313262 -0.344149 -5.191090
v -1.313262 0.008261 -5.191090
v -1.529832 -0.344149 -5.655526
v -1.529832 0.008261 -5.655526
v -0.754562 -0.344149 -5.451616
v -0.754562 0.008261 -5.451616
v -0.971132 -0.344149 -5.916052
v -0.971132 0.008261 -5.916052
v -2.095718 -0.073614 -7.598404
v -1.250482 -0.073614 -5.785789
v -2.035266 -0.101242 -7.626594
v -1.190030 -0.101243 -5.813978
v -2.010226 -0.167944 -7.638270
v -1.164990 -0.167944 -5.825655
v -2.035266 -0.234645 -7.626594
v -1.190030 -0.234645 -5.813978
v -2.095718 -0.262274 -7.598404
v -1.250482 -0.262274 -5.785789
v -2.156170 -0.234645 -7.570215
v -1.310934 -0.234645 -5.757600
v -2.181210 -0.167944 -7.558539
v -1.335974 -0.167944 -5.745923
v -2.156170 -0.101242 -7.570215
v -1.310934 -0.101243 -5.757600
v -5.293386 2.296486 -0.321707
v -5.293386 5.794123 -0.185961
v -5.180882 2.296486 -0.275106
v -5.276869 5.794123 -0.179119
v -5.134282 2.296486 -0.162602
v -5.270028 5.794123 -0.162602
v -5.180882 2.296486 -0.050098
v -5.276869 5.794123 -0.146085
v -5.293386 2.296486 -0.003497
v -5.293386 5.794123 -0.139243
v -5.405890 2.296486 -0.050098
v -5.309904 5.794123 -0.146085
v -5.452491 2.296486 -0.162602
v -5.316745 5.794123 -0.162602
v -5.405890 2.296486 -0.275106
v -5.309904 5.794123 -0.179119
vn -0.7071 -0.0000 -0.7071
vn 0.7071 -0.0000 -0.7071
vn 0.7071 -0.0000 0.7071
vn -0.7071 -0.0000 0.7071
vn -0.0000 1.0000 -0.0000
vn -0.0000 -0.0000 1.0000
vn 1.0000 -0.0000 -0.0000
vn -0.0000 -1.0000 -0.0000
vn 0.7070 -0.0000 -0.7072
vn 0.7088 -0.0000 0.7054
vn -0.7030 -0.0000 0.7112
vn -0.7107 -0.0000 -0.7035
vn -0.0063 -0.0000 -1.0000
vn 0.1220 0.9851 0.1214
vn -0.1207 0.9851 0.1221
vn -0.0005 0.9883 -0.1528
vn -0.1907 0.9691 -0.1564
vn 0.1886 0.9695 -0.1564
vn 0.1704 0.9706 0.1697
vn -0.1692 0.9706 0.1712
vn -0.0006 0.9831 -0.1829
vn -0.1495 0.9812 -0.1221
vn 0.1491 0.9811 -0.1234
vn 0.1350 0.9817 0.1344
vn -0.1341 0.9816 0.1357
vn -0.0004 0.9921 -0.1251
vn -0.0954 0.9914 -0.0892
vn 0.0955 0.9913 -0.0904
vn 0.0405 0.9984 0.0404
vn -0.0403 0.9984 0.0408
vn -0.0001 0.9994 -0.0345
vn -0.0257 0.9994 -0.0252
vn 0.0258 0.9993 -0.0256
vn 0.0013 -1.0000 -0.0000
vn -0.0013 -1.0000 -0.0000
vn 0.0277 0.9994 -0.0230
vn 0.1065 0.9910 -0.0808
vn 0.1517 0.9812 -0.1194
vn 0.1757 0.9711 -0.1615
vn -0.0409 0.9985 -0.0357
vn -0.1364 0.9846 -0.1091
vn -0.1724 0.9753 -0.1381
vn -0.1223 0.9868 -0.1065
vn -0.0006 1.0000 -0.0000
vn 0.0006 1.0000 -0.0000
vn 0.6748 -0.0000 -0.7380
vn -0.5071 -0.0000 -0.8619
vn -1.0000 -0.0000 -0.0000
vn -0.9063 -0.0000 -0.4226
vn 0.4226 -0.0000 -0.9063
vn 0.9063 -0.0000 0.4226
vn -0.4226 -0.0000 0.9063
vn 0.3468 0.9239 0.1617
vn 0.8373 0.3827 0.3904
vn 0.8373 -0.3827 0.3904
vn 0.3468 -0.9239 0.1617
vn -0.3468 -0.9239 -0.1617
vn -0.8373 -0.3827 -0.3904
vn -0.8373 0.3827 -0.3904
vn -0.3468 0.9239 -0.1617
vn -0.9063 -0.0000 0.4226
vn -0.4226 -0.0000 -0.9063
vn 0.9063 -0.0000 -0.4226
vn 0.4226 -0.0000 0.9063
vn 0.3468 0.9239 -0.1617
vn 0.8373 0.3827 -0.3904
vn 0.8373 -0.3827 -0.3904
vn 0.3468 -0.9239 -0.1617
vn -0.3468 -0.9239 0.1617
vn -0.8373 -0.3827 0.3904
vn -0.8373 0.3827 0.3905
vn -0.3468 0.9239 0.1617
vn 0.3824 0.0358 -0.9233
vn 0.9233 0.0358 -0.3824
vn 0.9233 0.0358 0.3824
vn 0.3824 0.0358 0.9233
vn -0.3824 0.0358 0.9233
vn -0.9233 0.0358 0.3824
vn -0.9233 0.0358 -0.3824
vn -0.3824 0.0358 -0.9233
vn 0.1216 0.9852 0.1211
vn -0.1208 0.9851 0.1222
vn -0.0005 0.9883 -0.1527
vn -0.1768 0.9710 -0.1607
vn 0.1219 0.9867 -0.1075
vn 0.1705 0.9706 0.1698
vn -0.1525 0.9812 -0.1185
vn 0.1714 0.9753 -0.1391
vn 0.1351 0.9817 0.1346
vn -0.0004 0.9921 -0.1252
vn -0.1070 0.9910 -0.0801
vn 0.1355 0.9847 -0.1098
vn 0.0406 0.9984 0.0404
vn -0.0278 0.9994 -0.0228
vn 0.0406 0.9985 -0.0358
vn -0.8373 0.3827 0.3904
vt 0.625000 0.000000
vt 0.625000 1.000000
vt 0.875000 0.750000
vt 0.625000 0.250000
vt 0.875000 0.500000
vt 0.375000 0.750000
vt 0.625000 0.750000
vt 0.375000 0.500000
vt 0.625000 0.500000
vt 0.412396 0.000000
vt 0.412396 1.000000
vt 0.412396 0.250000
vt 0.412396 0.500000
vt 0.412396 0.750000
vt 0.375000 0.250000
vt 0.375000 0.000000
vt 0.375000 1.000000
vt 0.412396 0.250000
vt 0.375000 0.500000
vt 0.412396 0.500000
vt 0.375000 0.750000
vt 0.412396 0.750000
vt 0.412396 0.000000
vt 0.412396 1.000000
vt 0.125000 0.500000
vt 0.125000 0.750000
vt 0.375000 0.500000
vt 0.375000 0.750000
vt 0.375000 1.000000
vt 0.125000 0.750000
vt 0.375000 0.000000
vt 0.375000 0.750000
vt 0.125000 0.500000
vt 0.375000 0.250000
vt 0.375000 0.500000
vt 0.375000 1.000000
vt 0.375000 0.000000
vt 0.125000 0.750000
vt 0.788002 0.657982
vt 0.375000 0.750000
vt 0.715327 0.659690
vt 0.375000 0.500000
vt 0.717101 0.586998
vt 0.125000 0.535102
vt 0.375000 0.214898
vt 0.159903 0.500000
vt 0.375000 0.284903
vt 0.789460 0.582999
vt 0.791981 0.585520
vt 0.625000 0.500000
vt 0.625000 0.750000
vt 0.625000 1.000000
vt 0.875000 0.750000
vt 0.625000 0.000000
vt 0.625000 0.214898
vt 0.875000 0.535102
vt 0.840097 0.500000
vt 0.625000 0.284903
vt 0.650916 0.525801
vt 0.650843 0.724151
vt 0.849205 0.724122
vt 0.849633 0.546296
vt 0.828789 0.525336
vt 0.673251 0.546179
vt 0.671845 0.703149
vt 0.828828 0.701811
vt 0.832518 0.561099
vt 0.813934 0.542465
vt 0.704699 0.575307
vt 0.702684 0.672323
vt 0.799697 0.670383
vt 0.804299 0.579142
vt 0.795846 0.570685
vt 0.458333 1.000000
vt 0.458333 0.000000
vt 0.541667 1.000000
vt 0.541667 0.000000
vt 0.541667 0.500000
vt 0.458333 0.500000
vt 0.541667 0.750000
vt 0.458333 0.750000
vt 0.541667 0.284903
vt 0.458333 0.284903
vt 0.458333 0.214898
vt 0.541667 0.214898
vt 0.177153 0.500000
vt 0.375000 0.302153
vt 0.822847 0.500000
vt 0.625000 0.302153
vt 0.814524 0.525374
vt 0.802651 0.542763
vt 0.788536 0.571055
vt 0.783656 0.583319
vt 0.458333 0.302153
vt 0.541667 0.302153
vt 0.125000 0.549382
vt 0.375000 0.200618
vt 0.875000 0.549382
vt 0.625000 0.200618
vt 0.849605 0.558112
vt 0.832273 0.570449
vt 0.803993 0.585205
vt 0.791716 0.590335
vt 0.458333 0.200618
vt 0.541667 0.200618
vt 0.541667 0.284903
vt 0.458333 0.284903
vt 0.458333 0.214898
vt 0.541667 0.214898
vt 0.458333 0.302153
vt 0.541667 0.302153
vt 0.458333 0.200618
vt 0.541667 0.200618
vt 0.375000 0.000000
vt 0.125000 0.750000
vt 0.375000 1.000000
vt 0.625000 0.000000
vt 0.625000 1.000000
vt 0.875000 0.750000
vt 0.375000 0.250000
vt 0.125000 0.500000
vt 0.625000 0.250000
vt 0.875000 0.500000
vt 0.375000 0.750000
vt 0.625000 0.750000
vt 0.375000 0.500000
vt 0.625000 0.500000
vt 1.000000 0.500000
vt 0.000000 0.500000
vt 0.750000 0.490000
vt 1.000000 1.000000
vt 0.250000 0.490000
vt 0.000000 1.000000
vt 0.875000 0.500000
vt 0.919706 0.419706
vt 0.875000 1.000000
vt 0.419706 0.419706
vt 0.750000 0.500000
vt 0.990000 0.250000
vt 0.750000 1.000000
vt 0.490000 0.250000
vt 0.625000 0.500000
vt 0.919706 0.080294
vt 0.625000 1.000000
vt 0.419706 0.080294
vt 0.500000 0.500000
vt 0.750000 0.010000
vt 0.500000 1.000000
vt 0.250000 0.010000
vt 0.375000 0.500000
vt 0.580294 0.080294
vt 0.375000 1.000000
vt 0.080294 0.080294
vt 0.250000 0.500000
vt 0.510000 0.250000
vt 0.010000 0.250000
vt 0.250000 1.000000
vt 0.125000 0.500000
vt 0.580294 0.419706
vt 0.080294 0.419706
vt 0.125000 1.000000
vt 0.375000 0.000000
vt 0.375000 1.000000
vt 0.125000 0.750000
vt 0.625000 0.000000
vt 0.625000 1.000000
vt 0.875000 0.750000
vt 0.125000 0.500000
vt 0.375000 0.250000
vt 0.625000 0.250000
vt 0.875000 0.500000
vt 0.375000 0.750000
vt 0.625000 0.750000
vt 0.375000 0.500000
vt 0.625000 0.500000
vt 0.000000 0.500000
vt 1.000000 0.500000
vt 0.750000 0.490000
vt 1.000000 1.000000
vt 0.250000 0.490000
vt 0.000000 1.000000
vt 0.875000 0.500000
vt 0.919706 0.419706
vt 0.875000 1.000000
vt 0.419706 0.419706
vt 0.750000 0.500000
vt 0.990000 0.250000
vt 0.750000 1.000000
vt 0.490000 0.250000
vt 0.625000 0.500000
vt 0.919706 0.080294
vt 0.625000 1.000000
vt 0.419706 0.080294
vt 0.500000 0.500000
vt 0.750000 0.010000
vt 0.500000 1.000000
vt 0.250000 0.010000
vt 0.375000 0.500000
vt 0.580294 0.080294
vt 0.375000 1.000000
vt 0.080294 0.080294
vt 0.250000 0.500000
vt 0.510000 0.250000
vt 0.010000 0.250000
vt 0.250000 1.000000
vt 0.125000 0.500000
vt 0.580294 0.419706
vt 0.080294 0.419706
vt 0.125000 1.000000
vt 1.000000 0.500000
vt 0.000000 0.500000
vt 0.750000 0.490000
vt 1.000000 1.000000
vt 0.250000 0.490000
vt 0.000000 1.000000
vt 0.875000 0.500000
vt 0.919706 0.419706
vt 0.875000 1.000000
vt 0.419706 0.419706
vt 0.750000 0.500000
vt 0.990000 0.250000
vt 0.750000 1.000000
vt 0.490000 0.250000
vt 0.625000 0.500000
vt 0.919706 0.080294
vt 0.625000 1.000000
vt 0.419706 0.080294
vt 0.500000 0.500000
vt 0.750000 0.010000
vt 0.500000 1.000000
vt 0.250000 0.010000
vt 0.375000 0.500000
vt 0.580294 0.080294
vt 0.375000 1.000000
vt 0.080294 0.080294
vt 0.250000 0.500000
vt 0.510000 0.250000
vt 0.010000 0.250000
vt 0.250000 1.000000
vt 0.125000 0.500000
vt 0.580294 0.419706
vt 0.080294 0.419706
vt 0.125000 1.000000
s 0
f 1/1/1 8/12/1 7/10/1
f 2/4/2 9/13/2 8/12/2
f 6/9/3 10/14/3 9/13/3
f 4/7/4 7/11/4 10/14/4
f 14/19/2 25/34/2 11/15/2
f 2/5/5 4/7/5 6/9/5
f 5/8/6 26/35/6 14/19/6
f 10/14/5 15/20/5 9/13/5
f 8/12/5 18/23/5 7/10/5
f 12/17/4 24/32/4 16/21/4
f 17/22/4 12/17/4 16/21/4
f 15/20/3 16/21/3 14/19/3
f 13/18/2 14/19/2 11/15/2
f 18/23/1 11/15/1 12/16/1
f 16/21/7 22/28/7 3/6/7
f 9/13/5 13/18/5 8/12/5
f 5/8/8 16/21/8 3/6/8
f 7/11/5 17/22/5 10/14/5
f 21/27/8 20/26/8 19/25/8
f 19/25/8 26/35/8 21/27/8
f 22/28/8 23/30/8 20/26/8
f 20/26/8 25/33/8 19/25/8
f 11/15/1 23/31/1 12/16/1
f 3/6/3 21/27/3 5/8/3
f 74/95/9 37/50/9 59/78/9
f 28/39/5 30/41/5 72/93/5
f 59/78/10 38/51/10 61/80/10
f 61/80/11 39/52/11 58/76/11
f 76/99/12 66/85/12 82/105/12
f 64/83/13 33/45/13 65/84/13
f 67/86/8 29/40/8 75/96/8
f 42/59/14 38/51/14 37/50/14
f 44/61/15 38/51/15 43/60/15
f 46/63/16 40/56/16 45/62/16
f 45/62/17 76/98/17 77/100/17
f 42/59/18 68/88/18 69/90/18
f 48/65/19 42/59/19 47/64/19
f 49/66/20 43/60/20 48/65/20
f 51/68/21 45/62/21 50/67/21
f 50/67/22 77/100/22 78/101/22
f 47/64/23 69/90/23 70/91/23
f 53/70/24 47/64/24 52/69/24
f 54/71/25 48/65/25 53/70/25
f 56/73/26 50/67/26 55/72/26
f 55/72/27 78/101/27 79/102/27
f 52/69/28 70/91/28 71/92/28
f 30/41/29 52/69/29 32/43/29
f 28/39/30 53/70/30 30/41/30
f 35/48/31 55/72/31 36/49/31
f 36/49/32 79/102/32 80/103/32
f 32/43/33 71/92/33 72/93/33
f 41/58/13 66/85/13 40/55/13
f 65/84/5 84/107/5 64/83/5
f 81/104/12 33/45/12 75/97/12
f 82/105/34 86/109/34 90/113/34
f 29/40/11 57/74/11 27/36/11
f 62/81/11 58/76/11 57/74/11
f 60/79/10 29/40/10 31/42/10
f 60/79/10 61/80/10 62/81/10
f 67/87/9 60/79/9 31/42/9
f 73/94/9 59/78/9 60/79/9
f 74/95/35 83/106/35 63/82/35
f 34/47/9 73/94/9 67/87/9
f 35/48/36 71/92/36 56/73/36
f 56/73/37 70/91/37 51/68/37
f 51/68/38 69/90/38 46/63/38
f 46/63/39 68/88/39 41/57/39
f 63/82/9 68/89/9 74/95/9
f 58/77/12 81/104/12 57/75/12
f 57/75/12 75/97/12 27/37/12
f 28/39/40 79/102/40 54/71/40
f 54/71/41 78/101/41 49/66/41
f 49/66/42 77/100/42 44/61/42
f 44/61/43 76/98/43 39/53/43
f 39/54/12 82/105/12 58/77/12
f 81/104/44 85/108/44 65/84/44
f 66/85/8 83/106/8 86/109/8
f 73/94/45 84/107/45 87/110/45
f 90/113/7 81/104/7 82/105/7
f 90/113/46 85/108/46 89/112/46
f 83/106/13 85/108/13 86/109/13
f 88/111/47 84/107/47 83/106/47
f 74/95/48 87/110/48 88/111/48
f 92/117/49 93/120/49 91/114/49
f 94/122/50 97/126/50 93/120/50
f 98/127/51 95/124/51 97/126/51
f 96/125/52 91/116/52 95/124/52
f 93/121/8 95/124/8 91/115/8
f 94/123/5 96/125/5 98/127/5
f 100/131/53 101/134/53 99/128/53
f 102/136/54 103/138/54 101/134/54
f 104/140/55 105/142/55 103/138/55
f 106/144/56 107/146/56 105/142/56
f 107/146/57 110/152/57 109/150/57
f 110/152/58 111/154/58 109/150/58
f 106/145/52 104/141/52 112/156/52
f 112/157/59 113/158/59 111/154/59
f 114/161/60 99/129/60 113/158/60
f 111/155/50 113/159/50 105/143/50
f 116/165/61 117/169/61 115/162/61
f 118/170/62 121/174/62 117/169/62
f 122/175/63 119/172/63 121/174/63
f 120/173/64 115/163/64 119/172/64
f 121/174/8 115/164/8 117/168/8
f 118/171/5 120/173/5 122/175/5
f 123/177/65 126/184/65 125/182/65
f 126/184/66 127/186/66 125/182/66
f 128/188/67 129/190/67 127/186/67
f 130/192/68 131/194/68 129/190/68
f 132/196/69 133/198/69 131/194/69
f 133/198/70 136/205/70 135/202/70
f 136/204/64 132/197/64 128/189/64
f 136/205/71 137/206/71 135/202/71
f 137/206/72 124/181/72 123/176/72
f 129/191/62 133/199/62 137/207/62
f 140/213/73 141/216/73 139/210/73
f 142/218/74 143/220/74 141/216/74
f 144/222/75 145/224/75 143/220/75
f 145/224/76 148/230/76 147/228/76
f 148/230/77 149/232/77 147/228/77
f 150/234/78 151/236/78 149/232/78
f 152/238/5 148/231/5 144/223/5
f 152/239/79 153/240/79 151/236/79
f 154/243/80 139/211/80 153/240/80
f 145/225/8 149/233/8 153/241/8
f 1/1/1 2/4/1 8/12/1
f 2/4/2 6/9/2 9/13/2
f 6/9/3 4/7/3 10/14/3
f 4/7/4 1/2/4 7/11/4
f 14/19/2 26/35/2 25/34/2
f 2/5/5 1/3/5 4/7/5
f 5/8/6 21/27/6 26/35/6
f 10/14/5 17/22/5 15/20/5
f 8/12/5 13/18/5 18/23/5
f 12/17/4 23/29/4 24/32/4
f 17/22/4 18/24/4 12/17/4
f 15/20/3 17/22/3 16/21/3
f 13/18/2 15/20/2 14/19/2
f 18/23/1 13/18/1 11/15/1
f 16/21/7 24/32/7 22/28/7
f 9/13/5 15/20/5 13/18/5
f 5/8/8 14/19/8 16/21/8
f 7/11/5 18/24/5 17/22/5
f 21/27/8 22/28/8 20/26/8
f 19/25/8 25/33/8 26/35/8
f 22/28/8 24/32/8 23/30/8
f 20/26/8 23/30/8 25/33/8
f 11/15/1 25/34/1 23/31/1
f 3/6/3 22/28/3 21/27/3
f 74/95/9 68/89/9 37/50/9
f 30/41/5 32/43/5 72/93/5
f 72/93/5 35/48/5 80/103/5
f 35/48/5 36/49/5 80/103/5
f 80/103/5 28/39/5 72/93/5
f 59/78/10 37/50/10 38/51/10
f 61/80/11 38/51/11 39/52/11
f 76/99/12 40/55/12 66/85/12
f 64/83/13 34/47/13 33/45/13
f 75/96/8 33/44/8 34/46/8
f 67/86/8 31/42/8 29/40/8
f 75/96/8 34/46/8 67/86/8
f 29/40/8 27/38/8 75/96/8
f 42/59/81 43/60/81 38/51/81
f 44/61/82 39/53/82 38/51/82
f 46/63/83 41/57/83 40/56/83
f 45/62/84 40/56/84 76/98/84
f 42/59/85 37/50/85 68/88/85
f 48/65/86 43/60/86 42/59/86
f 49/66/20 44/61/20 43/60/20
f 51/68/21 46/63/21 45/62/21
f 50/67/87 45/62/87 77/100/87
f 47/64/88 42/59/88 69/90/88
f 53/70/89 48/65/89 47/64/89
f 54/71/25 49/66/25 48/65/25
f 56/73/90 51/68/90 50/67/90
f 55/72/91 50/67/91 78/101/91
f 52/69/92 47/64/92 70/91/92
f 30/41/93 53/70/93 52/69/93
f 28/39/30 54/71/30 53/70/30
f 35/48/31 56/73/31 55/72/31
f 36/49/94 55/72/94 79/102/94
f 32/43/95 52/69/95 71/92/95
f 41/58/13 63/82/13 66/85/13
f 65/84/5 85/108/5 84/107/5
f 81/104/12 65/84/12 33/45/12
f 82/105/34 66/85/34 86/109/34
f 29/40/11 62/81/11 57/74/11
f 62/81/11 61/80/11 58/76/11
f 60/79/10 62/81/10 29/40/10
f 60/79/10 59/78/10 61/80/10
f 67/87/9 73/94/9 60/79/9
f 73/94/9 74/95/9 59/78/9
f 74/95/35 88/111/35 83/106/35
f 34/47/9 64/83/9 73/94/9
f 35/48/33 72/93/33 71/92/33
f 56/73/28 71/92/28 70/91/28
f 51/68/23 70/91/23 69/90/23
f 46/63/18 69/90/18 68/88/18
f 63/82/9 41/58/9 68/89/9
f 58/77/12 82/105/12 81/104/12
f 57/75/12 81/104/12 75/97/12
f 28/39/32 80/103/32 79/102/32
f 54/71/27 79/102/27 78/101/27
f 49/66/22 78/101/22 77/100/22
f 44/61/17 77/100/17 76/98/17
f 39/54/12 76/99/12 82/105/12
f 81/104/44 89/112/44 85/108/44
f 66/85/8 63/82/8 83/106/8
f 73/94/45 64/83/45 84/107/45
f 90/113/7 89/112/7 81/104/7
f 90/113/46 86/109/46 85/108/46
f 83/106/13 84/107/13 85/108/13
f 88/111/47 87/110/47 84/107/47
f 74/95/48 73/94/48 87/110/48
f 92/117/49 94/122/49 93/120/49
f 94/122/50 98/127/50 97/126/50
f 98/127/51 96/125/51 95/124/51
f 96/125/52 92/118/52 91/116/52
f 93/121/8 97/126/8 95/124/8
f 94/123/5 92/119/5 96/125/5
f 100/131/53 102/136/53 101/134/53
f 102/136/54 104/140/54 103/138/54
f 104/140/55 106/144/55 105/142/55
f 106/144/56 108/148/56 107/146/56
f 107/146/57 108/148/57 110/152/57
f 110/152/58 112/157/58 111/154/58
f 104/141/52 102/137/52 112/156/52
f 102/137/52 100/132/52 112/156/52
f 100/132/52 114/160/52 112/156/52
f 112/156/52 110/153/52 108/149/52
f 108/149/52 106/145/52 112/156/52
f 112/157/59 114/161/59 113/158/59
f 114/161/60 100/133/60 99/129/60
f 113/159/50 99/130/50 101/135/50
f 101/135/50 103/139/50 113/159/50
f 103/139/50 105/143/50 113/159/50
f 105/143/50 107/147/50 109/151/50
f 109/151/50 111/155/50 105/143/50
f 116/165/61 118/170/61 117/169/61
f 118/170/62 122/175/62 121/174/62
f 122/175/63 120/173/63 119/172/63
f 120/173/64 116/166/64 115/163/64
f 121/174/8 119/172/8 115/164/8
f 118/171/5 116/167/5 120/173/5
f 123/177/65 124/179/65 126/184/65
f 126/184/66 128/188/66 127/186/66
f 128/188/67 130/192/67 129/190/67
f 130/192/68 132/196/68 131/194/68
f 132/196/69 134/200/69 133/198/69
f 133/198/70 134/200/70 136/205/70
f 128/189/64 126/185/64 124/180/64
f 124/180/64 138/208/64 136/204/64
f 136/204/64 134/201/64 132/197/64
f 132/197/64 130/193/64 128/189/64
f 128/189/64 124/180/64 136/204/64
f 136/205/96 138/209/96 137/206/96
f 137/206/72 138/209/72 124/181/72
f 137/207/62 123/178/62 125/183/62
f 125/183/62 127/187/62 129/191/62
f 129/191/62 131/195/62 133/199/62
f 133/199/62 135/203/62 137/207/62
f 137/207/62 125/183/62 129/191/62
f 140/213/73 142/218/73 141/216/73
f 142/218/74 144/222/74 143/220/74
f 144/222/75 146/226/75 145/224/75
f 145/224/76 146/226/76 148/230/76
f 148/230/77 150/234/77 149/232/77
f 150/234/78 152/239/78 151/236/78
f 144/223/5 142/219/5 140/214/5
f 140/214/5 154/242/5 152/238/5
f 152/238/5 150/235/5 148/231/5
f 148/231/5 146/227/5 144/223/5
f 144/223/5 140/214/5 152/238/5
f 152/239/79 154/243/79 153/240/79
f 154/243/80 140/215/80 139/211/80
f 153/241/8 139/212/8 141/217/8
f 141/217/8 143/221/8 145/225/8
f 145/225/8 147/229/8 149/233/8
f 149/233/8 151/237/8 153/241/8
f 153/241/8 141/217/8 145/225/8
