# Exported from Blender
v -0.007529 0.006806 -0.804532
v -0.006950 -0.008191 -0.804803
v 0.009525 -0.004620 -0.804554
v 0.004560 0.009401 -0.804638
v -0.016450 0.016569 -0.752167
v -0.034683 0.000153 -0.599077
v -0.021515 0.001125 -0.796468
v -0.030041 0.017518 -0.597615
v -0.017271 0.030174 -0.597755
v 0.001126 0.021515 -0.796468
v 0.000124 0.034786 -0.597458
v 0.016569 0.016451 -0.752166
v 0.017497 0.030045 -0.597755
v 0.030171 0.017299 -0.597594
v 0.021516 -0.001126 -0.796468
v 0.034684 -0.000153 -0.599077
v -0.016992 0.016074 -0.796189
v 0.016074 0.016993 -0.796189
v 0.035001 0.000000 1.122047
v -0.035000 0.000000 1.122047
v 0.030311 0.017500 1.122047
v 0.017500 0.030311 1.122047
v 0.000000 0.035000 1.122047
v -0.017499 0.030311 1.122047
v -0.030310 0.017500 1.122047
v 0.028139 0.006809 1.132566
v 0.008174 0.027773 1.132566
v -0.019965 0.020964 1.132566
v -0.028138 -0.006808 1.132566
v 0.000000 0.000000 0.906155
v 0.016451 -0.016569 -0.752167
v 0.030042 -0.017518 -0.597615
v 0.017272 -0.030175 -0.597756
v 0.000000 -0.022792 -0.749341
v -0.000123 -0.034787 -0.597458
v -0.016568 -0.016451 -0.752166
v -0.017496 -0.030045 -0.597756
v -0.030170 -0.017300 -0.597594
v 0.016993 -0.016074 -0.796189
v 0.000000 -0.022792 -0.796016
v -0.016073 -0.016993 -0.796189
v -0.030310 -0.017500 1.122047
v -0.017499 -0.030311 1.122047
v 0.000000 -0.035000 1.122047
v 0.017500 -0.030311 1.122047
v 0.030311 -0.017500 1.122047
v -0.014090 -0.024405 1.132382
v 0.006809 -0.028138 1.132566
v 0.024406 -0.014090 1.132382
v 0.039683 -0.041503 0.999649
v 0.059563 -0.059562 1.023607
v 0.024748 -0.024747 1.097852
v -0.041503 -0.039681 0.999649
v -0.059563 -0.059561 1.023607
v -0.024748 -0.024746 1.097852
v 0.040079 0.042786 1.023607
v 0.024749 0.024749 1.097852
v 0.059564 0.059564 1.023607
v 0.041504 0.039683 0.999650
v -0.039682 0.041505 0.999649
v -0.059562 0.059564 1.023607
v -0.024747 0.024750 1.097852
v -0.047331 -0.042743 -0.382375
v -0.074697 -0.074697 -0.339944
v -0.068819 -0.068819 -0.380364
v -0.023276 -0.023277 -0.417261
v -0.023276 -0.023277 -0.381603
v -0.042744 -0.047333 -0.382374
v 0.042745 -0.047333 -0.382374
v 0.074698 -0.074697 -0.339944
v 0.068820 -0.068819 -0.380364
v 0.023277 -0.023277 -0.417261
v 0.023277 -0.023277 -0.381603
v 0.047332 -0.042743 -0.382375
v 0.047332 0.042743 -0.382375
v 0.074698 0.074697 -0.339944
v 0.068820 0.068819 -0.380364
v 0.023277 0.023277 -0.417261
v 0.023277 0.023277 -0.381603
v 0.042745 0.047333 -0.382374
v -0.042745 0.047333 -0.382374
v -0.074697 0.074697 -0.339944
v -0.068819 0.068819 -0.380364
v -0.023276 0.023277 -0.417261
v -0.023276 0.023277 -0.381603
v -0.047331 0.042743 -0.382375
v 0.042786 -0.040077 1.023607
v -0.042785 0.040080 1.023607
v -0.040078 -0.042784 1.023607
vn -0.254384 0.245050 -0.935542
vn -0.208812 -0.262737 -0.942001
vn 0.304430 -0.164525 -0.938218
vn 0.151956 0.308599 -0.938976
vn -0.705363 0.705867 -0.064929
vn -0.999142 0.007682 -0.040709
vn -0.890315 0.008285 -0.455270
vn -0.865214 0.499949 -0.038143
vn -0.496565 0.867315 -0.034460
vn -0.006528 0.892672 -0.450661
vn 0.006739 0.999245 -0.038273
vn 0.705813 0.705419 -0.064891
vn 0.499944 0.865146 -0.039728
vn 0.867806 0.495790 -0.033238
vn 0.892607 0.006830 -0.450785
vn 0.999142 -0.007682 -0.040709
vn -0.637499 0.639027 -0.430396
vn 0.643942 0.634260 -0.427846
vn 0.957530 -0.029741 0.286796
vn -0.957530 0.029748 0.286796
vn 0.812074 0.502841 0.296121
vn 0.504524 0.814374 0.286795
vn -0.029432 0.954695 0.296126
vn -0.453005 0.844117 0.286797
vn -0.841508 0.451859 0.296121
vn 0.065870 -0.030743 0.997355
vn 0.024757 0.079416 0.996534
vn -0.056408 0.061147 0.996534
vn -0.057278 -0.031242 0.997869
vn 0.000617 -0.002101 0.999998
vn 0.673086 -0.737977 -0.048423
vn 0.865214 -0.499950 -0.038142
vn 0.495086 -0.868050 -0.037123
vn -0.003230 -0.998964 -0.045382
vn -0.005182 -0.999140 -0.041150
vn -0.674755 -0.736017 -0.054639
vn -0.499944 -0.865146 -0.039728
vn -0.867806 -0.495790 -0.033238
vn 0.646793 -0.621163 -0.442509
vn 0.028914 -0.890322 -0.454412
vn -0.654681 -0.627985 -0.420746
vn -0.822885 -0.495676 0.277787
vn -0.471346 -0.835086 0.283661
vn -0.029732 -0.957529 0.286798
vn 0.495664 -0.822892 0.277788
vn 0.835092 -0.471336 0.283663
vn 0.049457 -0.005222 0.998763
vn -0.018547 -0.040598 0.999003
vn 0.005221 0.049453 0.998763
vn 0.206236 -0.114154 0.971821
vn -0.696583 0.711201 0.094686
vn 0.261771 -0.252864 -0.931416
vn -0.114170 -0.206242 0.971818
vn 0.711201 0.696582 0.094687
vn -0.252839 -0.261759 -0.931426
vn 0.796109 -0.601380 0.067472
vn 0.252919 0.261737 -0.931411
vn -0.711198 -0.696584 0.094696
vn 0.114157 0.206236 0.971820
vn -0.206225 0.114144 0.971824
vn 0.696583 -0.711201 0.094685
vn -0.261732 0.252944 -0.931405
vn -0.706744 0.707431 -0.007287
vn -0.442077 -0.442070 0.780475
vn -0.622100 -0.622099 -0.475378
vn 0.391190 0.391186 -0.833033
vn 0.646876 0.646868 0.403874
vn 0.707426 -0.706750 -0.007289
vn -0.707428 -0.706748 -0.007288
vn 0.442077 -0.442075 0.780473
vn 0.622100 -0.622099 -0.475377
vn -0.391200 0.391197 -0.833023
vn -0.646877 0.646870 0.403868
vn 0.706744 0.707431 -0.007286
vn 0.706744 -0.707432 -0.007286
vn 0.442074 0.442071 0.780477
vn 0.622099 0.622098 -0.475382
vn -0.391199 -0.391194 -0.833025
vn -0.646877 -0.646869 0.403870
vn -0.707428 0.706748 -0.007287
vn 0.707426 0.706749 -0.007289
vn -0.442075 0.442076 0.780473
vn -0.622101 0.622098 -0.475378
vn 0.391196 -0.391191 -0.833028
vn 0.646876 -0.646868 0.403872
vn -0.706744 -0.707432 -0.007286
vn -0.601387 -0.796104 0.067467
vn 0.601386 0.796105 0.067466
vn -0.796104 0.601388 0.067466
f 1//1 3//3 2//2
f 3//3 1//1 4//4
f 5//5 7//7 6//6
f 5//5 6//6 8//8
f 5//5 8//8 9//9
f 10//10 5//5 9//9
f 10//10 9//9 11//11
f 12//12 10//10 11//11
f 12//12 11//11 13//13
f 12//12 13//13 14//14
f 15//15 12//12 14//14
f 15//15 14//14 16//16
f 7//7 5//5 17//17
f 5//5 10//10 17//17
f 10//10 12//12 18//18
f 12//12 15//15 18//18
f 1//1 2//2 7//7
f 1//1 7//7 17//17
f 4//4 1//1 17//17
f 4//4 17//17 10//10
f 4//4 10//10 18//18
f 3//3 4//4 18//18
f 3//3 18//18 15//15
f 14//14 19//19 16//16
f 20//20 8//8 6//6
f 21//21 19//19 14//14
f 22//22 21//21 14//14
f 22//22 14//14 13//13
f 11//11 22//22 13//13
f 11//11 23//23 22//22
f 24//24 23//23 11//11
f 24//24 11//11 9//9
f 8//8 24//24 9//9
f 8//8 25//25 24//24
f 20//20 25//25 8//8
f 26//26 19//19 21//21
f 27//27 26//26 21//21
f 27//27 21//21 22//22
f 27//27 22//22 23//23
f 28//28 27//27 23//23
f 28//28 23//23 24//24
f 28//28 24//24 25//25
f 29//29 28//28 25//25
f 29//29 25//25 20//20
f 26//26 27//27 30//30
f 27//27 28//28 30//30
f 28//28 29//29 30//30
f 31//31 15//15 16//16
f 31//31 16//16 32//32
f 31//31 32//32 33//33
f 34//34 31//31 33//33
f 34//34 33//33 35//35
f 36//36 34//34 35//35
f 36//36 35//35 37//37
f 36//36 37//37 38//38
f 7//7 36//36 38//38
f 7//7 38//38 6//6
f 15//15 31//31 39//39
f 31//31 40//40 39//39
f 31//31 34//34 40//40
f 34//34 41//41 40//40
f 34//34 36//36 41//41
f 36//36 7//7 41//41
f 3//3 15//15 39//39
f 2//2 3//3 39//39
f 2//2 39//39 40//40
f 2//2 40//40 41//41
f 2//2 41//41 7//7
f 38//38 20//20 6//6
f 19//19 32//32 16//16
f 42//42 20//20 38//38
f 43//43 42//42 38//38
f 43//43 38//38 37//37
f 35//35 43//43 37//37
f 35//35 44//44 43//43
f 45//45 44//44 35//35
f 45//45 35//35 33//33
f 32//32 45//45 33//33
f 32//32 46//46 45//45
f 19//19 46//46 32//32
f 29//29 20//20 42//42
f 47//47 29//29 42//42
f 47//47 42//42 43//43
f 48//48 47//47 43//43
f 48//48 43//43 44//44
f 48//48 44//44 45//45
f 49//49 48//48 45//45
f 49//49 45//45 46//46
f 26//26 49//49 46//46
f 26//26 46//46 19//19
f 29//29 47//47 30//30
f 47//47 48//48 30//30
f 48//48 49//49 30//30
f 49//49 26//26 30//30
f 50//50 52//52 51//51
f 53//53 55//55 54//54
f 56//56 58//58 57//57
f 56//56 57//57 59//59
f 56//56 59//59 58//58
f 60//60 62//62 61//61
f 63//63 65//65 64//64
f 63//63 66//66 65//65
f 63//63 64//64 67//67
f 63//63 67//67 66//66
f 68//68 66//66 67//67
f 68//68 67//67 64//64
f 68//68 65//65 66//66
f 68//68 64//64 65//65
f 69//69 71//71 70//70
f 69//69 72//72 71//71
f 69//69 70//70 73//73
f 69//69 73//73 72//72
f 74//74 72//72 73//73
f 74//74 73//73 70//70
f 74//74 71//71 72//72
f 74//74 70//70 71//71
f 75//75 77//77 76//76
f 75//75 78//78 77//77
f 75//75 76//76 79//79
f 75//75 79//79 78//78
f 80//80 78//78 79//79
f 80//80 79//79 76//76
f 80//80 77//77 78//78
f 80//80 76//76 77//77
f 81//81 83//83 82//82
f 81//81 84//84 83//83
f 81//81 82//82 85//85
f 81//81 85//85 84//84
f 86//86 84//84 85//85
f 86//86 85//85 82//82
f 86//86 83//83 84//84
f 86//86 82//82 83//83
f 87//87 51//51 52//52
f 87//87 52//52 50//50
f 87//87 50//50 51//51
f 88//88 61//61 62//62
f 88//88 60//60 61//61
f 88//88 62//62 60//60
f 89//89 53//53 54//54
f 89//89 55//55 53//53
f 89//89 54//54 55//55
f 59//59 57//57 58//58
