# Exported from Blender
v -0.000358 -0.028833 -0.968970
v -0.014726 -0.024791 -0.968970
v -0.025149 -0.014107 -0.968970
v -0.003384 -0.004747 -0.979297
v -0.028833 0.000358 -0.968970
v -0.024791 0.014726 -0.968970
v -0.014106 0.025149 -0.968970
v -0.002072 0.011235 -0.977530
v 0.000358 0.028833 -0.968970
v 0.000145 0.063312 -0.848682
v -0.031583 0.054905 -0.848529
v -0.054636 0.031789 -0.849230
v -0.063312 0.000145 -0.848682
v -0.054849 -0.031422 -0.849230
v -0.031789 -0.054637 -0.849230
v -0.000145 -0.063312 -0.848682
v -0.000000 0.063500 0.979962
v -0.030391 0.052638 0.877404
v -0.000000 0.060781 0.877404
v -0.031750 0.054993 0.979962
v -0.052638 0.030391 0.877404
v -0.054993 0.031750 0.979962
v -0.060781 0.000000 0.877404
v -0.063500 0.000000 0.979962
v -0.052638 -0.030390 0.877404
v -0.054993 -0.031750 0.979962
v -0.030391 -0.052638 0.877404
v -0.031750 -0.054992 0.979962
v -0.000000 -0.060781 0.877404
v -0.000000 -0.063500 0.979962
v 0.000000 0.047777 -0.918524
v -0.023889 0.041376 -0.918524
v -0.041376 0.023889 -0.918524
v -0.047777 -0.000000 -0.918524
v -0.041376 -0.023889 -0.918524
v -0.023888 -0.041377 -0.918524
v 0.000000 -0.047778 -0.918524
v -0.018180 0.031488 0.907876
v -0.000000 0.036360 0.907876
v -0.031489 0.018180 0.907876
v -0.036360 0.000000 0.907876
v -0.031489 -0.018180 0.907876
v -0.018180 -0.031488 0.907876
v -0.000000 -0.036359 0.907876
v -0.021500 0.037239 0.980038
v -0.000000 0.043000 0.980038
v -0.037240 0.021500 0.980038
v -0.043001 0.000000 0.980038
v -0.037240 -0.021500 0.980038
v -0.021500 -0.037239 0.980038
v -0.000000 -0.043000 0.980038
v -0.000000 0.000000 0.908445
v -0.054993 0.031750 0.764455
v -0.054993 -0.031750 0.764455
v -0.031750 -0.054993 0.764455
v -0.062612 0.000622 0.765664
v -0.000622 -0.062612 0.765664
v 0.000621 0.062612 0.765664
v -0.029971 0.054450 0.766306
v -0.050284 0.029031 0.771859
v -0.050284 -0.029031 0.771859
v -0.029031 -0.050283 0.771859
v 0.014726 0.024791 -0.968970
v 0.025149 0.014106 -0.968970
v 0.028833 -0.000358 -0.968970
v 0.013415 -0.000904 -0.976548
v 0.024791 -0.014727 -0.968970
v 0.014106 -0.025149 -0.968970
v 0.031422 -0.054849 -0.849230
v 0.054636 -0.031790 -0.849230
v 0.063211 -0.000212 -0.849230
v 0.054902 0.031530 -0.848682
v 0.031781 0.054757 -0.848682
v 0.030391 -0.052638 0.877404
v 0.031750 -0.054992 0.979962
v 0.052638 -0.030390 0.877404
v 0.054993 -0.031750 0.979962
v 0.060781 0.000000 0.877404
v 0.063500 0.000000 0.979962
v 0.052638 0.030391 0.877404
v 0.054993 0.031750 0.979962
v 0.030391 0.052638 0.877404
v 0.031750 0.054993 0.979962
v 0.023889 -0.041377 -0.918524
v 0.041376 -0.023889 -0.918524
v 0.047777 -0.000000 -0.918524
v 0.041376 0.023889 -0.918524
v 0.023888 0.041376 -0.918524
v 0.018180 -0.031488 0.907876
v 0.031489 -0.018180 0.907876
v 0.036360 0.000000 0.907876
v 0.031489 0.018180 0.907876
v 0.018180 0.031488 0.907876
v 0.021500 -0.037239 0.980038
v 0.037240 -0.021500 0.980038
v 0.043001 0.000000 0.980038
v 0.037240 0.021500 0.980038
v 0.021500 0.037239 0.980038
v 0.031750 -0.054992 0.764455
v 0.054993 -0.031750 0.764455
v 0.063500 0.000000 0.764455
v 0.054535 0.030768 0.765664
v 0.031845 0.053913 0.765664
v 0.029031 -0.050283 0.771859
v 0.050284 -0.029031 0.771859
v 0.058062 0.000000 0.771859
v 0.088383 -0.037761 0.832216
v 0.087051 -0.034848 0.770730
v 0.122812 -0.037444 0.874831
v 0.121073 -0.040134 0.813345
v -0.037729 -0.088382 0.832216
v -0.034817 -0.087050 0.770730
v -0.037413 -0.122811 0.874831
v -0.040103 -0.121072 0.813345
v -0.088351 0.037730 0.832216
v -0.087019 0.034817 0.770730
v -0.122780 0.037413 0.874831
v -0.121041 0.040103 0.813345
v 0.037761 0.088352 0.832216
v 0.034848 0.087020 0.770730
v 0.037445 0.122781 0.874831
v 0.040135 0.121042 0.813345
v 0.156983 0.156977 -0.423807
v 0.044908 0.044902 -0.462073
v 0.046961 0.042819 -0.423713
v 0.041525 0.048285 -0.436341
v 0.156983 -0.156976 -0.423806
v 0.044908 -0.044900 -0.462073
v 0.041525 -0.048283 -0.436341
v 0.046961 -0.042817 -0.423713
v -0.156970 -0.156976 -0.423806
v -0.044895 -0.044900 -0.462073
v -0.048278 -0.041517 -0.436341
v -0.042812 -0.046953 -0.423713
v -0.156970 0.156978 -0.423807
v -0.044895 0.044902 -0.462073
v -0.042812 0.046955 -0.423713
v -0.048278 0.041519 -0.436341
vn -0.006110 -0.752049 -0.659079
vn -0.386131 -0.650911 -0.653619
vn -0.659137 -0.366713 -0.656552
vn -0.086156 -0.120266 -0.988996
vn -0.745780 0.013606 -0.666053
vn -0.645290 0.376018 -0.664989
vn -0.377407 0.662446 -0.647093
vn -0.044181 0.254186 -0.966146
vn 0.012800 0.765054 -0.643838
vn 0.002295 0.994250 -0.107063
vn -0.495748 0.861952 -0.106177
vn -0.859660 0.499185 -0.108627
vn -0.994350 0.002789 -0.106112
vn -0.862210 -0.494930 -0.107886
vn -0.500263 -0.859124 -0.107902
vn -0.002787 -0.994350 -0.106112
vn -0.000009 0.337844 0.941202
vn -0.500756 0.865558 -0.007250
vn -0.000021 0.999984 -0.005689
vn -0.168931 0.292577 0.941202
vn -0.868456 0.495401 -0.019016
vn -0.292589 0.168915 0.941201
vn -0.999884 0.006043 -0.014005
vn -0.337846 -0.000008 0.941201
vn -0.862843 -0.505159 -0.017816
vn -0.292579 -0.168930 0.941201
vn -0.499824 -0.865733 -0.026129
vn -0.168917 -0.292587 0.941201
vn -0.006046 -0.999884 -0.014004
vn 0.000006 -0.337844 0.941202
vn -0.000062 0.959208 -0.282701
vn -0.479505 0.830725 -0.282790
vn -0.830713 0.479474 -0.282878
vn -0.959167 0.000059 -0.282839
vn -0.830612 -0.479592 -0.282977
vn -0.479474 -0.830713 -0.282879
vn -0.000056 -0.959167 -0.282840
vn -0.029601 0.051317 0.998244
vn 0.000018 0.059242 0.998244
vn -0.051292 0.029639 0.998244
vn -0.059242 0.000019 0.998244
vn -0.051316 -0.029603 0.998244
vn -0.029641 -0.051293 0.998244
vn -0.000019 -0.059242 0.998244
vn -0.220919 0.382603 0.897112
vn -0.000023 0.441801 0.897113
vn -0.382623 0.220885 0.897112
vn -0.441804 -0.000019 0.897112
vn -0.382604 -0.220917 0.897112
vn -0.220886 -0.382622 0.897112
vn 0.000020 -0.441801 0.897113
vn 0.000004 0.000001 1.000000
vn -0.824153 0.487664 0.288022
vn -0.832529 -0.469834 0.293516
vn -0.473524 -0.830411 0.293584
vn -0.998425 0.010399 0.055140
vn -0.010400 -0.998425 0.055140
vn 0.006000 0.999946 0.008458
vn -0.505389 0.862493 0.026223
vn -0.828496 0.484445 0.280906
vn -0.808459 -0.510809 0.292351
vn -0.507308 -0.807439 0.301133
vn 0.389862 0.639696 -0.662417
vn 0.649584 0.375487 -0.661098
vn 0.766670 -0.008340 -0.641987
vn 0.291182 -0.016112 -0.956532
vn 0.645199 -0.393264 -0.655028
vn 0.365622 -0.650597 -0.665616
vn 0.494932 -0.862208 -0.107885
vn 0.859347 -0.500001 -0.107337
vn 0.994155 -0.003678 -0.107902
vn 0.862618 0.494514 -0.106520
vn 0.499108 0.859920 -0.106905
vn 0.505157 -0.862844 -0.017815
vn 0.168931 -0.292580 0.941201
vn 0.865733 -0.499824 -0.026129
vn 0.292589 -0.168914 0.941201
vn 0.999659 0.000007 -0.026129
vn 0.337846 0.000009 0.941201
vn 0.868946 0.494709 -0.014005
vn 0.292579 0.168931 0.941201
vn 0.499973 0.866022 -0.005689
vn 0.168916 0.292588 0.941201
vn 0.479595 -0.830610 -0.282977
vn 0.830645 -0.479534 -0.282977
vn 0.959156 0.000121 -0.282878
vn 0.830674 0.479623 -0.282741
vn 0.479576 0.830701 -0.282741
vn 0.029599 -0.051314 0.998244
vn 0.051293 -0.029638 0.998244
vn 0.059242 -0.000020 0.998244
vn 0.051313 0.029604 0.998244
vn 0.029635 0.051294 0.998244
vn 0.220919 -0.382605 0.897111
vn 0.382625 -0.220886 0.897111
vn 0.441806 0.000019 0.897110
vn 0.382606 0.220920 0.897111
vn 0.220884 0.382628 0.897110
vn 0.469831 -0.832531 0.293515
vn 0.826899 -0.477413 0.297179
vn 0.955920 0.005121 0.293584
vn 0.880444 0.472759 0.036303
vn 0.508562 0.860979 0.008977
vn 0.510804 -0.808462 0.292351
vn 0.821751 -0.474441 0.315644
vn 0.952917 -0.035624 0.301132
vn -0.929388 -0.020048 0.368559
vn -0.334990 0.054821 -0.940626
vn 0.339393 0.005869 0.940626
vn 0.916748 -0.154069 -0.368559
vn -0.020049 0.929388 0.368559
vn 0.054828 0.334985 -0.940627
vn 0.005869 -0.339396 0.940625
vn -0.154069 -0.916748 -0.368558
vn 0.929388 0.020048 0.368559
vn 0.334989 -0.054824 -0.940626
vn -0.339394 -0.005869 0.940626
vn -0.916748 0.154070 -0.368559
vn 0.020048 -0.929389 0.368558
vn -0.054824 -0.334986 -0.940627
vn -0.005871 0.339403 0.940623
vn 0.154069 0.916748 -0.368559
vn 0.706857 0.699566 0.104693
vn 0.199367 0.132158 -0.970972
vn 0.229621 -0.220530 0.947967
vn -0.685621 0.709532 0.162748
vn 0.706827 -0.699593 0.104715
vn 0.199369 -0.132158 -0.970972
vn -0.685621 -0.709533 0.162746
vn 0.229619 0.220528 0.947968
vn -0.699632 -0.706781 0.104762
vn -0.132159 -0.199369 -0.970972
vn -0.709531 0.685622 0.162749
vn 0.220533 -0.229618 0.947967
vn -0.699625 0.706798 0.104694
vn -0.132153 0.199363 -0.970974
vn 0.220523 0.229626 0.947967
vn -0.709534 -0.685620 0.162747
f 4//4 1//1 2//2
f 4//4 2//2 3//3
f 4//4 3//3 5//5
f 4//4 5//5 6//6
f 4//4 6//6 8//8
f 8//8 6//6 7//7
f 8//8 7//7 9//9
f 17//17 19//19 18//18
f 17//17 18//18 20//20
f 20//20 18//18 21//21
f 20//20 21//21 22//22
f 22//22 21//21 23//23
f 22//22 23//23 24//24
f 24//24 23//23 25//25
f 24//24 25//25 26//26
f 26//26 25//25 27//27
f 26//26 27//27 28//28
f 28//28 27//27 29//29
f 28//28 29//29 30//30
f 11//11 10//10 31//31
f 11//11 31//31 32//32
f 12//12 11//11 32//32
f 32//32 31//31 9//9
f 32//32 9//9 7//7
f 33//33 32//32 7//7
f 12//12 32//32 33//33
f 33//33 7//7 6//6
f 13//13 12//12 33//33
f 34//34 33//33 6//6
f 13//13 33//33 34//34
f 34//34 6//6 5//5
f 14//14 13//13 34//34
f 35//35 34//34 5//5
f 14//14 34//34 35//35
f 35//35 5//5 3//3
f 15//15 14//14 35//35
f 36//36 35//35 3//3
f 15//15 35//35 36//36
f 16//16 15//15 36//36
f 36//36 3//3 2//2
f 16//16 36//36 37//37
f 37//37 36//36 2//2
f 37//37 2//2 1//1
f 38//38 39//39 17//17
f 38//38 17//17 20//20
f 40//40 38//38 20//20
f 40//40 20//20 22//22
f 41//41 40//40 22//22
f 41//41 22//22 24//24
f 42//42 41//41 24//24
f 42//42 24//24 26//26
f 43//43 42//42 26//26
f 43//43 26//26 28//28
f 44//44 43//43 28//28
f 44//44 28//28 30//30
f 45//45 46//46 39//39
f 45//45 39//39 38//38
f 47//47 45//45 38//38
f 47//47 38//38 40//40
f 48//48 47//47 40//40
f 48//48 40//40 41//41
f 49//49 48//48 41//41
f 49//49 41//41 42//42
f 50//50 49//49 42//42
f 50//50 42//42 43//43
f 51//51 50//50 43//43
f 51//51 43//43 44//44
f 52//52 46//46 45//45
f 52//52 45//45 47//47
f 52//52 47//47 48//48
f 52//52 48//48 49//49
f 52//52 49//49 50//50
f 52//52 50//50 51//51
f 58//58 10//10 11//11
f 53//53 13//13 56//56
f 56//56 13//13 54//54
f 55//55 16//16 57//57
f 58//58 18//18 19//19
f 58//58 59//59 18//18
f 59//59 21//21 18//18
f 59//59 60//60 21//21
f 60//60 23//23 21//21
f 60//60 56//56 23//23
f 56//56 25//25 23//23
f 56//56 61//61 25//25
f 61//61 27//27 25//25
f 61//61 62//62 27//27
f 62//62 29//29 27//27
f 62//62 57//57 29//29
f 60//60 59//59 53//53
f 56//56 60//60 53//53
f 61//61 56//56 54//54
f 62//62 61//61 54//54
f 62//62 54//54 55//55
f 57//57 62//62 55//55
f 11//11 53//53 59//59
f 58//58 11//11 59//59
f 55//55 15//15 16//16
f 54//54 15//15 55//55
f 54//54 14//14 15//15
f 13//13 14//14 54//54
f 53//53 12//12 13//13
f 11//11 12//12 53//53
f 8//8 9//9 63//63
f 8//8 63//63 64//64
f 8//8 64//64 66//66
f 66//66 64//64 65//65
f 66//66 65//65 67//67
f 66//66 67//67 68//68
f 66//66 68//68 4//4
f 4//4 68//68 1//1
f 30//30 29//29 74//74
f 30//30 74//74 75//75
f 75//75 74//74 76//76
f 75//75 76//76 77//77
f 77//77 76//76 78//78
f 77//77 78//78 79//79
f 79//79 78//78 80//80
f 79//79 80//80 81//81
f 81//81 80//80 82//82
f 81//81 82//82 83//83
f 83//83 82//82 19//19
f 83//83 19//19 17//17
f 69//69 16//16 37//37
f 69//69 37//37 84//84
f 70//70 69//69 84//84
f 84//84 37//37 1//1
f 84//84 1//1 68//68
f 85//85 84//84 68//68
f 70//70 84//84 85//85
f 85//85 68//68 67//67
f 71//71 70//70 85//85
f 86//86 85//85 67//67
f 71//71 85//85 86//86
f 86//86 67//67 65//65
f 72//72 71//71 86//86
f 87//87 86//86 65//65
f 72//72 86//86 87//87
f 87//87 65//65 64//64
f 73//73 72//72 87//87
f 88//88 87//87 64//64
f 73//73 87//87 88//88
f 10//10 73//73 88//88
f 88//88 64//64 63//63
f 10//10 88//88 31//31
f 31//31 88//88 63//63
f 31//31 63//63 9//9
f 89//89 44//44 30//30
f 89//89 30//30 75//75
f 90//90 89//89 75//75
f 90//90 75//75 77//77
f 91//91 90//90 77//77
f 91//91 77//77 79//79
f 92//92 91//91 79//79
f 92//92 79//79 81//81
f 93//93 92//92 81//81
f 93//93 81//81 83//83
f 39//39 93//93 83//83
f 39//39 83//83 17//17
f 94//94 51//51 44//44
f 94//94 44//44 89//89
f 95//95 94//94 89//89
f 95//95 89//89 90//90
f 96//96 95//95 90//90
f 96//96 90//90 91//91
f 97//97 96//96 91//91
f 97//97 91//91 92//92
f 98//98 97//97 92//92
f 98//98 92//92 93//93
f 46//46 98//98 93//93
f 46//46 93//93 39//39
f 52//52 51//51 94//94
f 52//52 94//94 95//95
f 52//52 95//95 96//96
f 52//52 96//96 97//97
f 52//52 97//97 98//98
f 52//52 98//98 46//46
f 4//4 8//8 66//66
f 57//57 16//16 99//99
f 101//101 72//72 102//102
f 102//102 72//72 73//73
f 102//102 73//73 103//103
f 103//103 73//73 10//10
f 103//103 10//10 58//58
f 57//57 74//74 29//29
f 57//57 104//104 74//74
f 104//104 76//76 74//74
f 104//104 105//105 76//76
f 105//105 78//78 76//76
f 105//105 106//106 78//78
f 106//106 80//80 78//78
f 106//106 102//102 80//80
f 102//102 82//82 80//80
f 102//102 103//103 82//82
f 103//103 19//19 82//82
f 103//103 58//58 19//19
f 104//104 57//57 99//99
f 105//105 104//104 99//99
f 105//105 99//99 100//100
f 106//106 105//105 100//100
f 106//106 100//100 101//101
f 102//102 106//106 101//101
f 101//101 71//71 72//72
f 100//100 71//71 101//101
f 100//100 70//70 71//71
f 99//99 70//70 100//100
f 99//99 69//69 70//70
f 16//16 69//69 99//99
f 109//109 108//108 107//107
f 109//109 110//110 108//108
f 113//113 112//112 111//111
f 113//113 114//114 112//112
f 117//117 116//116 115//115
f 117//117 118//118 116//116
f 121//121 120//120 119//119
f 121//121 122//122 120//120
f 123//123 125//125 124//124
f 123//123 124//124 126//126
f 125//125 123//123 126//126
f 127//127 129//129 128//128
f 130//130 129//129 127//127
f 127//127 128//128 130//130
f 131//131 133//133 132//132
f 134//134 133//133 131//131
f 131//131 132//132 134//134
f 135//135 137//137 136//136
f 135//135 136//136 138//138
f 137//137 135//135 138//138
f 119//119 122//122 121//121
f 120//120 122//122 119//119
f 115//115 118//118 117//117
f 116//116 118//118 115//115
f 111//111 114//114 113//113
f 112//112 114//114 111//111
f 107//107 110//110 109//109
f 108//108 110//110 107//107
