# Exported from Blender
v -0.000000 0.026894 -0.097805
v -0.013679 0.023544 -0.094942
v -0.023618 0.013550 -0.094942
v -0.027229 -0.000074 -0.094942
v -0.023544 -0.013679 -0.094942
v -0.013550 -0.023618 -0.094942
v 0.000000 -0.027450 -0.092593
v -0.002080 -0.007762 -0.199962
v -0.007715 -0.001839 -0.200112
v 0.000000 -0.000000 -0.208791
v -0.005450 0.005762 -0.200112
v 0.002026 0.007563 -0.200249
v -0.014009 -0.024265 0.063058
v 0.000000 -0.028019 0.063058
v -0.024265 -0.014009 0.063058
v -0.028019 0.000000 0.063058
v -0.024265 0.014009 0.063058
v -0.014009 0.024265 0.063058
v -0.000000 0.028019 0.063058
v 0.000000 -0.011642 0.134544
v -0.005821 -0.010083 0.134544
v -0.010083 -0.005821 0.134544
v -0.011642 0.000000 0.134544
v -0.008322 0.008386 0.135558
v 0.003007 0.011221 0.136571
v -0.003061 -0.011423 0.230105
v -0.011379 -0.003673 0.230105
v -0.008870 0.008018 0.230105
v -0.000000 0.011643 0.230105
v -0.009278 0.006307 0.208422
v -0.007286 0.008531 0.168091
v -0.031432 0.031432 0.223096
v -0.007224 0.008636 0.218293
v -0.007286 -0.008531 0.168091
v -0.031432 -0.031432 0.223096
v -0.006597 -0.009176 0.214910
v -0.008636 -0.007223 0.218293
v -0.009176 -0.006597 0.180373
v -0.018792 -0.018792 -0.095371
v -0.026573 -0.026573 -0.096149
v -0.016916 -0.015039 -0.122319
v -0.014589 -0.014913 -0.132451
v -0.018792 0.018792 -0.095371
v -0.026573 0.026573 -0.096149
v -0.015039 0.016916 -0.122319
v -0.014913 0.014589 -0.132451
v 0.013679 0.023544 -0.094942
v 0.023618 0.013550 -0.094942
v 0.027229 -0.000074 -0.094942
v 0.023544 -0.013679 -0.094942
v 0.013550 -0.023618 -0.094942
v 0.004061 -0.006656 -0.199818
v 0.007715 -0.001839 -0.200112
v 0.006656 0.004061 -0.199818
v 0.014009 -0.024265 0.063058
v 0.024265 -0.014009 0.063058
v 0.028019 0.000000 0.063058
v 0.024265 0.014009 0.063058
v 0.014009 0.024265 0.063058
v 0.005821 -0.010083 0.134544
v 0.010083 -0.005821 0.134544
v 0.011642 0.000000 0.134544
v 0.010083 0.005821 0.134544
v 0.005821 -0.010083 0.230105
v 0.011379 -0.003673 0.230105
v 0.008870 0.008018 0.230105
v 0.009278 0.006307 0.208422
v 0.031432 0.031432 0.223096
v 0.007286 0.008531 0.168091
v 0.007224 0.008636 0.218293
v 0.007286 -0.008531 0.168091
v 0.031432 -0.031432 0.223096
v 0.006597 -0.009176 0.214910
v 0.008636 -0.007223 0.218293
v 0.009176 -0.006597 0.180373
v 0.018792 -0.018792 -0.095371
v 0.026573 -0.026573 -0.096149
v 0.016916 -0.015039 -0.122319
v 0.014589 -0.014913 -0.132451
v 0.018792 0.018792 -0.095371
v 0.026573 0.026573 -0.096149
v 0.015039 0.016916 -0.122319
v 0.014913 0.014589 -0.132451
vn -0.001575 0.994397 -0.105698
vn -0.496248 0.863760 -0.087501
vn -0.864297 0.494364 -0.092709
vn -0.995695 -0.001410 -0.092684
vn -0.860242 -0.501368 -0.092808
vn -0.496909 -0.862364 -0.097001
vn 0.001053 -0.996583 -0.082587
vn -0.270249 -0.864586 -0.423624
vn -0.878285 -0.213750 -0.427699
vn -0.006193 -0.001664 -0.999979
vn -0.624887 0.654536 -0.425557
vn 0.196753 0.878946 -0.434445
vn -0.497265 -0.860831 0.108152
vn 0.000000 -0.994093 0.108534
vn -0.860977 -0.497088 0.107808
vn -0.993904 0.001573 0.110236
vn -0.862526 0.494354 0.107999
vn -0.494516 0.862468 0.107720
vn -0.003003 0.994189 0.107603
vn 0.000955 -0.993587 0.113063
vn -0.498384 -0.859340 0.114668
vn -0.859282 -0.498571 0.114291
vn -0.991831 0.052387 0.116305
vn -0.665127 0.736668 0.122175
vn 0.208964 0.971918 0.108206
vn -0.230396 -0.746404 0.624339
vn -0.751963 -0.236827 0.615195
vn -0.601305 0.506568 0.617917
vn -0.001632 0.774439 0.632647
vn -0.729374 -0.681030 0.064903
vn -0.634431 0.574146 -0.517545
vn -0.606486 0.613104 0.506240
vn 0.205639 0.012202 0.978552
vn -0.583375 -0.626474 -0.516918
vn -0.604969 -0.601561 0.521667
vn 0.690278 -0.668126 0.277712
vn -0.172684 0.345608 0.922353
vn -0.854467 0.495115 -0.157313
vn 0.014844 -0.114176 0.993350
vn -0.535125 -0.555448 0.636489
vn -0.916760 0.355833 -0.181477
vn -0.547417 -0.727120 -0.414284
vn -0.114169 -0.014854 0.993350
vn -0.555448 0.535125 0.636490
vn 0.355832 0.916761 -0.181477
vn -0.727122 0.547416 -0.414282
vn 0.497465 0.863131 -0.086798
vn 0.863955 0.494804 -0.093540
vn 0.995695 -0.001410 -0.092684
vn 0.860759 -0.500728 -0.091465
vn 0.494587 -0.863568 -0.098150
vn 0.470495 -0.780635 -0.411392
vn 0.877456 -0.208365 -0.432036
vn 0.781735 0.471712 -0.407896
vn 0.497265 -0.860831 0.108152
vn 0.860977 -0.497087 0.107808
vn 0.994172 -0.000002 0.107808
vn 0.860066 0.498186 0.109987
vn 0.499693 0.859486 0.107661
vn 0.497478 -0.859684 0.116017
vn 0.859282 -0.498570 0.114291
vn 0.993432 0.002134 0.114406
vn 0.832858 0.539808 0.122290
vn 0.372704 -0.673624 0.638218
vn 0.758304 -0.197579 0.621239
vn 0.601600 0.504687 0.619167
vn 0.729374 -0.681029 0.064903
vn 0.606488 0.613106 0.506235
vn 0.634431 0.574147 -0.517545
vn -0.205634 0.012206 0.978553
vn 0.583375 -0.626475 -0.516917
vn 0.604968 -0.601559 0.521672
vn -0.690278 -0.668126 0.277712
vn 0.172684 0.345608 0.922353
vn 0.854467 0.495114 -0.157313
vn -0.014837 -0.114184 0.993349
vn 0.535125 -0.555453 0.636485
vn 0.916760 0.355834 -0.181477
vn 0.547419 -0.727118 -0.414285
vn 0.114169 -0.014850 0.993350
vn 0.555447 0.535121 0.636493
vn -0.355833 0.916760 -0.181477
vn 0.727120 0.547418 -0.414284
f 10//10 8//8 9//9
f 10//10 9//9 11//11
f 10//10 11//11 12//12
f 13//13 7//7 14//14
f 13//13 6//6 7//7
f 15//15 6//6 13//13
f 15//15 5//5 6//6
f 16//16 5//5 15//15
f 16//16 4//4 5//5
f 17//17 4//4 16//16
f 17//17 3//3 4//4
f 18//18 3//3 17//17
f 18//18 2//2 3//3
f 19//19 2//2 18//18
f 19//19 1//1 2//2
f 14//14 20//20 21//21
f 14//14 21//21 13//13
f 13//13 21//21 22//22
f 13//13 22//22 15//15
f 15//15 22//22 23//23
f 15//15 23//23 16//16
f 16//16 23//23 24//24
f 16//16 24//24 17//17
f 17//17 24//24 18//18
f 18//18 24//24 25//25
f 18//18 25//25 19//19
f 20//20 26//26 21//21
f 21//21 26//26 27//27
f 21//21 27//27 22//22
f 22//22 27//27 23//23
f 23//23 27//27 28//28
f 23//23 28//28 24//24
f 24//24 28//28 29//29
f 24//24 29//29 25//25
f 1//1 12//12 11//11
f 1//1 11//11 2//2
f 2//2 11//11 3//3
f 3//3 11//11 9//9
f 3//3 9//9 4//4
f 4//4 9//9 5//5
f 5//5 9//9 8//8
f 5//5 8//8 6//6
f 6//6 8//8 7//7
f 30//30 32//32 31//31
f 30//30 33//33 32//32
f 31//31 32//32 33//33
f 34//34 36//36 35//35
f 36//36 37//37 35//35
f 38//38 34//34 35//35
f 38//38 35//35 37//37
f 41//41 40//40 39//39
f 41//41 42//42 40//40
f 42//42 39//39 40//40
f 45//45 44//44 43//43
f 45//45 46//46 44//44
f 46//46 43//43 44//44
f 10//10 52//52 8//8
f 10//10 53//53 52//52
f 10//10 54//54 53//53
f 10//10 12//12 54//54
f 55//55 14//14 7//7
f 55//55 7//7 51//51
f 56//56 55//55 51//51
f 56//56 51//51 50//50
f 57//57 56//56 50//50
f 57//57 50//50 49//49
f 58//58 57//57 49//49
f 58//58 49//49 48//48
f 59//59 58//58 48//48
f 59//59 48//48 47//47
f 19//19 59//59 47//47
f 19//19 47//47 1//1
f 14//14 60//60 20//20
f 14//14 55//55 60//60
f 55//55 61//61 60//60
f 55//55 56//56 61//61
f 56//56 62//62 61//61
f 56//56 57//57 62//62
f 57//57 63//63 62//62
f 57//57 58//58 63//63
f 58//58 25//25 63//63
f 58//58 59//59 25//25
f 59//59 19//19 25//25
f 20//20 64//64 26//26
f 20//20 60//60 64//64
f 60//60 65//65 64//64
f 60//60 61//61 65//65
f 61//61 62//62 65//65
f 62//62 66//66 65//65
f 62//62 63//63 66//66
f 63//63 25//25 66//66
f 25//25 29//29 66//66
f 1//1 47//47 12//12
f 47//47 54//54 12//12
f 47//47 48//48 54//54
f 48//48 53//53 54//54
f 48//48 49//49 53//53
f 49//49 50//50 53//53
f 50//50 52//52 53//53
f 50//50 51//51 52//52
f 51//51 8//8 52//52
f 51//51 7//7 8//8
f 67//67 69//69 68//68
f 67//67 68//68 70//70
f 69//69 70//70 68//68
f 71//71 72//72 73//73
f 73//73 72//72 74//74
f 75//75 72//72 71//71
f 75//75 74//74 72//72
f 78//78 76//76 77//77
f 78//78 77//77 79//79
f 79//79 77//77 76//76
f 82//82 80//80 81//81
f 82//82 81//81 83//83
f 83//83 81//81 80//80
f 28//28 27//27 26//26
f 28//28 26//26 29//29
f 29//29 26//26 64//64
f 29//29 64//64 66//66
f 66//66 64//64 65//65
